<svg width="62" height="298" viewBox="0 0 62 298" fill="none" xmlns="http://www.w3.org/2000/svg">
<path d="M0 133C0 126.373 5.37258 121 12 121H50C56.6274 121 62 126.373 62 133V165C62 171.627 56.6274 177 50 177H12C5.37258 177 0 171.627 0 165V133Z" fill="#3C3C3B"/>
<path d="M9.51247 160.273C9.49117 160.093 9.40476 159.953 9.25324 159.854C9.10173 159.754 8.91588 159.705 8.69571 159.705C8.53473 159.705 8.39387 159.731 8.27313 159.783C8.15357 159.835 8.06006 159.906 7.99259 159.998C7.9263 160.089 7.89316 160.192 7.89316 160.308C7.89316 160.405 7.91624 160.489 7.9624 160.559C8.00975 160.627 8.07012 160.685 8.14351 160.731C8.2169 160.776 8.29384 160.813 8.37433 160.843C8.45483 160.871 8.52881 160.894 8.59628 160.912L8.9656 161.011C9.0603 161.036 9.16565 161.071 9.28165 161.114C9.39884 161.158 9.5107 161.218 9.61723 161.294C9.72495 161.368 9.81373 161.464 9.88357 161.581C9.95341 161.699 9.98833 161.842 9.98833 162.013C9.98833 162.209 9.93683 162.387 9.83385 162.545C9.73205 162.704 9.5829 162.83 9.38641 162.924C9.1911 163.017 8.95376 163.064 8.67441 163.064C8.41399 163.064 8.18849 163.022 7.99791 162.938C7.80852 162.854 7.65937 162.737 7.55047 162.586C7.44275 162.436 7.38179 162.261 7.36759 162.062H7.82213C7.83397 162.2 7.88013 162.313 7.96063 162.403C8.0423 162.492 8.14529 162.558 8.26958 162.602C8.39505 162.645 8.52999 162.666 8.67441 162.666C8.84249 162.666 8.99342 162.639 9.12718 162.585C9.26093 162.529 9.36688 162.452 9.445 162.354C9.52313 162.254 9.56219 162.138 9.56219 162.006C9.56219 161.885 9.52845 161.787 9.46098 161.711C9.39351 161.635 9.30473 161.574 9.19465 161.526C9.08456 161.479 8.9656 161.437 8.83776 161.402L8.39031 161.274C8.10622 161.192 7.88132 161.076 7.7156 160.924C7.54988 160.773 7.46702 160.575 7.46702 160.33C7.46702 160.126 7.52206 159.948 7.63215 159.797C7.74342 159.644 7.89256 159.526 8.07959 159.442C8.2678 159.357 8.47791 159.314 8.70992 159.314C8.94429 159.314 9.15262 159.356 9.33492 159.44C9.51721 159.523 9.66162 159.636 9.76816 159.781C9.87587 159.925 9.93269 160.089 9.93861 160.273H9.51247ZM11.799 163.057C11.5362 163.057 11.3095 162.999 11.1189 162.883C10.9295 162.766 10.7833 162.602 10.6804 162.393C10.5786 162.182 10.5277 161.937 10.5277 161.658C10.5277 161.378 10.5786 161.132 10.6804 160.919C10.7833 160.705 10.9266 160.538 11.11 160.418C11.2947 160.298 11.5101 160.237 11.7563 160.237C11.8984 160.237 12.0387 160.261 12.1772 160.308C12.3157 160.356 12.4417 160.433 12.5554 160.539C12.669 160.644 12.7595 160.784 12.827 160.958C12.8945 161.132 12.9282 161.346 12.9282 161.601V161.778H10.8259V161.416H12.5021C12.5021 161.262 12.4713 161.125 12.4098 161.004C12.3494 160.884 12.263 160.788 12.1505 160.718C12.0393 160.649 11.9079 160.614 11.7563 160.614C11.5894 160.614 11.445 160.655 11.3231 160.738C11.2024 160.82 11.1094 160.926 11.0443 161.058C10.9792 161.189 10.9467 161.33 10.9467 161.48V161.722C10.9467 161.928 10.9822 162.102 11.0532 162.245C11.1254 162.387 11.2255 162.496 11.3533 162.57C11.4811 162.644 11.6297 162.68 11.799 162.68C11.909 162.68 12.0085 162.665 12.0973 162.634C12.1872 162.602 12.2648 162.555 12.3299 162.492C12.395 162.428 12.4453 162.349 12.4808 162.254L12.8856 162.368C12.843 162.505 12.7714 162.626 12.6708 162.73C12.5701 162.833 12.4459 162.914 12.2979 162.972C12.1499 163.028 11.9836 163.057 11.799 163.057ZM14.7517 160.273V160.628H13.3384V160.273H14.7517ZM13.7503 159.619H14.1693V162.219C14.1693 162.337 14.1865 162.426 14.2208 162.485C14.2563 162.543 14.3013 162.582 14.3558 162.602C14.4114 162.621 14.47 162.631 14.5316 162.631C14.5777 162.631 14.6156 162.628 14.6452 162.624C14.6748 162.618 14.6985 162.613 14.7162 162.609L14.8014 162.986C14.773 162.996 14.7334 163.007 14.6825 163.018C14.6316 163.03 14.5671 163.036 14.4889 163.036C14.3706 163.036 14.2546 163.01 14.1409 162.959C14.0285 162.908 13.935 162.831 13.8604 162.727C13.787 162.622 13.7503 162.491 13.7503 162.332V159.619ZM17.1008 161.885V160.273H17.5198V163H17.1008V162.538H17.0724C17.0085 162.677 16.909 162.795 16.7741 162.892C16.6392 162.988 16.4687 163.036 16.2627 163.036C16.0923 163.036 15.9408 162.998 15.8082 162.924C15.6756 162.848 15.5715 162.734 15.4957 162.583C15.4199 162.43 15.3821 162.238 15.3821 162.006V160.273H15.8011V161.977C15.8011 162.176 15.8567 162.335 15.968 162.453C16.0804 162.571 16.2237 162.631 16.3977 162.631C16.5018 162.631 16.6078 162.604 16.7155 162.551C16.8244 162.498 16.9156 162.416 16.9889 162.306C17.0635 162.196 17.1008 162.055 17.1008 161.885ZM18.2873 164.023V160.273H18.6922V160.706H18.7419C18.7727 160.659 18.8153 160.598 18.8697 160.525C18.9254 160.45 19.0047 160.384 19.1076 160.326C19.2118 160.267 19.3527 160.237 19.5302 160.237C19.7599 160.237 19.9623 160.295 20.1375 160.409C20.3127 160.524 20.4494 160.687 20.5476 160.898C20.6459 161.108 20.695 161.357 20.695 161.643C20.695 161.932 20.6459 162.183 20.5476 162.395C20.4494 162.605 20.3133 162.769 20.1392 162.885C19.9652 162.999 19.7646 163.057 19.5373 163.057C19.3621 163.057 19.2219 163.028 19.1165 162.97C19.0112 162.911 18.9301 162.844 18.8733 162.769C18.8165 162.693 18.7727 162.631 18.7419 162.581H18.7064V164.023H18.2873ZM18.6993 161.636C18.6993 161.842 18.7294 162.024 18.7898 162.181C18.8502 162.338 18.9384 162.46 19.0544 162.549C19.1704 162.637 19.3124 162.68 19.4805 162.68C19.6557 162.68 19.8019 162.634 19.9191 162.542C20.0374 162.448 20.1262 162.323 20.1854 162.165C20.2458 162.007 20.276 161.83 20.276 161.636C20.276 161.445 20.2464 161.272 20.1872 161.118C20.1292 160.963 20.041 160.84 19.9226 160.75C19.8054 160.659 19.6581 160.614 19.4805 160.614C19.3101 160.614 19.1668 160.657 19.0508 160.743C18.9348 160.828 18.8472 160.948 18.788 161.102C18.7289 161.255 18.6993 161.433 18.6993 161.636ZM22.9464 163H22.4848L23.82 159.364H24.2745L25.6098 163H25.1481L24.0615 159.939H24.0331L22.9464 163ZM23.1169 161.58H24.9777V161.97H23.1169V161.58ZM27.2202 164.08C27.0178 164.08 26.8438 164.054 26.6982 164.001C26.5526 163.951 26.4313 163.883 26.3342 163.799C26.2383 163.716 26.162 163.627 26.1052 163.533L26.439 163.298C26.4768 163.348 26.5248 163.405 26.5828 163.469C26.6408 163.534 26.7201 163.59 26.8207 163.637C26.9225 163.686 27.0557 163.71 27.2202 163.71C27.4404 163.71 27.6221 163.657 27.7653 163.55C27.9085 163.444 27.9802 163.277 27.9802 163.05V162.496H27.9446C27.9139 162.545 27.8701 162.607 27.8133 162.68C27.7576 162.753 27.6771 162.817 27.5718 162.874C27.4676 162.93 27.3267 162.957 27.1492 162.957C26.929 162.957 26.7313 162.905 26.5562 162.801C26.3821 162.697 26.2442 162.545 26.1424 162.347C26.0418 162.148 25.9915 161.906 25.9915 161.622C25.9915 161.343 26.0406 161.1 26.1389 160.892C26.2371 160.684 26.3739 160.523 26.5491 160.409C26.7242 160.295 26.9267 160.237 27.1563 160.237C27.3339 160.237 27.4747 160.267 27.5789 160.326C27.6842 160.384 27.7647 160.45 27.8204 160.525C27.8772 160.598 27.921 160.659 27.9517 160.706H27.9944V160.273H28.3992V163.078C28.3992 163.312 28.3459 163.503 28.2394 163.65C28.134 163.798 27.992 163.906 27.8133 163.975C27.6357 164.045 27.438 164.08 27.2202 164.08ZM27.206 162.581C27.3741 162.581 27.5161 162.542 27.6321 162.466C27.7482 162.389 27.8363 162.278 27.8967 162.134C27.9571 161.989 27.9873 161.816 27.9873 161.615C27.9873 161.419 27.9577 161.245 27.8985 161.095C27.8393 160.944 27.7517 160.827 27.6357 160.741C27.5197 160.656 27.3765 160.614 27.206 160.614C27.0285 160.614 26.8805 160.659 26.7621 160.749C26.6449 160.839 26.5567 160.959 26.4976 161.111C26.4396 161.262 26.4106 161.43 26.4106 161.615C26.4106 161.804 26.4401 161.972 26.4993 162.118C26.5597 162.262 26.6485 162.376 26.7657 162.458C26.884 162.54 27.0308 162.581 27.206 162.581ZM30.3097 163.057C30.0469 163.057 29.8202 162.999 29.6297 162.883C29.4403 162.766 29.2941 162.602 29.1911 162.393C29.0893 162.182 29.0384 161.937 29.0384 161.658C29.0384 161.378 29.0893 161.132 29.1911 160.919C29.2941 160.705 29.4373 160.538 29.6208 160.418C29.8054 160.298 30.0209 160.237 30.2671 160.237C30.4091 160.237 30.5494 160.261 30.6879 160.308C30.8264 160.356 30.9525 160.433 31.0661 160.539C31.1797 160.644 31.2703 160.784 31.3378 160.958C31.4052 161.132 31.439 161.346 31.439 161.601V161.778H29.3367V161.416H31.0128C31.0128 161.262 30.9821 161.125 30.9205 161.004C30.8601 160.884 30.7737 160.788 30.6613 160.718C30.55 160.649 30.4186 160.614 30.2671 160.614C30.1002 160.614 29.9558 160.655 29.8339 160.738C29.7131 160.82 29.6202 160.926 29.5551 161.058C29.49 161.189 29.4574 161.33 29.4574 161.48V161.722C29.4574 161.928 29.4929 162.102 29.564 162.245C29.6362 162.387 29.7362 162.496 29.864 162.57C29.9919 162.644 30.1404 162.68 30.3097 162.68C30.4198 162.68 30.5192 162.665 30.608 162.634C30.698 162.602 30.7755 162.555 30.8406 162.492C30.9057 162.428 30.956 162.349 30.9915 162.254L31.3964 162.368C31.3537 162.505 31.2821 162.626 31.1815 162.73C31.0809 162.833 30.9566 162.914 30.8086 162.972C30.6607 163.028 30.4944 163.057 30.3097 163.057ZM32.4954 161.359V163H32.0764V160.273H32.4812V160.699H32.5167C32.5807 160.56 32.6777 160.449 32.8079 160.365C32.9381 160.28 33.1062 160.237 33.3122 160.237C33.4968 160.237 33.6584 160.275 33.7969 160.351C33.9354 160.425 34.0431 160.539 34.1201 160.692C34.197 160.843 34.2355 161.035 34.2355 161.267V163H33.8165V161.295C33.8165 161.081 33.7608 160.914 33.6495 160.795C33.5383 160.674 33.3856 160.614 33.1915 160.614C33.0577 160.614 32.9381 160.643 32.8328 160.701C32.7286 160.759 32.6464 160.843 32.586 160.955C32.5256 161.066 32.4954 161.201 32.4954 161.359ZM36.1873 160.273V160.628H34.7739V160.273H36.1873ZM35.1859 159.619H35.6049V162.219C35.6049 162.337 35.6221 162.426 35.6564 162.485C35.6919 162.543 35.7369 162.582 35.7913 162.602C35.847 162.621 35.9056 162.631 35.9671 162.631C36.0133 162.631 36.0512 162.628 36.0807 162.624C36.1103 162.618 36.134 162.613 36.1518 162.609L36.237 162.986C36.2086 162.996 36.1689 163.007 36.118 163.018C36.0671 163.03 36.0026 163.036 35.9245 163.036C35.8061 163.036 35.6901 163.01 35.5765 162.959C35.464 162.908 35.3705 162.831 35.2959 162.727C35.2226 162.622 35.1859 162.491 35.1859 162.332V159.619ZM39.3247 164.08C39.1223 164.08 38.9483 164.054 38.8027 164.001C38.6571 163.951 38.5358 163.883 38.4387 163.799C38.3428 163.716 38.2665 163.627 38.2097 163.533L38.5435 163.298C38.5813 163.348 38.6293 163.405 38.6873 163.469C38.7453 163.534 38.8246 163.59 38.9252 163.637C39.027 163.686 39.1602 163.71 39.3247 163.71C39.5449 163.71 39.7266 163.657 39.8698 163.55C40.013 163.444 40.0847 163.277 40.0847 163.05V162.496H40.0491C40.0184 162.545 39.9746 162.607 39.9177 162.68C39.8621 162.753 39.7816 162.817 39.6763 162.874C39.5721 162.93 39.4312 162.957 39.2537 162.957C39.0335 162.957 38.8358 162.905 38.6606 162.801C38.4866 162.697 38.3487 162.545 38.2469 162.347C38.1463 162.148 38.096 161.906 38.096 161.622C38.096 161.343 38.1451 161.1 38.2434 160.892C38.3416 160.684 38.4784 160.523 38.6535 160.409C38.8287 160.295 39.0311 160.237 39.2608 160.237C39.4383 160.237 39.5792 160.267 39.6834 160.326C39.7887 160.384 39.8692 160.45 39.9248 160.525C39.9817 160.598 40.0255 160.659 40.0562 160.706H40.0989V160.273H40.5037V163.078C40.5037 163.312 40.4504 163.503 40.3439 163.65C40.2385 163.798 40.0965 163.906 39.9177 163.975C39.7402 164.045 39.5425 164.08 39.3247 164.08ZM39.3105 162.581C39.4786 162.581 39.6206 162.542 39.7366 162.466C39.8526 162.389 39.9408 162.278 40.0012 162.134C40.0616 161.989 40.0918 161.816 40.0918 161.615C40.0918 161.419 40.0622 161.245 40.003 161.095C39.9438 160.944 39.8562 160.827 39.7402 160.741C39.6242 160.656 39.481 160.614 39.3105 160.614C39.1329 160.614 38.985 160.659 38.8666 160.749C38.7494 160.839 38.6612 160.959 38.6021 161.111C38.544 161.262 38.515 161.43 38.515 161.615C38.515 161.804 38.5446 161.972 38.6038 162.118C38.6642 162.262 38.753 162.376 38.8702 162.458C38.9885 162.54 39.1353 162.581 39.3105 162.581ZM42.0733 163.064C41.9005 163.064 41.7436 163.031 41.6028 162.966C41.4619 162.9 41.35 162.805 41.2672 162.68C41.1843 162.555 41.1429 162.403 41.1429 162.226C41.1429 162.07 41.1737 161.943 41.2352 161.846C41.2968 161.748 41.379 161.671 41.482 161.615C41.585 161.559 41.6986 161.518 41.8229 161.491C41.9484 161.462 42.0745 161.44 42.2011 161.423C42.3668 161.402 42.5012 161.386 42.6042 161.375C42.7083 161.364 42.7841 161.344 42.8315 161.317C42.88 161.29 42.9043 161.242 42.9043 161.175V161.161C42.9043 160.985 42.8563 160.849 42.7604 160.752C42.6657 160.655 42.5219 160.607 42.329 160.607C42.1289 160.607 41.9721 160.65 41.8584 160.738C41.7448 160.826 41.6649 160.919 41.6187 161.018L41.221 160.876C41.292 160.711 41.3867 160.582 41.5051 160.489C41.6247 160.396 41.7549 160.331 41.8957 160.294C42.0378 160.256 42.1775 160.237 42.3148 160.237C42.4024 160.237 42.503 160.248 42.6166 160.269C42.7314 160.289 42.8421 160.331 42.9486 160.395C43.0564 160.459 43.1457 160.556 43.2168 160.685C43.2878 160.814 43.3233 160.987 43.3233 161.203V163H42.9043V162.631H42.8829C42.8545 162.69 42.8072 162.753 42.7409 162.821C42.6746 162.888 42.5864 162.946 42.4763 162.993C42.3663 163.04 42.2319 163.064 42.0733 163.064ZM42.1372 162.688C42.3029 162.688 42.4426 162.655 42.5562 162.59C42.6711 162.525 42.7575 162.441 42.8155 162.338C42.8747 162.235 42.9043 162.126 42.9043 162.013V161.629C42.8865 161.651 42.8474 161.67 42.7871 161.688C42.7279 161.704 42.6592 161.719 42.5811 161.732C42.5042 161.744 42.429 161.755 42.3556 161.764C42.2834 161.772 42.2248 161.78 42.1798 161.786C42.0709 161.8 41.9691 161.823 41.8744 161.855C41.7809 161.886 41.7052 161.932 41.6472 161.995C41.5903 162.057 41.5619 162.141 41.5619 162.247C41.5619 162.393 41.6158 162.503 41.7235 162.577C41.8324 162.651 41.9703 162.688 42.1372 162.688ZM45.2742 160.273V160.628H43.8608V160.273H45.2742ZM44.2728 159.619H44.6918V162.219C44.6918 162.337 44.709 162.426 44.7433 162.485C44.7788 162.543 44.8238 162.582 44.8782 162.602C44.9339 162.621 44.9925 162.631 45.054 162.631C45.1002 162.631 45.1381 162.628 45.1677 162.624C45.1973 162.618 45.2209 162.613 45.2387 162.609L45.3239 162.986C45.2955 162.996 45.2558 163.007 45.2049 163.018C45.154 163.03 45.0895 163.036 45.0114 163.036C44.893 163.036 44.777 163.01 44.6634 162.959C44.5509 162.908 44.4574 162.831 44.3829 162.727C44.3095 162.622 44.2728 162.491 44.2728 162.332V159.619ZM46.3821 161.359V163H45.9631V159.364H46.3821V160.699H46.4177C46.4816 160.558 46.5775 160.446 46.7053 160.363C46.8343 160.279 47.006 160.237 47.2202 160.237C47.4061 160.237 47.5688 160.275 47.7085 160.349C47.8482 160.422 47.9565 160.536 48.0334 160.688C48.1116 160.84 48.1506 161.033 48.1506 161.267V163H47.7316V161.295C47.7316 161.079 47.6754 160.911 47.5629 160.793C47.4516 160.673 47.2972 160.614 47.0995 160.614C46.9622 160.614 46.8391 160.643 46.7302 160.701C46.6224 160.759 46.5372 160.843 46.4745 160.955C46.4129 161.066 46.3821 161.201 46.3821 161.359ZM50.0607 163.057C49.7979 163.057 49.5712 162.999 49.3806 162.883C49.1912 162.766 49.0451 162.602 48.9421 162.393C48.8403 162.182 48.7894 161.937 48.7894 161.658C48.7894 161.378 48.8403 161.132 48.9421 160.919C49.0451 160.705 49.1883 160.538 49.3718 160.418C49.5564 160.298 49.7719 160.237 50.0181 160.237C50.1601 160.237 50.3004 160.261 50.4389 160.308C50.5774 160.356 50.7034 160.433 50.8171 160.539C50.9307 160.644 51.0213 160.784 51.0887 160.958C51.1562 161.132 51.1899 161.346 51.1899 161.601V161.778H49.0877V161.416H50.7638C50.7638 161.262 50.733 161.125 50.6715 161.004C50.6111 160.884 50.5247 160.788 50.4122 160.718C50.301 160.649 50.1696 160.614 50.0181 160.614C49.8512 160.614 49.7068 160.655 49.5848 160.738C49.4641 160.82 49.3712 160.926 49.3061 161.058C49.241 161.189 49.2084 161.33 49.2084 161.48V161.722C49.2084 161.928 49.2439 162.102 49.3149 162.245C49.3871 162.387 49.4872 162.496 49.615 162.57C49.7429 162.644 49.8914 162.68 50.0607 162.68C50.1708 162.68 50.2702 162.665 50.359 162.634C50.4489 162.602 50.5265 162.555 50.5916 162.492C50.6567 162.428 50.707 162.349 50.7425 162.254L51.1473 162.368C51.1047 162.505 51.0331 162.626 50.9325 162.73C50.8319 162.833 50.7076 162.914 50.5596 162.972C50.4117 163.028 50.2453 163.057 50.0607 163.057ZM51.8274 163V160.273H52.2322V160.685H52.2606C52.3103 160.55 52.4003 160.44 52.5305 160.356C52.6607 160.272 52.8075 160.23 52.9708 160.23C53.0016 160.23 53.0401 160.231 53.0862 160.232C53.1324 160.233 53.1673 160.235 53.191 160.237V160.663C53.1768 160.66 53.1443 160.654 53.0934 160.647C53.0436 160.639 52.991 160.635 52.9353 160.635C52.8027 160.635 52.6844 160.663 52.5802 160.718C52.4772 160.773 52.3956 160.849 52.3352 160.946C52.276 161.042 52.2464 161.151 52.2464 161.274V163H51.8274ZM55.6195 160.884L55.2431 160.99C55.2194 160.927 55.1845 160.866 55.1384 160.807C55.0934 160.747 55.0318 160.697 54.9537 160.658C54.8756 160.619 54.7756 160.599 54.6536 160.599C54.4867 160.599 54.3476 160.638 54.2364 160.715C54.1263 160.791 54.0712 160.887 54.0712 161.004C54.0712 161.108 54.1091 161.191 54.1849 161.251C54.2606 161.311 54.379 161.362 54.54 161.402L54.9448 161.501C55.1887 161.561 55.3704 161.651 55.4899 161.773C55.6095 161.894 55.6693 162.049 55.6693 162.24C55.6693 162.396 55.6243 162.536 55.5343 162.659C55.4455 162.782 55.3212 162.879 55.1614 162.95C55.0016 163.021 54.8158 163.057 54.6039 163.057C54.3257 163.057 54.0955 162.996 53.9132 162.876C53.7309 162.755 53.6155 162.579 53.567 162.347L53.9647 162.247C54.0026 162.394 54.0742 162.504 54.1796 162.577C54.2861 162.651 54.4252 162.688 54.5968 162.688C54.7921 162.688 54.9472 162.646 55.062 162.563C55.178 162.479 55.236 162.379 55.236 162.261C55.236 162.167 55.2029 162.087 55.1366 162.023C55.0703 161.958 54.9685 161.91 54.8312 161.878L54.3766 161.771C54.1269 161.712 53.9434 161.62 53.8262 161.496C53.7102 161.371 53.6522 161.214 53.6522 161.026C53.6522 160.872 53.6954 160.736 53.7818 160.617C53.8694 160.499 53.9884 160.406 54.1387 160.338C54.2902 160.271 54.4619 160.237 54.6536 160.237C54.9235 160.237 55.1354 160.296 55.2893 160.415C55.4444 160.533 55.5544 160.689 55.6195 160.884ZM25.5232 166.5H25.0829C25.0568 166.373 25.0113 166.262 24.9462 166.166C24.8822 166.07 24.8041 165.99 24.7118 165.925C24.6206 165.858 24.5194 165.809 24.4082 165.776C24.2969 165.742 24.1809 165.726 24.0601 165.726C23.84 165.726 23.6405 165.781 23.4618 165.893C23.2842 166.004 23.1428 166.168 23.0374 166.385C22.9333 166.601 22.8812 166.867 22.8812 167.182C22.8812 167.497 22.9333 167.762 23.0374 167.979C23.1428 168.196 23.2842 168.36 23.4618 168.471C23.6405 168.582 23.84 168.638 24.0601 168.638C24.1809 168.638 24.2969 168.621 24.4082 168.588C24.5194 168.555 24.6206 168.506 24.7118 168.441C24.8041 168.374 24.8822 168.293 24.9462 168.197C25.0113 168.1 25.0568 167.989 25.0829 167.864H25.5232C25.4901 168.049 25.4297 168.216 25.3421 168.363C25.2545 168.509 25.1456 168.634 25.0154 168.737C24.8852 168.839 24.739 168.917 24.5768 168.97C24.4159 169.023 24.2436 169.05 24.0601 169.05C23.75 169.05 23.4742 168.974 23.2327 168.822C22.9913 168.671 22.8013 168.455 22.6628 168.176C22.5243 167.897 22.455 167.565 22.455 167.182C22.455 166.798 22.5243 166.467 22.6628 166.188C22.8013 165.908 22.9913 165.693 23.2327 165.541C23.4742 165.39 23.75 165.314 24.0601 165.314C24.2436 165.314 24.4159 165.341 24.5768 165.394C24.739 165.447 24.8852 165.525 25.0154 165.628C25.1456 165.73 25.2545 165.854 25.3421 166.001C25.4297 166.147 25.4901 166.313 25.5232 166.5ZM27.2859 169.057C27.0397 169.057 26.8237 168.998 26.6378 168.881C26.4532 168.764 26.3088 168.6 26.2046 168.389C26.1016 168.179 26.0501 167.932 26.0501 167.651C26.0501 167.366 26.1016 167.118 26.2046 166.907C26.3088 166.695 26.4532 166.53 26.6378 166.413C26.8237 166.296 27.0397 166.237 27.2859 166.237C27.5321 166.237 27.7476 166.296 27.9322 166.413C28.1181 166.53 28.2625 166.695 28.3655 166.907C28.4696 167.118 28.5217 167.366 28.5217 167.651C28.5217 167.932 28.4696 168.179 28.3655 168.389C28.2625 168.6 28.1181 168.764 27.9322 168.881C27.7476 168.998 27.5321 169.057 27.2859 169.057ZM27.2859 168.68C27.4729 168.68 27.6268 168.632 27.7476 168.537C27.8683 168.441 27.9577 168.315 28.0157 168.158C28.0737 168.002 28.1027 167.833 28.1027 167.651C28.1027 167.468 28.0737 167.298 28.0157 167.141C27.9577 166.984 27.8683 166.856 27.7476 166.759C27.6268 166.662 27.4729 166.614 27.2859 166.614C27.0989 166.614 26.945 166.662 26.8243 166.759C26.7035 166.856 26.6142 166.984 26.5562 167.141C26.4982 167.298 26.4691 167.468 26.4691 167.651C26.4691 167.833 26.4982 168.002 26.5562 168.158C26.6142 168.315 26.7035 168.441 26.8243 168.537C26.945 168.632 27.0989 168.68 27.2859 168.68ZM29.5804 167.359V169H29.1614V166.273H29.5662V166.699H29.6017C29.6656 166.56 29.7627 166.449 29.8929 166.365C30.0231 166.28 30.1912 166.237 30.3972 166.237C30.5818 166.237 30.7434 166.275 30.8819 166.351C31.0204 166.425 31.1281 166.539 31.205 166.692C31.282 166.843 31.3204 167.035 31.3204 167.267V169H30.9014V167.295C30.9014 167.081 30.8458 166.914 30.7345 166.795C30.6232 166.674 30.4705 166.614 30.2764 166.614C30.1427 166.614 30.0231 166.643 29.9177 166.701C29.8136 166.759 29.7313 166.843 29.6709 166.955C29.6106 167.066 29.5804 167.201 29.5804 167.359ZM33.2722 166.273V166.628H31.8589V166.273H33.2722ZM32.2708 165.619H32.6899V168.219C32.6899 168.337 32.707 168.426 32.7413 168.485C32.7769 168.543 32.8218 168.582 32.8763 168.602C32.9319 168.621 32.9905 168.631 33.0521 168.631C33.0982 168.631 33.1361 168.628 33.1657 168.624C33.1953 168.618 33.219 168.613 33.2367 168.609L33.322 168.986C33.2935 168.996 33.2539 169.007 33.203 169.018C33.1521 169.03 33.0876 169.036 33.0095 169.036C32.8911 169.036 32.7751 169.01 32.6614 168.959C32.549 168.908 32.4555 168.831 32.3809 168.727C32.3075 168.622 32.2708 168.491 32.2708 168.332V165.619ZM35.0167 169.057C34.754 169.057 34.5273 168.999 34.3367 168.883C34.1473 168.766 34.0011 168.602 33.8981 168.393C33.7963 168.182 33.7454 167.937 33.7454 167.658C33.7454 167.378 33.7963 167.132 33.8981 166.919C34.0011 166.705 34.1443 166.538 34.3278 166.418C34.5125 166.298 34.7279 166.237 34.9741 166.237C35.1162 166.237 35.2564 166.261 35.3949 166.308C35.5334 166.356 35.6595 166.433 35.7731 166.539C35.8868 166.644 35.9773 166.784 36.0448 166.958C36.1123 167.132 36.146 167.346 36.146 167.601V167.778H34.0437V167.416H35.7199C35.7199 167.262 35.6891 167.125 35.6275 167.004C35.5672 166.884 35.4807 166.788 35.3683 166.718C35.257 166.649 35.1256 166.614 34.9741 166.614C34.8072 166.614 34.6628 166.655 34.5409 166.738C34.4201 166.82 34.3272 166.926 34.2621 167.058C34.197 167.189 34.1645 167.33 34.1645 167.48V167.722C34.1645 167.928 34.2 168.102 34.271 168.245C34.3432 168.387 34.4432 168.496 34.5711 168.57C34.6989 168.644 34.8475 168.68 35.0167 168.68C35.1268 168.68 35.2263 168.665 35.315 168.634C35.405 168.602 35.4825 168.555 35.5476 168.492C35.6127 168.428 35.663 168.349 35.6986 168.254L36.1034 168.368C36.0608 168.505 35.9892 168.626 35.8885 168.73C35.7879 168.833 35.6636 168.914 35.5157 168.972C35.3677 169.028 35.2014 169.057 35.0167 169.057ZM37.0227 166.273L37.6761 167.388L38.3295 166.273H38.8125L37.9318 167.636L38.8125 169H38.3295L37.6761 167.942L37.0227 169H36.5397L37.4062 167.636L36.5397 166.273H37.0227ZM40.5965 166.273V166.628H39.1831V166.273H40.5965ZM39.595 165.619H40.0141V168.219C40.0141 168.337 40.0312 168.426 40.0656 168.485C40.1011 168.543 40.1461 168.582 40.2005 168.602C40.2561 168.621 40.3147 168.631 40.3763 168.631C40.4225 168.631 40.4603 168.628 40.4899 168.624C40.5195 168.618 40.5432 168.613 40.5609 168.609L40.6462 168.986C40.6178 168.996 40.5781 169.007 40.5272 169.018C40.4763 169.03 40.4118 169.036 40.3337 169.036C40.2153 169.036 40.0993 169.01 39.9857 168.959C39.8732 168.908 39.7797 168.831 39.7051 168.727C39.6317 168.622 39.595 168.491 39.595 168.332V165.619Z" fill="white"/>
<path d="M22.9951 129.5H39.0049C43.1895 129.5 46.5 132.578 46.5 136.278V147.722C46.5 151.422 43.1895 154.5 39.0049 154.5H22.9951C18.8105 154.5 15.5 151.422 15.5 147.722V136.278C15.5 132.578 18.8105 129.5 22.9951 129.5Z" fill="#242424" fill-opacity="0.52" stroke="#C5C5C5"/>
<path d="M30.7237 136.408V133.099H27.5737" stroke="#C5C5C5" stroke-linecap="round" stroke-linejoin="round"/>
<path d="M26.1355 136.48H35.5854C35.5854 136.48 37.1604 136.48 37.1604 138.134V144.752C37.1604 144.752 37.1604 146.406 35.5854 146.406H26.1355C26.1355 146.406 24.5605 146.406 24.5605 144.752V138.134C24.5605 138.134 24.5605 136.48 26.1355 136.48Z" stroke="#C5C5C5" stroke-linecap="round" stroke-linejoin="round"/>
<path d="M22.8486 141.371H24.4236" stroke="#C5C5C5" stroke-linecap="round" stroke-linejoin="round"/>
<path d="M37.0234 141.371H38.5984" stroke="#C5C5C5" stroke-linecap="round" stroke-linejoin="round"/>
<path d="M33.0859 140.544V142.198" stroke="#C5C5C5" stroke-linecap="round" stroke-linejoin="round"/>
<path d="M28.3613 140.544V142.198" stroke="#C5C5C5" stroke-linecap="round" stroke-linejoin="round"/>
<g clip-path="url(#clip0_482_92)">
<path d="M37.0255 145.825H38.8133C38.8133 145.825 39.1113 145.825 39.1113 146.138V146.764C39.1113 146.764 39.1113 147.077 38.8133 147.077H37.0255C37.0255 147.077 36.7275 147.077 36.7275 146.764V146.138C36.7275 146.138 36.7275 145.825 37.0255 145.825Z" stroke="#66B5B7" stroke-width="0.8" stroke-linecap="round" stroke-linejoin="round"/>
<path d="M37.4427 149.143C37.5612 149.018 37.722 148.948 37.8896 148.948C38.0572 148.948 38.218 149.018 38.3366 149.143C38.4551 149.267 38.5217 149.436 38.5217 149.612C38.5217 149.788 38.4551 149.957 38.3366 150.082L36.7275 151.772L35.5356 152.085L35.8336 150.833L37.4427 149.143Z" stroke="#66B5B7" stroke-width="0.8" stroke-linecap="round" stroke-linejoin="round"/>
<path d="M39.1113 146.451H39.7072C39.8652 146.451 40.0168 146.517 40.1286 146.635C40.2403 146.752 40.3031 146.911 40.3031 147.077V151.459C40.3031 151.625 40.2403 151.784 40.1286 151.902C40.0168 152.019 39.8652 152.085 39.7072 152.085H38.0684" stroke="#66B5B7" stroke-width="0.8" stroke-linecap="round" stroke-linejoin="round"/>
<path d="M35.5356 149.425V147.077C35.5356 146.911 35.5984 146.752 35.7102 146.635C35.822 146.517 35.9735 146.451 36.1316 146.451H36.7275" stroke="#66B5B7" stroke-width="0.8" stroke-linecap="round" stroke-linejoin="round"/>
</g>
<path d="M0 12C0 5.37258 5.37258 0 12 0H50C56.6274 0 62 5.37258 62 12V44C62 50.6274 56.6274 56 50 56H12C5.37258 56 0 50.6274 0 44V12Z" fill="#3C3C3B"/>
<path d="M25 14.9896C25 15.7761 25.1549 16.555 25.4559 17.2817C25.7569 18.0084 26.1981 18.6687 26.7543 19.2249C27.3105 19.781 27.9708 20.2222 28.6975 20.5232C29.4242 20.8242 30.203 20.9792 30.9896 20.9792C31.7761 20.9792 32.555 20.8242 33.2817 20.5232C34.0084 20.2222 34.6687 19.781 35.2249 19.2249C35.781 18.6687 36.2222 18.0084 36.5232 17.2817C36.8242 16.555 36.9792 15.7761 36.9792 14.9896C36.9792 14.203 36.8242 13.4242 36.5232 12.6975C36.2222 11.9708 35.781 11.3105 35.2249 10.7543C34.6687 10.1981 34.0084 9.75693 33.2817 9.45593C32.555 9.15493 31.7761 9 30.9896 9C30.203 9 29.4242 9.15493 28.6975 9.45593C27.9708 9.75693 27.3105 10.1981 26.7543 10.7543C26.1981 11.3105 25.7569 11.9708 25.4559 12.6975C25.1549 13.4242 25 14.203 25 14.9896Z" stroke="white" stroke-linecap="round" stroke-linejoin="round"/>
<path d="M40.1667 31.5833C40.1667 29.0417 39.157 26.6041 37.3598 24.8069C35.5626 23.0097 33.125 22 30.5833 22C28.0417 22 25.6041 23.0097 23.8069 24.8069C22.0097 26.6041 21 29.0417 21 31.5833" stroke="white" stroke-linecap="round" stroke-linejoin="round"/>
<path d="M17.4253 37.3636H17.8657V39.7713C17.8657 40.0199 17.8071 40.2418 17.6899 40.4371C17.5739 40.6313 17.4099 40.7846 17.1981 40.897C16.9862 41.0083 16.7376 41.0639 16.4523 41.0639C16.1671 41.0639 15.9185 41.0083 15.7066 40.897C15.4947 40.7846 15.3302 40.6313 15.213 40.4371C15.097 40.2418 15.039 40.0199 15.039 39.7713V37.3636H15.4793V39.7358C15.4793 39.9134 15.5184 40.0714 15.5965 40.2099C15.6746 40.3472 15.7859 40.4555 15.9303 40.5348C16.0759 40.6129 16.2499 40.652 16.4523 40.652C16.6547 40.652 16.8287 40.6129 16.9743 40.5348C17.1199 40.4555 17.2312 40.3472 17.3081 40.2099C17.3863 40.0714 17.4253 39.9134 17.4253 39.7358V37.3636ZM20.62 38.8835L20.2436 38.9901C20.2199 38.9273 20.185 38.8664 20.1388 38.8072C20.0939 38.7468 20.0323 38.6971 19.9542 38.658C19.8761 38.619 19.776 38.5994 19.6541 38.5994C19.4872 38.5994 19.3481 38.6379 19.2369 38.7148C19.1268 38.7906 19.0717 38.8871 19.0717 39.0043C19.0717 39.1084 19.1096 39.1907 19.1854 39.2511C19.2611 39.3114 19.3795 39.3617 19.5405 39.402L19.9453 39.5014C20.1892 39.5606 20.3709 39.6512 20.4904 39.7731C20.61 39.8938 20.6697 40.0495 20.6697 40.2401C20.6697 40.3963 20.6248 40.536 20.5348 40.6591C20.446 40.7822 20.3217 40.8793 20.1619 40.9503C20.0021 41.0213 19.8163 41.0568 19.6044 41.0568C19.3262 41.0568 19.096 40.9964 18.9137 40.8757C18.7314 40.755 18.616 40.5786 18.5675 40.3466L18.9652 40.2472C19.0031 40.3939 19.0747 40.504 19.18 40.5774C19.2866 40.6508 19.4257 40.6875 19.5973 40.6875C19.7926 40.6875 19.9477 40.6461 20.0625 40.5632C20.1785 40.4792 20.2365 40.3786 20.2365 40.2614C20.2365 40.1667 20.2034 40.0874 20.1371 40.0234C20.0708 39.9583 19.969 39.9098 19.8317 39.8778L19.3771 39.7713C19.1274 39.7121 18.9439 39.6204 18.8267 39.4961C18.7107 39.3706 18.6527 39.2138 18.6527 39.0256C18.6527 38.8717 18.6959 38.7356 18.7823 38.6172C18.8699 38.4988 18.9889 38.4059 19.1392 38.3384C19.2907 38.271 19.4624 38.2372 19.6541 38.2372C19.924 38.2372 20.1359 38.2964 20.2898 38.4148C20.4448 38.5331 20.5549 38.6894 20.62 38.8835ZM22.444 41.0568C22.1812 41.0568 21.9545 40.9988 21.7639 40.8828C21.5745 40.7656 21.4284 40.6023 21.3254 40.3928C21.2236 40.1821 21.1727 39.937 21.1727 39.6577C21.1727 39.3783 21.2236 39.1321 21.3254 38.919C21.4284 38.7048 21.5716 38.5379 21.7551 38.4183C21.9397 38.2976 22.1552 38.2372 22.4014 38.2372C22.5434 38.2372 22.6837 38.2609 22.8222 38.3082C22.9607 38.3556 23.0867 38.4325 23.2004 38.5391C23.314 38.6444 23.4046 38.7841 23.472 38.9581C23.5395 39.1321 23.5732 39.3464 23.5732 39.6009V39.7784H21.471V39.4162H23.1471C23.1471 39.2623 23.1163 39.125 23.0548 39.0043C22.9944 38.8835 22.908 38.7882 22.7955 38.7184C22.6843 38.6486 22.5529 38.6136 22.4014 38.6136C22.2345 38.6136 22.0901 38.6551 21.9681 38.7379C21.8474 38.8196 21.7545 38.9261 21.6894 39.0575C21.6243 39.1889 21.5917 39.3298 21.5917 39.4801V39.7216C21.5917 39.9276 21.6272 40.1022 21.6982 40.2454C21.7704 40.3874 21.8705 40.4957 21.9983 40.5703C22.1262 40.6437 22.2747 40.6804 22.444 40.6804C22.5541 40.6804 22.6535 40.665 22.7423 40.6342C22.8322 40.6023 22.9098 40.5549 22.9749 40.4922C23.04 40.4283 23.0903 40.349 23.1258 40.2543L23.5306 40.3679C23.488 40.5052 23.4164 40.6259 23.3158 40.7301C23.2152 40.8331 23.0909 40.9136 22.9429 40.9716C22.795 41.0284 22.6286 41.0568 22.444 41.0568ZM24.2107 41V38.2727H24.6155V38.6847H24.6439C24.6936 38.5497 24.7836 38.4402 24.9138 38.3562C25.044 38.2721 25.1908 38.2301 25.3541 38.2301C25.3849 38.2301 25.4234 38.2307 25.4695 38.2319C25.5157 38.2331 25.5506 38.2348 25.5743 38.2372V38.6634C25.5601 38.6598 25.5276 38.6545 25.4767 38.6474C25.4269 38.6391 25.3743 38.6349 25.3186 38.6349C25.1861 38.6349 25.0677 38.6628 24.9635 38.7184C24.8605 38.7728 24.7789 38.8486 24.7185 38.9457C24.6593 39.0415 24.6297 39.151 24.6297 39.2741V41H24.2107ZM27.4773 42.0227V38.2727H27.8821V38.706H27.9318C27.9626 38.6586 28.0052 38.5982 28.0597 38.5249C28.1153 38.4503 28.1946 38.384 28.2976 38.326C28.4018 38.2668 28.5426 38.2372 28.7202 38.2372C28.9498 38.2372 29.1522 38.2946 29.3274 38.4094C29.5026 38.5243 29.6393 38.687 29.7376 38.8977C29.8358 39.1084 29.8849 39.357 29.8849 39.6435C29.8849 39.9323 29.8358 40.1826 29.7376 40.3945C29.6393 40.6052 29.5032 40.7686 29.3292 40.8846C29.1552 40.9994 28.9545 41.0568 28.7273 41.0568C28.5521 41.0568 28.4118 41.0278 28.3065 40.9698C28.2011 40.9106 28.12 40.8437 28.0632 40.7692C28.0064 40.6934 27.9626 40.6307 27.9318 40.581H27.8963V42.0227H27.4773ZM27.8892 39.6364C27.8892 39.8423 27.9194 40.024 27.9798 40.1815C28.0401 40.3377 28.1283 40.4602 28.2443 40.549C28.3603 40.6366 28.5024 40.6804 28.6705 40.6804C28.8456 40.6804 28.9918 40.6342 29.109 40.5419C29.2274 40.4484 29.3162 40.3229 29.3754 40.1655C29.4357 40.0069 29.4659 39.8305 29.4659 39.6364C29.4659 39.4446 29.4363 39.2718 29.3771 39.1179C29.3191 38.9628 29.2309 38.8403 29.1126 38.7504C28.9954 38.6592 28.848 38.6136 28.6705 38.6136C28.5 38.6136 28.3568 38.6568 28.2408 38.7433C28.1248 38.8285 28.0372 38.948 27.978 39.1019C27.9188 39.2546 27.8892 39.4328 27.8892 39.6364ZM30.5241 41V38.2727H30.929V38.6847H30.9574C31.0071 38.5497 31.0971 38.4402 31.2273 38.3562C31.3575 38.2721 31.5043 38.2301 31.6676 38.2301C31.6984 38.2301 31.7369 38.2307 31.783 38.2319C31.8292 38.2331 31.8641 38.2348 31.8878 38.2372V38.6634C31.8736 38.6598 31.841 38.6545 31.7901 38.6474C31.7404 38.6391 31.6877 38.6349 31.6321 38.6349C31.4995 38.6349 31.3812 38.6628 31.277 38.7184C31.174 38.7728 31.0923 38.8486 31.032 38.9457C30.9728 39.0415 30.9432 39.151 30.9432 39.2741V41H30.5241ZM33.4094 41.0568C33.1632 41.0568 32.9472 40.9982 32.7614 40.881C32.5767 40.7638 32.4323 40.5999 32.3281 40.3892C32.2251 40.1785 32.1737 39.9323 32.1737 39.6506C32.1737 39.3665 32.2251 39.1185 32.3281 38.9066C32.4323 38.6947 32.5767 38.5302 32.7614 38.413C32.9472 38.2958 33.1632 38.2372 33.4094 38.2372C33.6557 38.2372 33.8711 38.2958 34.0558 38.413C34.2416 38.5302 34.386 38.6947 34.489 38.9066C34.5932 39.1185 34.6452 39.3665 34.6452 39.6506C34.6452 39.9323 34.5932 40.1785 34.489 40.3892C34.386 40.5999 34.2416 40.7638 34.0558 40.881C33.8711 40.9982 33.6557 41.0568 33.4094 41.0568ZM33.4094 40.6804C33.5965 40.6804 33.7504 40.6325 33.8711 40.5366C33.9918 40.4407 34.0812 40.3146 34.1392 40.1584C34.1972 40.0021 34.2262 39.8329 34.2262 39.6506C34.2262 39.4683 34.1972 39.2984 34.1392 39.141C34.0812 38.9835 33.9918 38.8563 33.8711 38.7592C33.7504 38.6622 33.5965 38.6136 33.4094 38.6136C33.2224 38.6136 33.0685 38.6622 32.9478 38.7592C32.8271 38.8563 32.7377 38.9835 32.6797 39.141C32.6217 39.2984 32.5927 39.4683 32.5927 39.6506C32.5927 39.8329 32.6217 40.0021 32.6797 40.1584C32.7377 40.3146 32.8271 40.4407 32.9478 40.5366C33.0685 40.6325 33.2224 40.6804 33.4094 40.6804ZM37.4173 38.2727L36.4088 41H35.9827L34.9742 38.2727H35.4287L36.1816 40.446H36.21L36.9628 38.2727H37.4173ZM37.9704 41V38.2727H38.3895V41H37.9704ZM38.1835 37.8182C38.1018 37.8182 38.0314 37.7904 37.9722 37.7347C37.9142 37.6791 37.8852 37.6122 37.8852 37.5341C37.8852 37.456 37.9142 37.3891 37.9722 37.3335C38.0314 37.2778 38.1018 37.25 38.1835 37.25C38.2652 37.25 38.335 37.2778 38.393 37.3335C38.4522 37.3891 38.4818 37.456 38.4818 37.5341C38.4818 37.6122 38.4522 37.6791 38.393 37.7347C38.335 37.7904 38.2652 37.8182 38.1835 37.8182ZM40.1868 41.0568C39.9595 41.0568 39.7589 40.9994 39.5849 40.8846C39.4109 40.7686 39.2747 40.6052 39.1765 40.3945C39.0782 40.1826 39.0291 39.9323 39.0291 39.6435C39.0291 39.357 39.0782 39.1084 39.1765 38.8977C39.2747 38.687 39.4115 38.5243 39.5866 38.4094C39.7618 38.2946 39.9643 38.2372 40.1939 38.2372C40.3714 38.2372 40.5117 38.2668 40.6147 38.326C40.7189 38.384 40.7982 38.4503 40.8526 38.5249C40.9083 38.5982 40.9515 38.6586 40.9822 38.706H41.0178V37.3636H41.4368V41H41.032V40.581H40.9822C40.9515 40.6307 40.9077 40.6934 40.8509 40.7692C40.794 40.8437 40.7129 40.9106 40.6076 40.9698C40.5022 41.0278 40.362 41.0568 40.1868 41.0568ZM40.2436 40.6804C40.4117 40.6804 40.5537 40.6366 40.6697 40.549C40.7857 40.4602 40.8739 40.3377 40.9343 40.1815C40.9947 40.024 41.0249 39.8423 41.0249 39.6364C41.0249 39.4328 40.9953 39.2546 40.9361 39.1019C40.8769 38.948 40.7893 38.8285 40.6733 38.7433C40.5573 38.6568 40.4141 38.6136 40.2436 38.6136C40.0661 38.6136 39.9181 38.6592 39.7997 38.7504C39.6825 38.8403 39.5943 38.9628 39.5352 39.1179C39.4772 39.2718 39.4482 39.4446 39.4482 39.6364C39.4482 39.8305 39.4777 40.0069 39.5369 40.1655C39.5973 40.3229 39.6861 40.4484 39.8033 40.5419C39.9216 40.6342 40.0684 40.6804 40.2436 40.6804ZM43.4059 41.0568C43.1431 41.0568 42.9164 40.9988 42.7259 40.8828C42.5365 40.7656 42.3903 40.6023 42.2873 40.3928C42.1855 40.1821 42.1346 39.937 42.1346 39.6577C42.1346 39.3783 42.1855 39.1321 42.2873 38.919C42.3903 38.7048 42.5335 38.5379 42.717 38.4183C42.9016 38.2976 43.1171 38.2372 43.3633 38.2372C43.5053 38.2372 43.6456 38.2609 43.7841 38.3082C43.9226 38.3556 44.0487 38.4325 44.1623 38.5391C44.2759 38.6444 44.3665 38.7841 44.4339 38.9581C44.5014 39.1321 44.5352 39.3464 44.5352 39.6009V39.7784H42.4329V39.4162H44.109C44.109 39.2623 44.0782 39.125 44.0167 39.0043C43.9563 38.8835 43.8699 38.7882 43.7575 38.7184C43.6462 38.6486 43.5148 38.6136 43.3633 38.6136C43.1964 38.6136 43.052 38.6551 42.93 38.7379C42.8093 38.8196 42.7164 38.9261 42.6513 39.0575C42.5862 39.1889 42.5536 39.3298 42.5536 39.4801V39.7216C42.5536 39.9276 42.5891 40.1022 42.6602 40.2454C42.7324 40.3874 42.8324 40.4957 42.9602 40.5703C43.0881 40.6437 43.2366 40.6804 43.4059 40.6804C43.516 40.6804 43.6154 40.665 43.7042 40.6342C43.7942 40.6023 43.8717 40.5549 43.9368 40.4922C44.0019 40.4283 44.0522 40.349 44.0877 40.2543L44.4925 40.3679C44.4499 40.5052 44.3783 40.6259 44.2777 40.7301C44.1771 40.8331 44.0528 40.9136 43.9048 40.9716C43.7569 41.0284 43.5906 41.0568 43.4059 41.0568ZM47.1044 38.8835L46.728 38.9901C46.7043 38.9273 46.6694 38.8664 46.6232 38.8072C46.5782 38.7468 46.5167 38.6971 46.4386 38.658C46.3604 38.619 46.2604 38.5994 46.1385 38.5994C45.9716 38.5994 45.8325 38.6379 45.7212 38.7148C45.6112 38.7906 45.5561 38.8871 45.5561 39.0043C45.5561 39.1084 45.594 39.1907 45.6697 39.2511C45.7455 39.3114 45.8639 39.3617 46.0249 39.402L46.4297 39.5014C46.6735 39.5606 46.8552 39.6512 46.9748 39.7731C47.0943 39.8938 47.1541 40.0495 47.1541 40.2401C47.1541 40.3963 47.1091 40.536 47.0192 40.6591C46.9304 40.7822 46.8061 40.8793 46.6463 40.9503C46.4865 41.0213 46.3007 41.0568 46.0888 41.0568C45.8106 41.0568 45.5804 40.9964 45.3981 40.8757C45.2158 40.755 45.1004 40.5786 45.0518 40.3466L45.4496 40.2472C45.4875 40.3939 45.5591 40.504 45.6644 40.5774C45.771 40.6508 45.91 40.6875 46.0817 40.6875C46.277 40.6875 46.4321 40.6461 46.5469 40.5632C46.6629 40.4792 46.7209 40.3786 46.7209 40.2614C46.7209 40.1667 46.6877 40.0874 46.6214 40.0234C46.5552 39.9583 46.4534 39.9098 46.3161 39.8778L45.8615 39.7713C45.6117 39.7121 45.4283 39.6204 45.3111 39.4961C45.1951 39.3706 45.1371 39.2138 45.1371 39.0256C45.1371 38.8717 45.1803 38.7356 45.2667 38.6172C45.3543 38.4988 45.4732 38.4059 45.6236 38.3384C45.7751 38.271 45.9467 38.2372 46.1385 38.2372C46.4084 38.2372 46.6203 38.2964 46.7741 38.4148C46.9292 38.5331 47.0393 38.6894 47.1044 38.8835ZM4.92667 47V43.3636H6.15536C6.43945 43.3636 6.67264 43.4122 6.85494 43.5092C7.03723 43.6051 7.17217 43.7371 7.25977 43.9052C7.34736 44.0733 7.39116 44.2644 7.39116 44.4787C7.39116 44.6929 7.34736 44.8829 7.25977 45.0487C7.17217 45.2144 7.03782 45.3446 6.85671 45.4393C6.6756 45.5328 6.44419 45.5795 6.16246 45.5795H5.16815V45.1818H6.14826C6.34239 45.1818 6.49864 45.1534 6.61701 45.0966C6.73656 45.0398 6.82298 44.9593 6.87624 44.8551C6.93069 44.7498 6.95792 44.6243 6.95792 44.4787C6.95792 44.3331 6.93069 44.2058 6.87624 44.0969C6.82179 43.988 6.73479 43.904 6.61523 43.8448C6.49568 43.7844 6.33765 43.7543 6.14116 43.7543H5.36701V47H4.92667ZM6.63832 45.3665L7.5332 47H7.02184L6.14116 45.3665H6.63832ZM9.18226 47.0568C8.91948 47.0568 8.6928 46.9988 8.50222 46.8828C8.31283 46.7656 8.16664 46.6023 8.06365 46.3928C7.96185 46.1821 7.91096 45.937 7.91096 45.6577C7.91096 45.3783 7.96185 45.1321 8.06365 44.919C8.16664 44.7048 8.30987 44.5379 8.49334 44.4183C8.678 44.2976 8.89344 44.2372 9.13965 44.2372C9.28169 44.2372 9.42196 44.2609 9.56046 44.3082C9.69895 44.3556 9.82502 44.4325 9.93865 44.5391C10.0523 44.6444 10.1428 44.7841 10.2103 44.9581C10.2778 45.1321 10.3115 45.3464 10.3115 45.6009V45.7784H8.20925V45.4162H9.88539C9.88539 45.2623 9.85461 45.125 9.79306 45.0043C9.73269 44.8835 9.64628 44.7882 9.53382 44.7184C9.42256 44.6486 9.29116 44.6136 9.13965 44.6136C8.97275 44.6136 8.82833 44.6551 8.70641 44.7379C8.58567 44.8196 8.49275 44.9261 8.42765 45.0575C8.36254 45.1889 8.32999 45.3298 8.32999 45.4801V45.7216C8.32999 45.9276 8.3655 46.1022 8.43652 46.2454C8.50873 46.3874 8.60875 46.4957 8.73659 46.5703C8.86444 46.6437 9.01299 46.6804 9.18226 46.6804C9.29235 46.6804 9.39178 46.665 9.48056 46.6342C9.57052 46.6023 9.64805 46.5549 9.71316 46.4922C9.77826 46.4283 9.82857 46.349 9.86408 46.2543L10.2689 46.3679C10.2263 46.5052 10.1547 46.6259 10.0541 46.7301C9.95345 46.8331 9.82916 46.9136 9.6812 46.9716C9.53323 47.0284 9.36692 47.0568 9.18226 47.0568ZM12.8097 48.0227V46.581H12.7742C12.7435 46.6307 12.6997 46.6934 12.6428 46.7692C12.586 46.8437 12.5049 46.9106 12.3996 46.9698C12.2942 47.0278 12.154 47.0568 11.9788 47.0568C11.7515 47.0568 11.5509 46.9994 11.3769 46.8846C11.2029 46.7686 11.0667 46.6052 10.9685 46.3945C10.8702 46.1826 10.8211 45.9323 10.8211 45.6435C10.8211 45.357 10.8702 45.1084 10.9685 44.8977C11.0667 44.687 11.2035 44.5243 11.3786 44.4094C11.5538 44.2946 11.7562 44.2372 11.9859 44.2372C12.1634 44.2372 12.3037 44.2668 12.4067 44.326C12.5109 44.384 12.5902 44.4503 12.6446 44.5249C12.7003 44.5982 12.7435 44.6586 12.7742 44.706H12.824V44.2727H13.2288V48.0227H12.8097ZM12.0356 46.6804C12.2037 46.6804 12.3457 46.6366 12.4617 46.549C12.5777 46.4602 12.6659 46.3377 12.7263 46.1815C12.7867 46.024 12.8169 45.8423 12.8169 45.6364C12.8169 45.4328 12.7873 45.2546 12.7281 45.1019C12.6689 44.948 12.5813 44.8285 12.4653 44.7433C12.3493 44.6568 12.2061 44.6136 12.0356 44.6136C11.858 44.6136 11.7101 44.6592 11.5917 44.7504C11.4745 44.8403 11.3863 44.9628 11.3271 45.1179C11.2691 45.2718 11.2401 45.4446 11.2401 45.6364C11.2401 45.8305 11.2697 46.0069 11.3289 46.1655C11.3893 46.3229 11.4781 46.4484 11.5953 46.5419C11.7136 46.6342 11.8604 46.6804 12.0356 46.6804ZM15.7146 45.8849V44.2727H16.1336V47H15.7146V46.5384H15.6862C15.6222 46.6768 15.5228 46.7946 15.3879 46.8917C15.2529 46.9876 15.0825 47.0355 14.8765 47.0355C14.7061 47.0355 14.5545 46.9982 14.422 46.9237C14.2894 46.8479 14.1852 46.7343 14.1095 46.5827C14.0337 46.43 13.9958 46.2377 13.9958 46.0057V44.2727H14.4149V45.9773C14.4149 46.1761 14.4705 46.3348 14.5818 46.4531C14.6942 46.5715 14.8374 46.6307 15.0115 46.6307C15.1156 46.6307 15.2216 46.604 15.3293 46.5508C15.4382 46.4975 15.5293 46.4158 15.6027 46.3058C15.6773 46.1957 15.7146 46.0554 15.7146 45.8849ZM16.9011 47V44.2727H17.3201V47H16.9011ZM17.1142 43.8182C17.0325 43.8182 16.9621 43.7904 16.9029 43.7347C16.8449 43.6791 16.8159 43.6122 16.8159 43.5341C16.8159 43.456 16.8449 43.3891 16.9029 43.3335C16.9621 43.2778 17.0325 43.25 17.1142 43.25C17.1958 43.25 17.2657 43.2778 17.3237 43.3335C17.3829 43.3891 17.4125 43.456 17.4125 43.5341C17.4125 43.6122 17.3829 43.6791 17.3237 43.7347C17.2657 43.7904 17.1958 43.8182 17.1142 43.8182ZM18.0876 47V44.2727H18.4925V44.6847H18.5209C18.5706 44.5497 18.6605 44.4402 18.7907 44.3562C18.921 44.2721 19.0677 44.2301 19.2311 44.2301C19.2619 44.2301 19.3003 44.2307 19.3465 44.2319C19.3927 44.2331 19.4276 44.2348 19.4513 44.2372V44.6634C19.4371 44.6598 19.4045 44.6545 19.3536 44.6474C19.3039 44.6391 19.2512 44.6349 19.1956 44.6349C19.063 44.6349 18.9446 44.6628 18.8405 44.7184C18.7375 44.7728 18.6558 44.8486 18.5954 44.9457C18.5363 45.0415 18.5067 45.151 18.5067 45.2741V47H18.0876ZM21.0084 47.0568C20.7456 47.0568 20.519 46.9988 20.3284 46.8828C20.139 46.7656 19.9928 46.6023 19.8898 46.3928C19.788 46.1821 19.7371 45.937 19.7371 45.6577C19.7371 45.3783 19.788 45.1321 19.8898 44.919C19.9928 44.7048 20.136 44.5379 20.3195 44.4183C20.5042 44.2976 20.7196 44.2372 20.9658 44.2372C21.1079 44.2372 21.2481 44.2609 21.3866 44.3082C21.5251 44.3556 21.6512 44.4325 21.7648 44.5391C21.8785 44.6444 21.969 44.7841 22.0365 44.9581C22.104 45.1321 22.1377 45.3464 22.1377 45.6009V45.7784H20.0354V45.4162H21.7116C21.7116 45.2623 21.6808 45.125 21.6192 45.0043C21.5589 44.8835 21.4724 44.7882 21.36 44.7184C21.2487 44.6486 21.1173 44.6136 20.9658 44.6136C20.7989 44.6136 20.6545 44.6551 20.5326 44.7379C20.4118 44.8196 20.3189 44.9261 20.2538 45.0575C20.1887 45.1889 20.1562 45.3298 20.1562 45.4801V45.7216C20.1562 45.9276 20.1917 46.1022 20.2627 46.2454C20.3349 46.3874 20.4349 46.4957 20.5628 46.5703C20.6906 46.6437 20.8392 46.6804 21.0084 46.6804C21.1185 46.6804 21.218 46.665 21.3067 46.6342C21.3967 46.6023 21.4742 46.5549 21.5393 46.4922C21.6044 46.4283 21.6547 46.349 21.6903 46.2543L22.0951 46.3679C22.0525 46.5052 21.9809 46.6259 21.8802 46.7301C21.7796 46.8331 21.6553 46.9136 21.5074 46.9716C21.3594 47.0284 21.1931 47.0568 21.0084 47.0568ZM22.7751 47V44.2727H23.18V44.6989H23.2155C23.2723 44.5533 23.364 44.4402 23.4907 44.3597C23.6173 44.2781 23.7694 44.2372 23.947 44.2372C24.1269 44.2372 24.2767 44.2781 24.3962 44.3597C24.517 44.4402 24.6111 44.5533 24.6785 44.6989H24.7069C24.7768 44.558 24.8815 44.4461 25.0212 44.3633C25.1609 44.2792 25.3284 44.2372 25.5237 44.2372C25.7675 44.2372 25.967 44.3136 26.1221 44.4663C26.2771 44.6178 26.3547 44.8539 26.3547 45.1747V47H25.9356V45.1747C25.9356 44.9735 25.8806 44.8297 25.7705 44.7433C25.6604 44.6568 25.5308 44.6136 25.3817 44.6136C25.1899 44.6136 25.0413 44.6716 24.936 44.7876C24.8306 44.9025 24.778 45.0481 24.778 45.2244V47H24.3518V45.1321C24.3518 44.977 24.3015 44.8522 24.2009 44.7575C24.1003 44.6616 23.9707 44.6136 23.8121 44.6136C23.7032 44.6136 23.6014 44.6426 23.5067 44.7006C23.4131 44.7586 23.3374 44.8391 23.2794 44.9421C23.2226 45.0439 23.1942 45.1617 23.1942 45.2955V47H22.7751ZM28.2643 47.0568C28.0015 47.0568 27.7748 46.9988 27.5843 46.8828C27.3949 46.7656 27.2487 46.6023 27.1457 46.3928C27.0439 46.1821 26.993 45.937 26.993 45.6577C26.993 45.3783 27.0439 45.1321 27.1457 44.919C27.2487 44.7048 27.3919 44.5379 27.5754 44.4183C27.76 44.2976 27.9755 44.2372 28.2217 44.2372C28.3637 44.2372 28.504 44.2609 28.6425 44.3082C28.781 44.3556 28.907 44.4325 29.0207 44.5391C29.1343 44.6444 29.2249 44.7841 29.2923 44.9581C29.3598 45.1321 29.3936 45.3464 29.3936 45.6009V45.7784H27.2913V45.4162H28.9674C28.9674 45.2623 28.9366 45.125 28.8751 45.0043C28.8147 44.8835 28.7283 44.7882 28.6159 44.7184C28.5046 44.6486 28.3732 44.6136 28.2217 44.6136C28.0548 44.6136 27.9104 44.6551 27.7884 44.7379C27.6677 44.8196 27.5748 44.9261 27.5097 45.0575C27.4446 45.1889 27.412 45.3298 27.412 45.4801V45.7216C27.412 45.9276 27.4475 46.1022 27.5186 46.2454C27.5908 46.3874 27.6908 46.4957 27.8186 46.5703C27.9465 46.6437 28.095 46.6804 28.2643 46.6804C28.3744 46.6804 28.4738 46.665 28.5626 46.6342C28.6526 46.6023 28.7301 46.5549 28.7952 46.4922C28.8603 46.4283 28.9106 46.349 28.9461 46.2543L29.3509 46.3679C29.3083 46.5052 29.2367 46.6259 29.1361 46.7301C29.0355 46.8331 28.9112 46.9136 28.7632 46.9716C28.6153 47.0284 28.449 47.0568 28.2643 47.0568ZM30.45 45.3594V47H30.031V44.2727H30.4358V44.6989H30.4713C30.5352 44.5604 30.6323 44.4491 30.7625 44.3651C30.8927 44.2798 31.0608 44.2372 31.2668 44.2372C31.4514 44.2372 31.613 44.2751 31.7515 44.3509C31.89 44.4254 31.9977 44.5391 32.0747 44.6918C32.1516 44.8433 32.1901 45.035 32.1901 45.267V47H31.771V45.2955C31.771 45.0812 31.7154 44.9143 31.6041 44.7947C31.4929 44.674 31.3402 44.6136 31.146 44.6136C31.0123 44.6136 30.8927 44.6426 30.7874 44.7006C30.6832 44.7586 30.6009 44.8433 30.5406 44.9545C30.4802 45.0658 30.45 45.2008 30.45 45.3594ZM34.1419 44.2727V44.6278H32.7285V44.2727H34.1419ZM33.1404 43.6193H33.5595V46.2188C33.5595 46.3371 33.5766 46.4259 33.611 46.4851C33.6465 46.5431 33.6915 46.5821 33.7459 46.6023C33.8016 46.6212 33.8601 46.6307 33.9217 46.6307C33.9679 46.6307 34.0057 46.6283 34.0353 46.6236C34.0649 46.6177 34.0886 46.6129 34.1064 46.6094L34.1916 46.9858C34.1632 46.9964 34.1235 47.0071 34.0726 47.0178C34.0217 47.0296 33.9572 47.0355 33.8791 47.0355C33.7607 47.0355 33.6447 47.0101 33.5311 46.9592C33.4186 46.9083 33.3251 46.8307 33.2505 46.7266C33.1771 46.6224 33.1404 46.491 33.1404 46.3324V43.6193ZM36.6552 44.8835L36.2788 44.9901C36.2551 44.9273 36.2202 44.8664 36.174 44.8072C36.129 44.7468 36.0675 44.6971 35.9893 44.658C35.9112 44.619 35.8112 44.5994 35.6893 44.5994C35.5224 44.5994 35.3833 44.6379 35.272 44.7148C35.1619 44.7906 35.1069 44.8871 35.1069 45.0043C35.1069 45.1084 35.1448 45.1907 35.2205 45.2511C35.2963 45.3114 35.4147 45.3617 35.5756 45.402L35.9805 45.5014C36.2243 45.5606 36.406 45.6512 36.5256 45.7731C36.6451 45.8938 36.7049 46.0495 36.7049 46.2401C36.7049 46.3963 36.6599 46.536 36.57 46.6591C36.4812 46.7822 36.3569 46.8793 36.1971 46.9503C36.0373 47.0213 35.8514 47.0568 35.6396 47.0568C35.3614 47.0568 35.1312 46.9964 34.9489 46.8757C34.7666 46.755 34.6512 46.5786 34.6026 46.3466L35.0004 46.2472C35.0382 46.3939 35.1098 46.504 35.2152 46.5774C35.3217 46.6508 35.4608 46.6875 35.6325 46.6875C35.8278 46.6875 35.9828 46.6461 36.0977 46.5632C36.2137 46.4792 36.2717 46.3786 36.2717 46.2614C36.2717 46.1667 36.2385 46.0874 36.1722 46.0234C36.1059 45.9583 36.0041 45.9098 35.8668 45.8778L35.4123 45.7713C35.1625 45.7121 34.979 45.6204 34.8619 45.4961C34.7459 45.3706 34.6879 45.2138 34.6879 45.0256C34.6879 44.8717 34.7311 44.7356 34.8175 44.6172C34.9051 44.4988 35.024 44.4059 35.1744 44.3384C35.3259 44.271 35.4975 44.2372 35.6893 44.2372C35.9592 44.2372 36.171 44.2964 36.3249 44.4148C36.48 44.5331 36.5901 44.6894 36.6552 44.8835ZM39.7718 47.0497C39.5326 47.0497 39.3267 47.0059 39.1539 46.9183C38.981 46.8307 38.8479 46.7106 38.7544 46.5579C38.6608 46.4052 38.6141 46.2306 38.6141 46.0341C38.6141 45.8826 38.646 45.7482 38.71 45.631C38.7751 45.5127 38.8644 45.4032 38.9781 45.3026C39.0929 45.2008 39.2249 45.099 39.374 44.9972L39.8996 44.6065C40.0026 44.5391 40.0848 44.4669 40.1464 44.3899C40.2091 44.313 40.2405 44.2124 40.2405 44.0881C40.2405 43.9957 40.1997 43.9064 40.118 43.82C40.0375 43.7335 39.9316 43.6903 39.8002 43.6903C39.7078 43.6903 39.6262 43.714 39.5551 43.7614C39.4853 43.8075 39.4302 43.8667 39.39 43.9389C39.3509 44.0099 39.3314 44.0833 39.3314 44.1591C39.3314 44.2443 39.3545 44.3307 39.4007 44.4183C39.448 44.5047 39.5078 44.5935 39.58 44.6847C39.6534 44.7746 39.7291 44.867 39.8073 44.9616L41.4763 47H40.972L39.5942 45.3381C39.4664 45.1842 39.3503 45.0445 39.2462 44.919C39.142 44.7936 39.0592 44.6699 38.9976 44.5479C38.936 44.426 38.9053 44.294 38.9053 44.152C38.9053 43.9886 38.9414 43.8454 39.0136 43.7223C39.087 43.598 39.1894 43.5015 39.3208 43.4329C39.4533 43.363 39.6084 43.3281 39.786 43.3281C39.9682 43.3281 40.1251 43.3636 40.2565 43.4347C40.3879 43.5045 40.4891 43.5974 40.5601 43.7134C40.6311 43.8282 40.6666 43.9531 40.6666 44.0881C40.6666 44.2621 40.6234 44.413 40.537 44.5408C40.4506 44.6687 40.3328 44.7876 40.1837 44.8977L39.4593 45.4375C39.2959 45.5582 39.1852 45.6754 39.1272 45.7891C39.0692 45.9027 39.0402 45.9844 39.0402 46.0341C39.0402 46.1477 39.0698 46.2537 39.129 46.3519C39.1882 46.4502 39.2716 46.5295 39.3794 46.5898C39.4871 46.6502 39.6131 46.6804 39.7575 46.6804C39.8949 46.6804 40.0286 46.6514 40.1588 46.5934C40.289 46.5342 40.4068 46.449 40.5122 46.3377C40.6187 46.2264 40.7027 46.0927 40.7643 45.9364C40.827 45.7802 40.8584 45.6044 40.8584 45.4091H41.2632C41.2632 45.6506 41.2354 45.8477 41.1798 46.0004C41.1241 46.1531 41.0614 46.2726 40.9916 46.359C40.9217 46.4454 40.8655 46.5099 40.8229 46.5526C40.8087 46.5703 40.7957 46.5881 40.7838 46.6058C40.772 46.6236 40.759 46.6413 40.7448 46.6591C40.6276 46.7905 40.4796 46.8887 40.3009 46.9538C40.1221 47.0178 39.9458 47.0497 39.7718 47.0497ZM45.3919 44.2727C45.3706 44.0928 45.2842 43.9531 45.1326 43.8537C44.9811 43.7543 44.7953 43.7045 44.5751 43.7045C44.4141 43.7045 44.2733 43.7306 44.1525 43.7827C44.033 43.8348 43.9395 43.9064 43.872 43.9975C43.8057 44.0887 43.7725 44.1922 43.7725 44.3082C43.7725 44.4053 43.7956 44.4888 43.8418 44.5586C43.8891 44.6272 43.9495 44.6847 44.0229 44.7308C44.0963 44.7758 44.1732 44.8131 44.2537 44.8427C44.3342 44.8711 44.4082 44.8942 44.4757 44.9119L44.845 45.0114C44.9397 45.0362 45.045 45.0705 45.161 45.1143C45.2782 45.1581 45.3901 45.2179 45.4966 45.2937C45.6043 45.3683 45.6931 45.4641 45.763 45.5813C45.8328 45.6985 45.8677 45.8423 45.8677 46.0128C45.8677 46.2093 45.8162 46.3868 45.7132 46.5455C45.6114 46.7041 45.4623 46.8301 45.2658 46.9237C45.0705 47.0172 44.8332 47.0639 44.5538 47.0639C44.2934 47.0639 44.0679 47.0219 43.8773 46.9379C43.6879 46.8538 43.5388 46.7366 43.4299 46.5863C43.3221 46.436 43.2612 46.2614 43.247 46.0625H43.7015C43.7134 46.1998 43.7595 46.3134 43.84 46.4034C43.9217 46.4922 44.0247 46.5585 44.149 46.6023C44.2744 46.6449 44.4094 46.6662 44.5538 46.6662C44.7219 46.6662 44.8728 46.639 45.0066 46.5845C45.1403 46.5289 45.2463 46.4519 45.3244 46.3537C45.4025 46.2543 45.4416 46.1383 45.4416 46.0057C45.4416 45.8849 45.4078 45.7867 45.3404 45.7109C45.2729 45.6352 45.1841 45.5736 45.074 45.5263C44.964 45.4789 44.845 45.4375 44.7172 45.402L44.2697 45.2741C43.9856 45.1925 43.7607 45.0759 43.595 44.9244C43.4293 44.7728 43.3464 44.5746 43.3464 44.3295C43.3464 44.1259 43.4015 43.9484 43.5115 43.7969C43.6228 43.6442 43.772 43.5258 43.959 43.4418C44.1472 43.3565 44.3573 43.3139 44.5893 43.3139C44.8237 43.3139 45.032 43.3559 45.2143 43.44C45.3966 43.5228 45.541 43.6365 45.6475 43.7809C45.7553 43.9253 45.8121 44.0893 45.818 44.2727H45.3919ZM46.5349 48.0227V44.2727H46.9397V44.706H46.9894C47.0202 44.6586 47.0628 44.5982 47.1173 44.5249C47.1729 44.4503 47.2522 44.384 47.3552 44.326C47.4594 44.2668 47.6002 44.2372 47.7778 44.2372C48.0074 44.2372 48.2098 44.2946 48.385 44.4094C48.5602 44.5243 48.6969 44.687 48.7952 44.8977C48.8934 45.1084 48.9426 45.357 48.9426 45.6435C48.9426 45.9323 48.8934 46.1826 48.7952 46.3945C48.6969 46.6052 48.5608 46.7686 48.3868 46.8846C48.2128 46.9994 48.0122 47.0568 47.7849 47.0568C47.6097 47.0568 47.4694 47.0278 47.3641 46.9698C47.2587 46.9106 47.1776 46.8437 47.1208 46.7692C47.064 46.6934 47.0202 46.6307 46.9894 46.581H46.9539V48.0227H46.5349ZM46.9468 45.6364C46.9468 45.8423 46.977 46.024 47.0374 46.1815C47.0977 46.3377 47.1859 46.4602 47.3019 46.549C47.4179 46.6366 47.56 46.6804 47.7281 46.6804C47.9033 46.6804 48.0494 46.6342 48.1666 46.5419C48.285 46.4484 48.3738 46.3229 48.433 46.1655C48.4933 46.0069 48.5235 45.8305 48.5235 45.6364C48.5235 45.4446 48.4939 45.2718 48.4347 45.1179C48.3767 44.9628 48.2886 44.8403 48.1702 44.7504C48.053 44.6592 47.9056 44.6136 47.7281 44.6136C47.5576 44.6136 47.4144 44.6568 47.2984 44.7433C47.1824 44.8285 47.0948 44.948 47.0356 45.1019C46.9764 45.2546 46.9468 45.4328 46.9468 45.6364ZM50.7252 47.0568C50.4624 47.0568 50.2358 46.9988 50.0452 46.8828C49.8558 46.7656 49.7096 46.6023 49.6066 46.3928C49.5048 46.1821 49.4539 45.937 49.4539 45.6577C49.4539 45.3783 49.5048 45.1321 49.6066 44.919C49.7096 44.7048 49.8528 44.5379 50.0363 44.4183C50.221 44.2976 50.4364 44.2372 50.6826 44.2372C50.8247 44.2372 50.9649 44.2609 51.1034 44.3082C51.2419 44.3556 51.368 44.4325 51.4816 44.5391C51.5953 44.6444 51.6858 44.7841 51.7533 44.9581C51.8208 45.1321 51.8545 45.3464 51.8545 45.6009V45.7784H49.7522V45.4162H51.4284C51.4284 45.2623 51.3976 45.125 51.336 45.0043C51.2757 44.8835 51.1892 44.7882 51.0768 44.7184C50.9655 44.6486 50.8341 44.6136 50.6826 44.6136C50.5157 44.6136 50.3713 44.6551 50.2494 44.7379C50.1286 44.8196 50.0357 44.9261 49.9706 45.0575C49.9055 45.1889 49.873 45.3298 49.873 45.4801V45.7216C49.873 45.9276 49.9085 46.1022 49.9795 46.2454C50.0517 46.3874 50.1517 46.4957 50.2796 46.5703C50.4074 46.6437 50.556 46.6804 50.7252 46.6804C50.8353 46.6804 50.9347 46.665 51.0235 46.6342C51.1135 46.6023 51.191 46.5549 51.2561 46.4922C51.3212 46.4283 51.3715 46.349 51.407 46.2543L51.8119 46.3679C51.7693 46.5052 51.6977 46.6259 51.597 46.7301C51.4964 46.8331 51.3721 46.9136 51.2242 46.9716C51.0762 47.0284 50.9099 47.0568 50.7252 47.0568ZM53.5999 47.0568C53.3442 47.0568 53.124 46.9964 52.9394 46.8757C52.7547 46.755 52.6127 46.5887 52.5132 46.3768C52.4138 46.1649 52.3641 45.9228 52.3641 45.6506C52.3641 45.3736 52.415 45.1291 52.5168 44.9173C52.6198 44.7042 52.763 44.5379 52.9465 44.4183C53.1311 44.2976 53.3466 44.2372 53.5928 44.2372C53.7845 44.2372 53.9574 44.2727 54.1112 44.3438C54.2651 44.4148 54.3912 44.5142 54.4894 44.642C54.5877 44.7699 54.6486 44.919 54.6723 45.0895H54.2533C54.2213 44.9652 54.1503 44.8551 54.0402 44.7592C53.9313 44.6622 53.7845 44.6136 53.5999 44.6136C53.4365 44.6136 53.2933 44.6562 53.1702 44.7415C53.0483 44.8255 52.953 44.9445 52.8843 45.0984C52.8169 45.2511 52.7831 45.4304 52.7831 45.6364C52.7831 45.8471 52.8163 46.0305 52.8825 46.1868C52.95 46.343 53.0447 46.4644 53.1666 46.5508C53.2897 46.6372 53.4342 46.6804 53.5999 46.6804C53.7088 46.6804 53.8076 46.6615 53.8964 46.6236C53.9852 46.5857 54.0603 46.5312 54.1219 46.4602C54.1834 46.3892 54.2272 46.304 54.2533 46.2045H54.6723C54.6486 46.3655 54.5901 46.5105 54.4965 46.6396C54.4042 46.7674 54.2817 46.8692 54.129 46.945C53.9775 47.0195 53.8011 47.0568 53.5999 47.0568ZM57.2167 44.8835L56.8403 44.9901C56.8166 44.9273 56.7817 44.8664 56.7355 44.8072C56.6905 44.7468 56.629 44.6971 56.5509 44.658C56.4727 44.619 56.3727 44.5994 56.2508 44.5994C56.0839 44.5994 55.9448 44.6379 55.8335 44.7148C55.7235 44.7906 55.6684 44.8871 55.6684 45.0043C55.6684 45.1084 55.7063 45.1907 55.782 45.2511C55.8578 45.3114 55.9762 45.3617 56.1372 45.402L56.542 45.5014C56.7858 45.5606 56.9675 45.6512 57.0871 45.7731C57.2066 45.8938 57.2664 46.0495 57.2664 46.2401C57.2664 46.3963 57.2214 46.536 57.1315 46.6591C57.0427 46.7822 56.9184 46.8793 56.7586 46.9503C56.5988 47.0213 56.413 47.0568 56.2011 47.0568C55.9229 47.0568 55.6927 46.9964 55.5104 46.8757C55.3281 46.755 55.2127 46.5786 55.1642 46.3466L55.5619 46.2472C55.5998 46.3939 55.6714 46.504 55.7767 46.5774C55.8833 46.6508 56.0223 46.6875 56.194 46.6875C56.3893 46.6875 56.5444 46.6461 56.6592 46.5632C56.7752 46.4792 56.8332 46.3786 56.8332 46.2614C56.8332 46.1667 56.8 46.0874 56.7338 46.0234C56.6675 45.9583 56.5657 45.9098 56.4284 45.8778L55.9738 45.7713C55.724 45.7121 55.5406 45.6204 55.4234 45.4961C55.3074 45.3706 55.2494 45.2138 55.2494 45.0256C55.2494 44.8717 55.2926 44.7356 55.379 44.6172C55.4666 44.4988 55.5856 44.4059 55.7359 44.3384C55.8874 44.271 56.059 44.2372 56.2508 44.2372C56.5207 44.2372 56.7326 44.2964 56.8865 44.4148C57.0415 44.5331 57.1516 44.6894 57.2167 44.8835Z" fill="white"/>
<path d="M0 254C0 247.373 5.37258 242 12 242H50C56.6274 242 62 247.373 62 254V286C62 292.627 56.6274 298 50 298H12C5.37258 298 0 292.627 0 286V254Z" fill="#3C3C3B"/>
<path d="M8.35724 279.364V283H7.9169V279.364H8.35724ZM9.18333 283V280.273H9.58816V280.699H9.62367C9.68049 280.553 9.77222 280.44 9.89888 280.36C10.0255 280.278 10.1776 280.237 10.3552 280.237C10.5351 280.237 10.6849 280.278 10.8044 280.36C10.9252 280.44 11.0193 280.553 11.0867 280.699H11.1151C11.185 280.558 11.2897 280.446 11.4294 280.363C11.5691 280.279 11.7366 280.237 11.9319 280.237C12.1758 280.237 12.3752 280.314 12.5303 280.466C12.6853 280.618 12.7629 280.854 12.7629 281.175V283H12.3438V281.175C12.3438 280.973 12.2888 280.83 12.1787 280.743C12.0686 280.657 11.939 280.614 11.7899 280.614C11.5981 280.614 11.4495 280.672 11.3442 280.788C11.2388 280.902 11.1862 281.048 11.1862 281.224V283H10.76V281.132C10.76 280.977 10.7097 280.852 10.6091 280.757C10.5085 280.662 10.3789 280.614 10.2203 280.614C10.1114 280.614 10.0096 280.643 9.91486 280.701C9.82135 280.759 9.74559 280.839 9.68759 280.942C9.63077 281.044 9.60236 281.162 9.60236 281.295V283H9.18333ZM13.529 284.023V280.273H13.9339V280.706H13.9836C14.0144 280.659 14.057 280.598 14.1114 280.525C14.1671 280.45 14.2464 280.384 14.3493 280.326C14.4535 280.267 14.5944 280.237 14.7719 280.237C15.0016 280.237 15.204 280.295 15.3792 280.409C15.5544 280.524 15.6911 280.687 15.7893 280.898C15.8876 281.108 15.9367 281.357 15.9367 281.643C15.9367 281.932 15.8876 282.183 15.7893 282.395C15.6911 282.605 15.555 282.769 15.3809 282.885C15.2069 282.999 15.0063 283.057 14.779 283.057C14.6038 283.057 14.4636 283.028 14.3582 282.97C14.2529 282.911 14.1718 282.844 14.115 282.769C14.0581 282.693 14.0144 282.631 13.9836 282.581H13.9481V284.023H13.529ZM13.941 281.636C13.941 281.842 13.9711 282.024 14.0315 282.181C14.0919 282.338 14.1801 282.46 14.2961 282.549C14.4121 282.637 14.5541 282.68 14.7222 282.68C14.8974 282.68 15.0436 282.634 15.1608 282.542C15.2791 282.448 15.3679 282.323 15.4271 282.165C15.4875 282.007 15.5177 281.83 15.5177 281.636C15.5177 281.445 15.4881 281.272 15.4289 281.118C15.3709 280.963 15.2827 280.84 15.1643 280.75C15.0471 280.659 14.8998 280.614 14.7222 280.614C14.5518 280.614 14.4085 280.657 14.2925 280.743C14.1765 280.828 14.0889 280.948 14.0297 281.102C13.9706 281.255 13.941 281.433 13.941 281.636ZM16.9949 279.364V283H16.5759V279.364H16.9949ZM18.9059 283.057C18.6431 283.057 18.4164 282.999 18.2259 282.883C18.0365 282.766 17.8903 282.602 17.7873 282.393C17.6855 282.182 17.6346 281.937 17.6346 281.658C17.6346 281.378 17.6855 281.132 17.7873 280.919C17.8903 280.705 18.0335 280.538 18.217 280.418C18.4016 280.298 18.6171 280.237 18.8633 280.237C19.0053 280.237 19.1456 280.261 19.2841 280.308C19.4226 280.356 19.5487 280.433 19.6623 280.539C19.7759 280.644 19.8665 280.784 19.9339 280.958C20.0014 281.132 20.0352 281.346 20.0352 281.601V281.778H17.9329V281.416H19.609C19.609 281.262 19.5782 281.125 19.5167 281.004C19.4563 280.884 19.3699 280.788 19.2575 280.718C19.1462 280.649 19.0148 280.614 18.8633 280.614C18.6964 280.614 18.552 280.655 18.43 280.738C18.3093 280.82 18.2164 280.926 18.1513 281.058C18.0862 281.189 18.0536 281.33 18.0536 281.48V281.722C18.0536 281.928 18.0891 282.102 18.1602 282.245C18.2324 282.387 18.3324 282.496 18.4602 282.57C18.5881 282.644 18.7366 282.68 18.9059 282.68C19.016 282.68 19.1154 282.665 19.2042 282.634C19.2942 282.602 19.3717 282.555 19.4368 282.492C19.5019 282.428 19.5522 282.349 19.5877 282.254L19.9925 282.368C19.9499 282.505 19.8783 282.626 19.7777 282.73C19.6771 282.833 19.5528 282.914 19.4048 282.972C19.2569 283.028 19.0906 283.057 18.9059 283.057ZM20.6726 283V280.273H21.0774V280.699H21.1129C21.1697 280.553 21.2615 280.44 21.3881 280.36C21.5148 280.278 21.6669 280.237 21.8445 280.237C22.0244 280.237 22.1741 280.278 22.2937 280.36C22.4144 280.44 22.5085 280.553 22.576 280.699H22.6044C22.6742 280.558 22.779 280.446 22.9187 280.363C23.0584 280.279 23.2259 280.237 23.4212 280.237C23.665 280.237 23.8645 280.314 24.0195 280.466C24.1746 280.618 24.2521 280.854 24.2521 281.175V283H23.8331V281.175C23.8331 280.973 23.7781 280.83 23.668 280.743C23.5579 280.657 23.4283 280.614 23.2791 280.614C23.0874 280.614 22.9388 280.672 22.8335 280.788C22.7281 280.902 22.6754 281.048 22.6754 281.224V283H22.2493V281.132C22.2493 280.977 22.199 280.852 22.0984 280.757C21.9978 280.662 21.8681 280.614 21.7095 280.614C21.6006 280.614 21.4988 280.643 21.4041 280.701C21.3106 280.759 21.2348 280.839 21.1768 280.942C21.12 281.044 21.0916 281.162 21.0916 281.295V283H20.6726ZM26.1618 283.057C25.899 283.057 25.6723 282.999 25.4817 282.883C25.2923 282.766 25.1461 282.602 25.0431 282.393C24.9413 282.182 24.8904 281.937 24.8904 281.658C24.8904 281.378 24.9413 281.132 25.0431 280.919C25.1461 280.705 25.2894 280.538 25.4728 280.418C25.6575 280.298 25.8729 280.237 26.1191 280.237C26.2612 280.237 26.4015 280.261 26.54 280.308C26.6784 280.356 26.8045 280.433 26.9181 280.539C27.0318 280.644 27.1223 280.784 27.1898 280.958C27.2573 281.132 27.291 281.346 27.291 281.601V281.778H25.1887V281.416H26.8649C26.8649 281.262 26.8341 281.125 26.7725 281.004C26.7122 280.884 26.6258 280.788 26.5133 280.718C26.402 280.649 26.2707 280.614 26.1191 280.614C25.9522 280.614 25.8078 280.655 25.6859 280.738C25.5652 280.82 25.4722 280.926 25.4071 281.058C25.342 281.189 25.3095 281.33 25.3095 281.48V281.722C25.3095 281.928 25.345 282.102 25.416 282.245C25.4882 282.387 25.5882 282.496 25.7161 282.57C25.8439 282.644 25.9925 282.68 26.1618 282.68C26.2718 282.68 26.3713 282.665 26.46 282.634C26.55 282.602 26.6275 282.555 26.6926 282.492C26.7578 282.428 26.8081 282.349 26.8436 282.254L27.2484 282.368C27.2058 282.505 27.1342 282.626 27.0336 282.73C26.9329 282.833 26.8087 282.914 26.6607 282.972C26.5127 283.028 26.3464 283.057 26.1618 283.057ZM28.3475 281.359V283H27.9284V280.273H28.3333V280.699H28.3688C28.4327 280.56 28.5298 280.449 28.66 280.365C28.7902 280.28 28.9583 280.237 29.1642 280.237C29.3489 280.237 29.5105 280.275 29.649 280.351C29.7875 280.425 29.8952 280.539 29.9721 280.692C30.0491 280.843 30.0875 281.035 30.0875 281.267V283H29.6685V281.295C29.6685 281.081 29.6129 280.914 29.5016 280.795C29.3903 280.674 29.2376 280.614 29.0435 280.614C28.9097 280.614 28.7902 280.643 28.6848 280.701C28.5807 280.759 28.4984 280.843 28.438 280.955C28.3777 281.066 28.3475 281.201 28.3475 281.359ZM32.0393 280.273V280.628H30.626V280.273H32.0393ZM31.0379 279.619H31.4569V282.219C31.4569 282.337 31.4741 282.426 31.5084 282.485C31.5439 282.543 31.5889 282.582 31.6434 282.602C31.699 282.621 31.7576 282.631 31.8192 282.631C31.8653 282.631 31.9032 282.628 31.9328 282.624C31.9624 282.618 31.9861 282.613 32.0038 282.609L32.089 282.986C32.0606 282.996 32.021 283.007 31.9701 283.018C31.9192 283.03 31.8547 283.036 31.7765 283.036C31.6582 283.036 31.5422 283.01 31.4285 282.959C31.3161 282.908 31.2226 282.831 31.148 282.727C31.0746 282.622 31.0379 282.491 31.0379 282.332V279.619ZM33.4722 283.064C33.2994 283.064 33.1425 283.031 33.0017 282.966C32.8608 282.9 32.749 282.805 32.6661 282.68C32.5832 282.555 32.5418 282.403 32.5418 282.226C32.5418 282.07 32.5726 281.943 32.6341 281.846C32.6957 281.748 32.778 281.671 32.8809 281.615C32.9839 281.559 33.0976 281.518 33.2219 281.491C33.3473 281.462 33.4734 281.44 33.6001 281.423C33.7658 281.402 33.9001 281.386 34.0031 281.375C34.1073 281.364 34.183 281.344 34.2304 281.317C34.2789 281.29 34.3032 281.242 34.3032 281.175V281.161C34.3032 280.985 34.2552 280.849 34.1594 280.752C34.0647 280.655 33.9208 280.607 33.7279 280.607C33.5278 280.607 33.371 280.65 33.2574 280.738C33.1437 280.826 33.0638 280.919 33.0177 281.018L32.6199 280.876C32.691 280.711 32.7857 280.582 32.904 280.489C33.0236 280.396 33.1538 280.331 33.2947 280.294C33.4367 280.256 33.5764 280.237 33.7137 280.237C33.8013 280.237 33.9019 280.248 34.0155 280.269C34.1304 280.289 34.241 280.331 34.3476 280.395C34.4553 280.459 34.5447 280.556 34.6157 280.685C34.6867 280.814 34.7222 280.987 34.7222 281.203V283H34.3032V282.631H34.2819C34.2535 282.69 34.2061 282.753 34.1398 282.821C34.0735 282.888 33.9854 282.946 33.8753 282.993C33.7652 283.04 33.6308 283.064 33.4722 283.064ZM33.5361 282.688C33.7019 282.688 33.8415 282.655 33.9552 282.59C34.07 282.525 34.1564 282.441 34.2144 282.338C34.2736 282.235 34.3032 282.126 34.3032 282.013V281.629C34.2854 281.651 34.2464 281.67 34.186 281.688C34.1268 281.704 34.0581 281.719 33.98 281.732C33.9031 281.744 33.8279 281.755 33.7545 281.764C33.6823 281.772 33.6237 281.78 33.5787 281.786C33.4698 281.8 33.368 281.823 33.2733 281.855C33.1798 281.886 33.1041 281.932 33.0461 281.995C32.9893 282.057 32.9608 282.141 32.9608 282.247C32.9608 282.393 33.0147 282.503 33.1224 282.577C33.2313 282.651 33.3692 282.688 33.5361 282.688ZM36.6731 280.273V280.628H35.2598V280.273H36.6731ZM35.6717 279.619H36.0907V282.219C36.0907 282.337 36.1079 282.426 36.1422 282.485C36.1777 282.543 36.2227 282.582 36.2772 282.602C36.3328 282.621 36.3914 282.631 36.4529 282.631C36.4991 282.631 36.537 282.628 36.5666 282.624C36.5962 282.618 36.6199 282.613 36.6376 282.609L36.7228 282.986C36.6944 282.996 36.6548 283.007 36.6039 283.018C36.553 283.03 36.4885 283.036 36.4103 283.036C36.292 283.036 36.176 283.01 36.0623 282.959C35.9499 282.908 35.8564 282.831 35.7818 282.727C35.7084 282.622 35.6717 282.491 35.6717 282.332V279.619ZM37.3034 283V280.273H37.7225V283H37.3034ZM37.5165 279.818C37.4348 279.818 37.3644 279.79 37.3052 279.735C37.2472 279.679 37.2182 279.612 37.2182 279.534C37.2182 279.456 37.2472 279.389 37.3052 279.333C37.3644 279.278 37.4348 279.25 37.5165 279.25C37.5982 279.25 37.668 279.278 37.726 279.333C37.7852 279.389 37.8148 279.456 37.8148 279.534C37.8148 279.612 37.7852 279.679 37.726 279.735C37.668 279.79 37.5982 279.818 37.5165 279.818ZM39.5979 283.057C39.3517 283.057 39.1357 282.998 38.9498 282.881C38.7652 282.764 38.6208 282.6 38.5166 282.389C38.4136 282.179 38.3621 281.932 38.3621 281.651C38.3621 281.366 38.4136 281.118 38.5166 280.907C38.6208 280.695 38.7652 280.53 38.9498 280.413C39.1357 280.296 39.3517 280.237 39.5979 280.237C39.8441 280.237 40.0596 280.296 40.2442 280.413C40.4301 280.53 40.5745 280.695 40.6775 280.907C40.7816 281.118 40.8337 281.366 40.8337 281.651C40.8337 281.932 40.7816 282.179 40.6775 282.389C40.5745 282.6 40.4301 282.764 40.2442 282.881C40.0596 282.998 39.8441 283.057 39.5979 283.057ZM39.5979 282.68C39.7849 282.68 39.9388 282.632 40.0596 282.537C40.1803 282.441 40.2697 282.315 40.3277 282.158C40.3857 282.002 40.4147 281.833 40.4147 281.651C40.4147 281.468 40.3857 281.298 40.3277 281.141C40.2697 280.984 40.1803 280.856 40.0596 280.759C39.9388 280.662 39.7849 280.614 39.5979 280.614C39.4109 280.614 39.257 280.662 39.1363 280.759C39.0155 280.856 38.9262 280.984 38.8682 281.141C38.8102 281.298 38.7812 281.468 38.7812 281.651C38.7812 281.833 38.8102 282.002 38.8682 282.158C38.9262 282.315 39.0155 282.441 39.1363 282.537C39.257 282.632 39.4109 282.68 39.5979 282.68ZM41.8924 281.359V283H41.4734V280.273H41.8782V280.699H41.9137C41.9776 280.56 42.0747 280.449 42.2049 280.365C42.3351 280.28 42.5032 280.237 42.7092 280.237C42.8938 280.237 43.0554 280.275 43.1939 280.351C43.3324 280.425 43.4401 280.539 43.517 280.692C43.594 280.843 43.6325 281.035 43.6325 281.267V283H43.2134V281.295C43.2134 281.081 43.1578 280.914 43.0465 280.795C42.9353 280.674 42.7826 280.614 42.5884 280.614C42.4547 280.614 42.3351 280.643 42.2298 280.701C42.1256 280.759 42.0433 280.843 41.983 280.955C41.9226 281.066 41.8924 281.201 41.8924 281.359ZM45.8612 283V279.364H47.0899C47.3752 279.364 47.6084 279.415 47.7895 279.518C47.9718 279.62 48.1067 279.758 48.1943 279.932C48.2819 280.106 48.3257 280.3 48.3257 280.514C48.3257 280.728 48.2819 280.923 48.1943 281.098C48.1079 281.274 47.9742 281.413 47.7931 281.517C47.6119 281.62 47.3799 281.672 47.097 281.672H46.2164V281.281H47.0828C47.2781 281.281 47.435 281.248 47.5534 281.18C47.6717 281.113 47.7575 281.021 47.8108 280.907C47.8653 280.791 47.8925 280.66 47.8925 280.514C47.8925 280.369 47.8653 280.238 47.8108 280.124C47.7575 280.009 47.6711 279.919 47.5516 279.854C47.432 279.787 47.2734 279.754 47.0757 279.754H46.3016V283H45.8612ZM49.3973 279.364V283H48.9782V279.364H49.3973ZM50.9673 283.064C50.7945 283.064 50.6377 283.031 50.4968 282.966C50.3559 282.9 50.2441 282.805 50.1612 282.68C50.0784 282.555 50.0369 282.403 50.0369 282.226C50.0369 282.07 50.0677 281.943 50.1293 281.846C50.1908 281.748 50.2731 281.671 50.3761 281.615C50.479 281.559 50.5927 281.518 50.717 281.491C50.8424 281.462 50.9685 281.44 51.0952 281.423C51.2609 281.402 51.3952 281.386 51.4982 281.375C51.6024 281.364 51.6781 281.344 51.7255 281.317C51.774 281.29 51.7983 281.242 51.7983 281.175V281.161C51.7983 280.985 51.7504 280.849 51.6545 280.752C51.5598 280.655 51.416 280.607 51.223 280.607C51.023 280.607 50.8661 280.65 50.7525 280.738C50.6388 280.826 50.5589 280.919 50.5128 281.018L50.1151 280.876C50.1861 280.711 50.2808 280.582 50.3991 280.489C50.5187 280.396 50.6489 280.331 50.7898 280.294C50.9318 280.256 51.0715 280.237 51.2088 280.237C51.2964 280.237 51.397 280.248 51.5107 280.269C51.6255 280.289 51.7362 280.331 51.8427 280.395C51.9504 280.459 52.0398 280.556 52.1108 280.685C52.1818 280.814 52.2173 280.987 52.2173 281.203V283H51.7983V282.631H51.777C51.7486 282.69 51.7012 282.753 51.6349 282.821C51.5687 282.888 51.4805 282.946 51.3704 282.993C51.2603 283.04 51.1259 283.064 50.9673 283.064ZM51.0312 282.688C51.197 282.688 51.3366 282.655 51.4503 282.59C51.5651 282.525 51.6515 282.441 51.7095 282.338C51.7687 282.235 51.7983 282.126 51.7983 282.013V281.629C51.7805 281.651 51.7415 281.67 51.6811 281.688C51.6219 281.704 51.5533 281.719 51.4751 281.732C51.3982 281.744 51.323 281.755 51.2496 281.764C51.1774 281.772 51.1188 281.78 51.0739 281.786C50.965 281.8 50.8632 281.823 50.7685 281.855C50.675 281.886 50.5992 281.932 50.5412 281.995C50.4844 282.057 50.456 282.141 50.456 282.247C50.456 282.393 50.5098 282.503 50.6175 282.577C50.7264 282.651 50.8643 282.688 51.0312 282.688ZM53.4012 281.359V283H52.9822V280.273H53.387V280.699H53.4225C53.4864 280.56 53.5835 280.449 53.7137 280.365C53.8439 280.28 54.012 280.237 54.218 280.237C54.4026 280.237 54.5642 280.275 54.7027 280.351C54.8412 280.425 54.9489 280.539 55.0258 280.692C55.1028 280.843 55.1412 281.035 55.1412 281.267V283H54.7222V281.295C54.7222 281.081 54.6666 280.914 54.5553 280.795C54.444 280.674 54.2913 280.614 54.0972 280.614C53.9635 280.614 53.8439 280.643 53.7385 280.701C53.6344 280.759 53.5521 280.843 53.4917 280.955C53.4314 281.066 53.4012 281.201 53.4012 281.359ZM9.3691 289L8.53813 286.273H8.97847L9.56796 288.361H9.59637L10.1788 286.273H10.6262L11.2015 288.354H11.2299L11.8194 286.273H12.2597L11.4288 289H11.0168L10.4202 286.905H10.3776L9.78103 289H9.3691ZM12.8137 289V286.273H13.2327V289H12.8137ZM13.0268 285.818C12.9451 285.818 12.8747 285.79 12.8155 285.735C12.7575 285.679 12.7285 285.612 12.7285 285.534C12.7285 285.456 12.7575 285.389 12.8155 285.333C12.8747 285.278 12.9451 285.25 13.0268 285.25C13.1084 285.25 13.1783 285.278 13.2363 285.333C13.2955 285.389 13.3251 285.456 13.3251 285.534C13.3251 285.612 13.2955 285.679 13.2363 285.735C13.1783 285.79 13.1084 285.818 13.0268 285.818ZM15.1863 286.273V286.628H13.7729V286.273H15.1863ZM14.1849 285.619H14.6039V288.219C14.6039 288.337 14.6211 288.426 14.6554 288.485C14.6909 288.543 14.7359 288.582 14.7903 288.602C14.846 288.621 14.9046 288.631 14.9661 288.631C15.0123 288.631 15.0502 288.628 15.0798 288.624C15.1094 288.618 15.133 288.613 15.1508 288.609L15.236 288.986C15.2076 288.996 15.168 289.007 15.1171 289.018C15.0662 289.03 15.0016 289.036 14.9235 289.036C14.8051 289.036 14.6891 289.01 14.5755 288.959C14.4631 288.908 14.3695 288.831 14.295 288.727C14.2216 288.622 14.1849 288.491 14.1849 288.332V285.619ZM16.2943 287.359V289H15.8752V285.364H16.2943V286.699H16.3298C16.3937 286.558 16.4896 286.446 16.6174 286.363C16.7464 286.279 16.9181 286.237 17.1323 286.237C17.3182 286.237 17.4809 286.275 17.6206 286.349C17.7603 286.422 17.8686 286.536 17.9455 286.688C18.0237 286.84 18.0627 287.033 18.0627 287.267V289H17.6437V287.295C17.6437 287.079 17.5875 286.911 17.475 286.793C17.3637 286.673 17.2093 286.614 17.0116 286.614C16.8743 286.614 16.7512 286.643 16.6423 286.701C16.5345 286.759 16.4493 286.843 16.3866 286.955C16.325 287.066 16.2943 287.201 16.2943 287.359ZM20.0935 285.754V285.364H22.8208V285.754H21.6773V289H21.237V285.754H20.0935ZM23.875 289.064C23.7022 289.064 23.5454 289.031 23.4045 288.966C23.2637 288.9 23.1518 288.805 23.0689 288.68C22.9861 288.555 22.9446 288.403 22.9446 288.226C22.9446 288.07 22.9754 287.943 23.037 287.846C23.0985 287.748 23.1808 287.671 23.2838 287.615C23.3868 287.559 23.5004 287.518 23.6247 287.491C23.7502 287.462 23.8762 287.44 24.0029 287.423C24.1686 287.402 24.303 287.386 24.4059 287.375C24.5101 287.364 24.5859 287.344 24.6332 287.317C24.6817 287.29 24.706 287.242 24.706 287.175V287.161C24.706 286.985 24.6581 286.849 24.5622 286.752C24.4675 286.655 24.3237 286.607 24.1307 286.607C23.9307 286.607 23.7738 286.65 23.6602 286.738C23.5466 286.826 23.4667 286.919 23.4205 287.018L23.0228 286.876C23.0938 286.711 23.1885 286.582 23.3069 286.489C23.4264 286.396 23.5566 286.331 23.6975 286.294C23.8395 286.256 23.9792 286.237 24.1165 286.237C24.2041 286.237 24.3047 286.248 24.4184 286.269C24.5332 286.289 24.6439 286.331 24.7504 286.395C24.8581 286.459 24.9475 286.556 25.0185 286.685C25.0895 286.814 25.125 286.987 25.125 287.203V289H24.706V288.631H24.6847C24.6563 288.69 24.6089 288.753 24.5427 288.821C24.4764 288.888 24.3882 288.946 24.2781 288.993C24.168 289.04 24.0337 289.064 23.875 289.064ZM23.939 288.688C24.1047 288.688 24.2444 288.655 24.358 288.59C24.4728 288.525 24.5592 288.441 24.6172 288.338C24.6764 288.235 24.706 288.126 24.706 288.013V287.629C24.6883 287.651 24.6492 287.67 24.5888 287.688C24.5296 287.704 24.461 287.719 24.3829 287.732C24.3059 287.744 24.2307 287.755 24.1574 287.764C24.0852 287.772 24.0266 287.78 23.9816 287.786C23.8727 287.8 23.7709 287.823 23.6762 287.855C23.5827 287.886 23.5069 287.932 23.4489 287.995C23.3921 288.057 23.3637 288.141 23.3637 288.247C23.3637 288.393 23.4175 288.503 23.5253 288.577C23.6342 288.651 23.7721 288.688 23.939 288.688ZM27.8217 286.884L27.4453 286.99C27.4216 286.927 27.3867 286.866 27.3405 286.807C27.2955 286.747 27.234 286.697 27.1559 286.658C27.0777 286.619 26.9777 286.599 26.8558 286.599C26.6889 286.599 26.5498 286.638 26.4385 286.715C26.3284 286.791 26.2734 286.887 26.2734 287.004C26.2734 287.108 26.3113 287.191 26.387 287.251C26.4628 287.311 26.5812 287.362 26.7421 287.402L27.147 287.501C27.3908 287.561 27.5725 287.651 27.6921 287.773C27.8116 287.894 27.8714 288.049 27.8714 288.24C27.8714 288.396 27.8264 288.536 27.7365 288.659C27.6477 288.782 27.5234 288.879 27.3636 288.95C27.2038 289.021 27.0179 289.057 26.8061 289.057C26.5279 289.057 26.2977 288.996 26.1154 288.876C25.9331 288.755 25.8177 288.579 25.7691 288.347L26.1669 288.247C26.2047 288.394 26.2764 288.504 26.3817 288.577C26.4882 288.651 26.6273 288.688 26.799 288.688C26.9943 288.688 27.1493 288.646 27.2642 288.563C27.3802 288.479 27.4382 288.379 27.4382 288.261C27.4382 288.167 27.405 288.087 27.3387 288.023C27.2724 287.958 27.1706 287.91 27.0333 287.878L26.5788 287.771C26.329 287.712 26.1456 287.62 26.0284 287.496C25.9124 287.371 25.8544 287.214 25.8544 287.026C25.8544 286.872 25.8976 286.736 25.984 286.617C26.0716 286.499 26.1905 286.406 26.3409 286.338C26.4924 286.271 26.664 286.237 26.8558 286.237C27.1257 286.237 27.3376 286.296 27.4914 286.415C27.6465 286.533 27.7566 286.689 27.8217 286.884ZM28.8928 288.006L28.8857 287.487H28.9709L30.1641 286.273H30.6826L29.4113 287.558H29.3758L28.8928 288.006ZM28.5022 289V285.364H28.9212V289H28.5022ZM30.2351 289L29.1698 287.651L29.4681 287.359L30.7678 289H30.2351ZM33.1537 286.884L32.7773 286.99C32.7536 286.927 32.7187 286.866 32.6725 286.807C32.6276 286.747 32.566 286.697 32.4879 286.658C32.4098 286.619 32.3097 286.599 32.1878 286.599C32.0209 286.599 31.8818 286.638 31.7706 286.715C31.6605 286.791 31.6054 286.887 31.6054 287.004C31.6054 287.108 31.6433 287.191 31.7191 287.251C31.7948 287.311 31.9132 287.362 32.0742 287.402L32.479 287.501C32.7228 287.561 32.9045 287.651 33.0241 287.773C33.1437 287.894 33.2034 288.049 33.2034 288.24C33.2034 288.396 33.1585 288.536 33.0685 288.659C32.9797 288.782 32.8554 288.879 32.6956 288.95C32.5358 289.021 32.35 289.057 32.1381 289.057C31.8599 289.057 31.6297 288.996 31.4474 288.876C31.2651 288.755 31.1497 288.579 31.1012 288.347L31.4989 288.247C31.5368 288.394 31.6084 288.504 31.7137 288.577C31.8203 288.651 31.9594 288.688 32.131 288.688C32.3263 288.688 32.4814 288.646 32.5962 288.563C32.7122 288.479 32.7702 288.379 32.7702 288.261C32.7702 288.167 32.7371 288.087 32.6708 288.023C32.6045 287.958 32.5027 287.91 32.3654 287.878L31.9108 287.771C31.6611 287.712 31.4776 287.62 31.3604 287.496C31.2444 287.371 31.1864 287.214 31.1864 287.026C31.1864 286.872 31.2296 286.736 31.316 286.617C31.4036 286.499 31.5226 286.406 31.6729 286.338C31.8244 286.271 31.996 286.237 32.1878 286.237C32.4577 286.237 32.6696 286.296 32.8235 286.415C32.9785 286.533 33.0886 286.689 33.1537 286.884ZM36.3413 290.08C36.1389 290.08 35.9649 290.054 35.8193 290.001C35.6737 289.951 35.5524 289.883 35.4553 289.799C35.3594 289.716 35.2831 289.627 35.2263 289.533L35.5601 289.298C35.5979 289.348 35.6459 289.405 35.7039 289.469C35.7619 289.534 35.8412 289.59 35.9418 289.637C36.0436 289.686 36.1768 289.71 36.3413 289.71C36.5615 289.71 36.7432 289.657 36.8864 289.55C37.0296 289.444 37.1013 289.277 37.1013 289.05V288.496H37.0657C37.035 288.545 36.9912 288.607 36.9343 288.68C36.8787 288.753 36.7982 288.817 36.6929 288.874C36.5887 288.93 36.4478 288.957 36.2703 288.957C36.0501 288.957 35.8524 288.905 35.6772 288.801C35.5032 288.697 35.3653 288.545 35.2635 288.347C35.1629 288.148 35.1126 287.906 35.1126 287.622C35.1126 287.343 35.1617 287.1 35.26 286.892C35.3582 286.684 35.495 286.523 35.6701 286.409C35.8453 286.295 36.0477 286.237 36.2774 286.237C36.4549 286.237 36.5958 286.267 36.7 286.326C36.8053 286.384 36.8858 286.45 36.9415 286.525C36.9983 286.598 37.0421 286.659 37.0728 286.706H37.1155V286.273H37.5203V289.078C37.5203 289.312 37.467 289.503 37.3605 289.65C37.2551 289.798 37.1131 289.906 36.9343 289.975C36.7568 290.045 36.5591 290.08 36.3413 290.08ZM36.3271 288.581C36.4952 288.581 36.6372 288.542 36.7532 288.466C36.8692 288.389 36.9574 288.278 37.0178 288.134C37.0782 287.989 37.1084 287.816 37.1084 287.615C37.1084 287.419 37.0788 287.245 37.0196 287.095C36.9604 286.944 36.8728 286.827 36.7568 286.741C36.6408 286.656 36.4976 286.614 36.3271 286.614C36.1495 286.614 36.0016 286.659 35.8832 286.749C35.766 286.839 35.6778 286.959 35.6187 287.111C35.5607 287.262 35.5316 287.43 35.5316 287.615C35.5316 287.804 35.5612 287.972 35.6204 288.118C35.6808 288.262 35.7696 288.376 35.8868 288.458C36.0051 288.54 36.1519 288.581 36.3271 288.581ZM38.2873 289V286.273H38.6922V286.685H38.7206C38.7703 286.55 38.8602 286.44 38.9905 286.356C39.1207 286.272 39.2674 286.23 39.4308 286.23C39.4616 286.23 39.5 286.231 39.5462 286.232C39.5924 286.233 39.6273 286.235 39.651 286.237V286.663C39.6368 286.66 39.6042 286.654 39.5533 286.647C39.5036 286.639 39.4509 286.635 39.3953 286.635C39.2627 286.635 39.1443 286.663 39.0402 286.718C38.9372 286.773 38.8555 286.849 38.7951 286.946C38.736 287.042 38.7064 287.151 38.7064 287.274V289H38.2873ZM41.1726 289.057C40.9264 289.057 40.7104 288.998 40.5245 288.881C40.3399 288.764 40.1955 288.6 40.0913 288.389C39.9883 288.179 39.9368 287.932 39.9368 287.651C39.9368 287.366 39.9883 287.118 40.0913 286.907C40.1955 286.695 40.3399 286.53 40.5245 286.413C40.7104 286.296 40.9264 286.237 41.1726 286.237C41.4188 286.237 41.6343 286.296 41.8189 286.413C42.0048 286.53 42.1492 286.695 42.2522 286.907C42.3563 287.118 42.4084 287.366 42.4084 287.651C42.4084 287.932 42.3563 288.179 42.2522 288.389C42.1492 288.6 42.0048 288.764 41.8189 288.881C41.6343 288.998 41.4188 289.057 41.1726 289.057ZM41.1726 288.68C41.3597 288.68 41.5135 288.632 41.6343 288.537C41.755 288.441 41.8444 288.315 41.9024 288.158C41.9604 288.002 41.9894 287.833 41.9894 287.651C41.9894 287.468 41.9604 287.298 41.9024 287.141C41.8444 286.984 41.755 286.856 41.6343 286.759C41.5135 286.662 41.3597 286.614 41.1726 286.614C40.9856 286.614 40.8317 286.662 40.711 286.759C40.5902 286.856 40.5009 286.984 40.4429 287.141C40.3849 287.298 40.3559 287.468 40.3559 287.651C40.3559 287.833 40.3849 288.002 40.4429 288.158C40.5009 288.315 40.5902 288.441 40.711 288.537C40.8317 288.632 40.9856 288.68 41.1726 288.68ZM44.7668 287.885V286.273H45.1859V289H44.7668V288.538H44.7384C44.6745 288.677 44.5751 288.795 44.4401 288.892C44.3052 288.988 44.1347 289.036 43.9288 289.036C43.7583 289.036 43.6068 288.998 43.4742 288.924C43.3416 288.848 43.2375 288.734 43.1617 288.583C43.086 288.43 43.0481 288.238 43.0481 288.006V286.273H43.4671V287.977C43.4671 288.176 43.5227 288.335 43.634 288.453C43.7465 288.571 43.8897 288.631 44.0637 288.631C44.1679 288.631 44.2738 288.604 44.3815 288.551C44.4904 288.498 44.5816 288.416 44.655 288.306C44.7295 288.196 44.7668 288.055 44.7668 287.885ZM45.9533 290.023V286.273H46.3582V286.706H46.4079C46.4387 286.659 46.4813 286.598 46.5357 286.525C46.5914 286.45 46.6707 286.384 46.7737 286.326C46.8778 286.267 47.0187 286.237 47.1962 286.237C47.4259 286.237 47.6283 286.295 47.8035 286.409C47.9787 286.524 48.1154 286.687 48.2136 286.898C48.3119 287.108 48.361 287.357 48.361 287.643C48.361 287.932 48.3119 288.183 48.2136 288.395C48.1154 288.605 47.9793 288.769 47.8053 288.885C47.6313 288.999 47.4306 289.057 47.2033 289.057C47.0282 289.057 46.8879 289.028 46.7825 288.97C46.6772 288.911 46.5961 288.844 46.5393 288.769C46.4825 288.693 46.4387 288.631 46.4079 288.581H46.3724V290.023H45.9533ZM46.3653 287.636C46.3653 287.842 46.3955 288.024 46.4558 288.181C46.5162 288.338 46.6044 288.46 46.7204 288.549C46.8364 288.637 46.9784 288.68 47.1465 288.68C47.3217 288.68 47.4679 288.634 47.5851 288.542C47.7035 288.448 47.7922 288.323 47.8514 288.165C47.9118 288.007 47.942 287.83 47.942 287.636C47.942 287.445 47.9124 287.272 47.8532 287.118C47.7952 286.963 47.707 286.84 47.5886 286.75C47.4715 286.659 47.3241 286.614 47.1465 286.614C46.9761 286.614 46.8328 286.657 46.7168 286.743C46.6008 286.828 46.5132 286.948 46.4541 287.102C46.3949 287.255 46.3653 287.433 46.3653 287.636ZM50.1437 289.057C49.8809 289.057 49.6542 288.999 49.4636 288.883C49.2743 288.766 49.1281 288.602 49.0251 288.393C48.9233 288.182 48.8724 287.937 48.8724 287.658C48.8724 287.378 48.9233 287.132 49.0251 286.919C49.1281 286.705 49.2713 286.538 49.4548 286.418C49.6394 286.298 49.8549 286.237 50.1011 286.237C50.2431 286.237 50.3834 286.261 50.5219 286.308C50.6604 286.356 50.7864 286.433 50.9001 286.539C51.0137 286.644 51.1043 286.784 51.1717 286.958C51.2392 287.132 51.2729 287.346 51.2729 287.601V287.778H49.1707V287.416H50.8468C50.8468 287.262 50.816 287.125 50.7545 287.004C50.6941 286.884 50.6077 286.788 50.4953 286.718C50.384 286.649 50.2526 286.614 50.1011 286.614C49.9342 286.614 49.7898 286.655 49.6678 286.738C49.5471 286.82 49.4542 286.926 49.3891 287.058C49.324 287.189 49.2914 287.33 49.2914 287.48V287.722C49.2914 287.928 49.3269 288.102 49.3979 288.245C49.4702 288.387 49.5702 288.496 49.698 288.57C49.8259 288.644 49.9744 288.68 50.1437 288.68C50.2538 288.68 50.3532 288.665 50.442 288.634C50.5319 288.602 50.6095 288.555 50.6746 288.492C50.7397 288.428 50.79 288.349 50.8255 288.254L51.2303 288.368C51.1877 288.505 51.1161 288.626 51.0155 288.73C50.9149 288.833 50.7906 288.914 50.6426 288.972C50.4947 289.028 50.3283 289.057 50.1437 289.057ZM52.9402 289.057C52.7129 289.057 52.5123 288.999 52.3383 288.885C52.1643 288.769 52.0282 288.605 51.9299 288.395C51.8317 288.183 51.7825 287.932 51.7825 287.643C51.7825 287.357 51.8317 287.108 51.9299 286.898C52.0282 286.687 52.1649 286.524 52.3401 286.409C52.5153 286.295 52.7177 286.237 52.9473 286.237C53.1249 286.237 53.2651 286.267 53.3681 286.326C53.4723 286.384 53.5516 286.45 53.606 286.525C53.6617 286.598 53.7049 286.659 53.7357 286.706H53.7712V285.364H54.1902V289H53.7854V288.581H53.7357C53.7049 288.631 53.6611 288.693 53.6043 288.769C53.5475 288.844 53.4664 288.911 53.361 288.97C53.2557 289.028 53.1154 289.057 52.9402 289.057ZM52.997 288.68C53.1651 288.68 53.3072 288.637 53.4232 288.549C53.5392 288.46 53.6274 288.338 53.6877 288.181C53.7481 288.024 53.7783 287.842 53.7783 287.636C53.7783 287.433 53.7487 287.255 53.6895 287.102C53.6303 286.948 53.5427 286.828 53.4267 286.743C53.3107 286.657 53.1675 286.614 52.997 286.614C52.8195 286.614 52.6715 286.659 52.5531 286.75C52.4359 286.84 52.3478 286.963 52.2886 287.118C52.2306 287.272 52.2016 287.445 52.2016 287.636C52.2016 287.83 52.2312 288.007 52.2903 288.165C52.3507 288.323 52.4395 288.448 52.5567 288.542C52.6751 288.634 52.8218 288.68 52.997 288.68ZM23.2465 295V291.364H23.6655V292.706H23.701C23.7318 292.659 23.7744 292.598 23.8289 292.525C23.8845 292.45 23.9638 292.384 24.0668 292.326C24.171 292.267 24.3118 292.237 24.4894 292.237C24.719 292.237 24.9214 292.295 25.0966 292.409C25.2718 292.524 25.4085 292.687 25.5068 292.898C25.605 293.108 25.6542 293.357 25.6542 293.643C25.6542 293.932 25.605 294.183 25.5068 294.395C25.4085 294.605 25.2724 294.769 25.0984 294.885C24.9244 294.999 24.7238 295.057 24.4965 295.057C24.3213 295.057 24.181 295.028 24.0757 294.97C23.9703 294.911 23.8892 294.844 23.8324 294.769C23.7756 294.693 23.7318 294.631 23.701 294.581H23.6513V295H23.2465ZM23.6584 293.636C23.6584 293.842 23.6886 294.024 23.749 294.181C23.8093 294.338 23.8975 294.46 24.0135 294.549C24.1295 294.637 24.2716 294.68 24.4397 294.68C24.6149 294.68 24.7611 294.634 24.8782 294.542C24.9966 294.448 25.0854 294.323 25.1446 294.165C25.2049 294.007 25.2351 293.83 25.2351 293.636C25.2351 293.445 25.2055 293.272 25.1464 293.118C25.0883 292.963 25.0002 292.84 24.8818 292.75C24.7646 292.659 24.6172 292.614 24.4397 292.614C24.2692 292.614 24.126 292.657 24.01 292.743C23.894 292.828 23.8064 292.948 23.7472 293.102C23.688 293.255 23.6584 293.433 23.6584 293.636ZM26.4674 296.023C26.3964 296.023 26.333 296.017 26.2774 296.005C26.2218 295.994 26.1833 295.984 26.162 295.973L26.2685 295.604C26.3703 295.63 26.4603 295.639 26.5384 295.632C26.6165 295.625 26.6858 295.59 26.7461 295.527C26.8077 295.466 26.8639 295.366 26.9148 295.227L26.9929 295.014L25.9844 292.273H26.439L27.1918 294.446H27.2202L27.9731 292.273H28.4276L27.2699 295.398C27.2178 295.539 27.1533 295.655 27.0764 295.748C26.9995 295.841 26.9101 295.91 26.8083 295.955C26.7077 296 26.594 296.023 26.4674 296.023ZM31.6014 292.273V292.628H30.1313V292.273H31.6014ZM30.5716 295V291.896C30.5716 291.74 30.6083 291.61 30.6817 291.506C30.7551 291.402 30.8504 291.323 30.9676 291.271C31.0847 291.219 31.2084 291.193 31.3386 291.193C31.4416 291.193 31.5257 291.201 31.5908 291.218C31.6559 291.235 31.7044 291.25 31.7364 291.264L31.6156 291.626C31.5943 291.619 31.5647 291.61 31.5269 291.6C31.4902 291.589 31.4416 291.584 31.3813 291.584C31.2428 291.584 31.1427 291.619 31.0812 291.689C31.0208 291.758 30.9906 291.861 30.9906 291.996V295H30.5716ZM32.1887 295V292.273H32.6077V295H32.1887ZM32.4018 291.818C32.3201 291.818 32.2497 291.79 32.1905 291.735C32.1325 291.679 32.1035 291.612 32.1035 291.534C32.1035 291.456 32.1325 291.389 32.1905 291.333C32.2497 291.278 32.3201 291.25 32.4018 291.25C32.4834 291.25 32.5533 291.278 32.6113 291.333C32.6705 291.389 32.7001 291.456 32.7001 291.534C32.7001 291.612 32.6705 291.679 32.6113 291.735C32.5533 291.79 32.4834 291.818 32.4018 291.818ZM34.5187 295.057C34.2559 295.057 34.0292 294.999 33.8386 294.883C33.6493 294.766 33.5031 294.602 33.4001 294.393C33.2983 294.182 33.2474 293.937 33.2474 293.658C33.2474 293.378 33.2983 293.132 33.4001 292.919C33.5031 292.705 33.6463 292.538 33.8298 292.418C34.0144 292.298 34.2299 292.237 34.4761 292.237C34.6181 292.237 34.7584 292.261 34.8969 292.308C35.0354 292.356 35.1614 292.433 35.2751 292.539C35.3887 292.644 35.4793 292.784 35.5467 292.958C35.6142 293.132 35.6479 293.346 35.6479 293.601V293.778H33.5457V293.416H35.2218C35.2218 293.262 35.191 293.125 35.1295 293.004C35.0691 292.884 34.9827 292.788 34.8703 292.718C34.759 292.649 34.6276 292.614 34.4761 292.614C34.3092 292.614 34.1648 292.655 34.0428 292.738C33.9221 292.82 33.8292 292.926 33.7641 293.058C33.699 293.189 33.6664 293.33 33.6664 293.48V293.722C33.6664 293.928 33.7019 294.102 33.7729 294.245C33.8452 294.387 33.9452 294.496 34.073 294.57C34.2009 294.644 34.3494 294.68 34.5187 294.68C34.6288 294.68 34.7282 294.665 34.817 294.634C34.9069 294.602 34.9845 294.555 35.0496 294.492C35.1147 294.428 35.165 294.349 35.2005 294.254L35.6053 294.368C35.5627 294.505 35.4911 294.626 35.3905 294.73C35.2899 294.833 35.1656 294.914 35.0176 294.972C34.8697 295.028 34.7033 295.057 34.5187 295.057ZM36.7044 291.364V295H36.2854V291.364H36.7044ZM38.5017 295.057C38.2745 295.057 38.0738 294.999 37.8998 294.885C37.7258 294.769 37.5897 294.605 37.4914 294.395C37.3932 294.183 37.3441 293.932 37.3441 293.643C37.3441 293.357 37.3932 293.108 37.4914 292.898C37.5897 292.687 37.7264 292.524 37.9016 292.409C38.0768 292.295 38.2792 292.237 38.5088 292.237C38.6864 292.237 38.8267 292.267 38.9296 292.326C39.0338 292.384 39.1131 292.45 39.1676 292.525C39.2232 292.598 39.2664 292.659 39.2972 292.706H39.3327V291.364H39.7517V295H39.3469V294.581H39.2972C39.2664 294.631 39.2226 294.693 39.1658 294.769C39.109 294.844 39.0279 294.911 38.9225 294.97C38.8172 295.028 38.6769 295.057 38.5017 295.057ZM38.5585 294.68C38.7266 294.68 38.8687 294.637 38.9847 294.549C39.1007 294.46 39.1889 294.338 39.2492 294.181C39.3096 294.024 39.3398 293.842 39.3398 293.636C39.3398 293.433 39.3102 293.255 39.251 293.102C39.1918 292.948 39.1042 292.828 38.9882 292.743C38.8722 292.657 38.729 292.614 38.5585 292.614C38.381 292.614 38.233 292.659 38.1147 292.75C37.9975 292.84 37.9093 292.963 37.8501 293.118C37.7921 293.272 37.7631 293.445 37.7631 293.636C37.7631 293.83 37.7927 294.007 37.8519 294.165C37.9122 294.323 38.001 294.448 38.1182 294.542C38.2366 294.634 38.3834 294.68 38.5585 294.68Z" fill="white"/>
<path d="M27.4064 250.021H34.5939C34.5939 250.021 35.7918 250.021 35.7918 251.219V253.615C35.7918 253.615 35.7918 254.812 34.5939 254.812H27.4064C27.4064 254.812 26.2085 254.812 26.2085 253.615V251.219C26.2085 251.219 26.2085 250.021 27.4064 250.021Z" stroke="white" stroke-linecap="round" stroke-linejoin="round"/>
<path d="M35.7915 252.417H38.1873C38.8228 252.417 39.4321 252.669 39.8814 253.118C40.3308 253.568 40.5832 254.177 40.5832 254.813V271.583C40.5832 272.219 40.3308 272.828 39.8814 273.278C39.4321 273.727 38.8228 273.979 38.1873 273.979H23.8123C23.1769 273.979 22.5675 273.727 22.1182 273.278C21.6689 272.828 21.4165 272.219 21.4165 271.583V254.813C21.4165 254.177 21.6689 253.568 22.1182 253.118C22.5675 252.669 23.1769 252.417 23.8123 252.417H26.2082" stroke="white" stroke-linecap="round" stroke-linejoin="round"/>
<path d="M32.1113 259H37.2224" stroke="#66B5B7" stroke-linecap="round" stroke-linejoin="round"/>
<path d="M27 259H27.012" stroke="#66B5B7" stroke-linecap="round" stroke-linejoin="round"/>
<path d="M32 263H37.1111" stroke="#66B5B7" stroke-linecap="round" stroke-linejoin="round"/>
<path d="M27 263H27.012" stroke="#66B5B7" stroke-linecap="round" stroke-linejoin="round"/>
<path d="M32.1113 267H37.2224" stroke="#66B5B7" stroke-linecap="round" stroke-linejoin="round"/>
<path d="M27 267H27.012" stroke="#66B5B7" stroke-linecap="round" stroke-linejoin="round"/>
<path d="M23.6464 113.354C23.8417 113.549 24.1583 113.549 24.3536 113.354L27.5355 110.172C27.7308 109.976 27.7308 109.66 27.5355 109.464C27.3403 109.269 27.0237 109.269 26.8284 109.464L24 112.293L21.1716 109.464C20.9763 109.269 20.6597 109.269 20.4645 109.464C20.2692 109.66 20.2692 109.976 20.4645 110.172L23.6464 113.354ZM24 64H23.5V113H24H24.5V64H24Z" fill="white"/>
<path d="M38.6464 63.6464C38.8417 63.4512 39.1583 63.4512 39.3536 63.6464L42.5355 66.8284C42.7308 67.0237 42.7308 67.3403 42.5355 67.5355C42.3403 67.7308 42.0237 67.7308 41.8284 67.5355L39 64.7071L36.1716 67.5355C35.9763 67.7308 35.6597 67.7308 35.4645 67.5355C35.2692 67.3403 35.2692 67.0237 35.4645 66.8284L38.6464 63.6464ZM39 113H38.5V64H39H39.5V113H39Z" fill="white"/>
<path d="M30.6464 234.354C30.8417 234.549 31.1583 234.549 31.3536 234.354L34.5355 231.172C34.7308 230.976 34.7308 230.66 34.5355 230.464C34.3403 230.269 34.0237 230.269 33.8284 230.464L31 233.293L28.1716 230.464C27.9763 230.269 27.6597 230.269 27.4645 230.464C27.2692 230.66 27.2692 230.976 27.4645 231.172L30.6464 234.354ZM31 185H30.5V234H31H31.5V185H31Z" fill="white"/>
<defs>
<clipPath id="clip0_482_92">
<rect width="7.4622" height="7.83825" fill="white" transform="translate(34.1885 145.036)"/>
</clipPath>
</defs>
</svg>
