<?xml version="1.0" encoding="UTF-8" standalone="no"?>
<svg
   viewBox="0 0 320 110"
   width="320"
   height="110"
   version="1.1"
   id="svg26"
   xmlns="http://www.w3.org/2000/svg"
   xmlns:svg="http://www.w3.org/2000/svg">
  <defs
     id="defs26" />
  <style
     id="style1">
    .a { fill: #ffffff; }
    .p { fill: #66B5B7; }
    text {
      font-family: monospace;
      font-size: 14px;
      white-space: pre;
    }
  </style>
  <g
     id="text6"
     style="font-size:14px;font-family:monospace;white-space:pre"
     aria-label="    █████╗ ██████╗ ███╗   ███╗">
    <path
       style="fill:#ffffff"
       d="M 43.605469,23.048828 V 7.2988281 h 8.401367 V 23.048828 Z m 8.401367,0 V 7.2988281 h 8.401367 V 23.048828 Z m 8.401367,0 V 7.2988281 H 68.80957 V 23.048828 Z m 8.401367,0 V 7.2988281 h 8.401367 V 23.048828 Z m 8.401367,0 V 7.2988281 h 8.401368 V 23.048828 Z m 12.072266,0 h -1.05957 v -6.282226 h -2.611328 v -1.059571 h 3.670898 z m 1.05957,0 v -8.401367 h -4.730468 v -1.05957 h 5.790039 v 9.460937 z"
       id="path26" />
    <path
       style="fill:#66b5b7"
       d="M 102.41504,23.048828 V 7.2988281 h 8.40137 V 23.048828 Z m 8.40137,0 V 7.2988281 h 8.40136 V 23.048828 Z m 8.40136,0 V 7.2988281 h 8.40137 V 23.048828 Z m 8.40137,0 V 7.2988281 h 8.40137 V 23.048828 Z m 8.40137,0 V 7.2988281 h 8.40136 V 23.048828 Z m 8.40136,0 V 7.2988281 h 8.40137 V 23.048828 Z m 12.07227,0 h -1.05957 v -6.282226 h -2.61133 v -1.059571 h 3.6709 z m 1.05957,0 v -8.401367 h -4.73047 v -1.05957 h 5.79004 v 9.460937 z"
       id="path27" />
    <path
       style="fill:#66b5b7"
       d="M 169.62598,23.048828 V 7.2988281 h 8.40136 V 23.048828 Z m 8.40136,0 V 7.2988281 h 8.40137 V 23.048828 Z m 8.40137,0 V 7.2988281 h 8.40137 V 23.048828 Z m 12.07227,0 h -1.05957 v -6.282226 h -2.61133 v -1.059571 h 3.6709 z m 1.05957,0 v -8.401367 h -4.73047 v -1.05957 h 5.79004 v 9.460937 z m 28.875,0 V 7.2988281 h 8.40136 V 23.048828 Z m 8.40136,0 V 7.2988281 h 8.40137 V 23.048828 Z m 8.40137,0 V 7.2988281 h 8.40137 V 23.048828 Z m 12.07227,0 h -1.05957 v -6.282226 h -2.61133 v -1.059571 h 3.6709 z m 1.05957,0 v -8.401367 h -4.73047 v -1.05957 h 5.79004 v 9.460937 z"
       id="path28" />
  </g>
  <g
     id="text10"
     style="font-size:14px;font-family:monospace;white-space:pre"
     aria-label="   ██╔══██╗██╔══██╗████╗ ████║">
    <path
       style="fill:#ffffff"
       d="m 35.204102,38.048828 v -15.75 h 8.401367 v 15.75 z m 8.401367,0 v -15.75 h 8.401367 v 15.75 z m 12.072265,0 h -1.05957 v -9.460937 h 5.790039 v 1.05957 h -4.730469 z m 1.059571,0 v -7.341797 h 3.670898 v 1.059571 h -2.611328 v 6.282226 z m 3.670898,-7.341797 h 8.401367 v 1.059571 h -8.401367 z m 0,-1.05957 v -1.05957 h 8.401367 v 1.05957 z m 8.401367,1.05957 h 8.401367 v 1.059571 H 68.80957 Z m 0,-1.05957 v -1.05957 h 8.401367 v 1.05957 z m 8.401367,8.401367 v -15.75 h 8.401368 v 15.75 z m 8.401368,0 v -15.75 h 8.401367 v 15.75 z m 12.072265,0 H 96.625 v -6.282226 h -2.611328 v -1.059571 h 3.670898 z m 1.059571,0 v -8.401367 h -4.730469 v -1.05957 h 5.790039 v 9.460937 z"
       id="path29" />
    <path
       style="fill:#66b5b7"
       d="m 102.41504,38.048828 v -15.75 h 8.40137 v 15.75 z m 8.40137,0 v -15.75 h 8.40136 v 15.75 z m 12.07226,0 h -1.05957 v -9.460937 h 5.79004 v 1.05957 h -4.73047 z m 1.05957,0 v -7.341797 h 3.6709 v 1.059571 h -2.61133 v 6.282226 z m 3.6709,-7.341797 h 8.40137 v 1.059571 h -8.40137 z m 0,-1.05957 v -1.05957 h 8.40137 v 1.05957 z m 8.40137,1.05957 h 8.40136 v 1.059571 h -8.40136 z m 0,-1.05957 v -1.05957 h 8.40136 v 1.05957 z m 8.40136,8.401367 v -15.75 h 8.40137 v 15.75 z m 8.40137,0 v -15.75 h 8.40137 v 15.75 z m 12.07227,0 h -1.05957 v -6.282226 h -2.61133 v -1.059571 h 3.6709 z m 1.05957,0 v -8.401367 h -4.73047 v -1.05957 h 5.79004 v 9.460937 z"
       id="path30" />
    <path
       style="fill:#66b5b7"
       d="m 169.62598,38.048828 v -15.75 h 8.40136 v 15.75 z m 8.40136,0 v -15.75 h 8.40137 v 15.75 z m 8.40137,0 v -15.75 h 8.40137 v 15.75 z m 8.40137,0 v -15.75 h 8.40137 v 15.75 z m 12.07226,0 h -1.05957 v -6.282226 h -2.61132 v -1.059571 h 3.67089 z m 1.05957,0 v -8.401367 h -4.73046 v -1.05957 h 5.79003 v 9.460937 z m 12.07227,0 v -15.75 h 8.40137 v 15.75 z m 8.40137,0 v -15.75 h 8.40136 v 15.75 z m 8.40136,0 v -15.75 h 8.40137 v 15.75 z m 8.40137,0 v -15.75 h 8.40137 v 15.75 z m 12.07227,0 h -1.05957 v -15.75 h 1.05957 z m 1.05957,-15.75 h 1.05957 v 15.75 h -1.05957 z"
       id="path31" />
  </g>
  <g
     id="text12"
     style="font-size:14px;font-family:monospace;white-space:pre"
     aria-label="█████████████████╔╝██╔████╔██║">
    <path
       style="fill:#66b5b7"
       d="m 10,53.048828 v -15.75 h 8.401367 v 15.75 z m 8.401367,0 v -15.75 h 8.401367 v 15.75 z m 8.401367,0 v -15.75 h 8.401368 v 15.75 z m 8.401368,0 v -15.75 h 8.401367 v 15.75 z m 8.401367,0 v -15.75 h 8.401367 v 15.75 z m 8.401367,0 v -15.75 h 8.401367 v 15.75 z m 8.401367,0 v -15.75 h 8.401367 v 15.75 z m 8.401367,0 v -15.75 h 8.401367 v 15.75 z m 8.401367,0 v -15.75 h 8.401368 v 15.75 z m 8.401368,0 v -15.75 h 8.401367 v 15.75 z m 8.401367,0 v -15.75 h 8.401368 v 15.75 z m 8.401368,0 v -15.75 h 8.40137 v 15.75 z m 8.40137,0 v -15.75 h 8.40136 v 15.75 z m 8.40136,0 v -15.75 h 8.40137 v 15.75 z m 8.40137,0 v -15.75 h 8.40137 v 15.75 z m 8.40137,0 v -15.75 h 8.40136 v 15.75 z m 8.40136,0 v -15.75 h 8.40137 v 15.75 z m 12.07227,0 h -1.05957 v -9.460937 h 5.79004 v 1.05957 h -4.73047 z m 1.05957,0 v -7.341797 h 3.6709 v 1.059571 h -2.61133 v 6.282226 z m 3.6709,-7.341797 h 4.73047 v -8.408203 h 1.05957 v 9.467774 h -5.79004 z m 0,-1.05957 v -1.05957 h 2.61133 v -6.289063 h 1.05957 v 7.341797 z"
       id="path32" />
    <path
       style="fill:#66b5b7"
       d="m 169.62598,53.048828 v -15.75 h 8.40136 v 15.75 z m 8.40136,0 v -15.75 h 8.40137 v 15.75 z m 12.07227,0 h -1.05957 v -9.460937 h 5.79004 v 1.05957 h -4.73047 z m 1.05957,0 v -7.341797 h 3.6709 v 1.059571 h -2.61133 v 6.282226 z m 3.6709,0 v -15.75 h 8.40137 v 15.75 z m 8.40137,0 v -15.75 h 8.40136 v 15.75 z m 8.40136,0 v -15.75 h 8.40137 v 15.75 z m 8.40137,0 v -15.75 h 8.40137 v 15.75 z m 12.07227,0 h -1.05958 v -9.460937 h 5.79004 v 1.05957 h -4.73046 z m 1.05957,0 v -7.341797 h 3.67089 v 1.059571 h -2.61132 v 6.282226 z m 3.67089,0 v -15.75 h 8.40137 v 15.75 z m 8.40137,0 v -15.75 h 8.40137 v 15.75 z m 12.07227,0 h -1.05957 v -15.75 h 1.05957 z m 1.05957,-15.75 h 1.05957 v 15.75 h -1.05957 z"
       id="path33" />
  </g>
  <g
     id="text18"
     style="font-size:14px;font-family:monospace;white-space:pre"
     aria-label="╚══██═══██═██╔═══╝ ██║╚██╔╝██║">
    <path
       style="fill:#66b5b7"
       d="m 12.611328,61.766602 v -9.467774 h 1.05957 v 8.408203 h 4.730469 v 1.059571 z m 5.790039,-2.119141 h -3.670898 v -7.348633 h 1.05957 v 6.289063 h 2.611328 z m 0,1.05957 h 8.401367 v 1.059571 h -8.401367 z m 0,-1.05957 v -1.05957 h 8.401367 v 1.05957 z m 8.401367,1.05957 h 8.401368 v 1.059571 h -8.401368 z m 0,-1.05957 v -1.05957 h 8.401368 v 1.05957 z"
       id="path34" />
    <path
       style="fill:#ffffff"
       d="m 35.204102,68.048828 v -15.75 h 8.401367 v 15.75 z m 8.401367,0 v -15.75 h 8.401367 v 15.75 z"
       id="path35" />
    <path
       style="fill:#66b5b7"
       d="m 52.006836,60.707031 h 8.401367 v 1.059571 h -8.401367 z m 0,-1.05957 v -1.05957 h 8.401367 v 1.05957 z m 8.401367,1.05957 h 8.401367 v 1.059571 h -8.401367 z m 0,-1.05957 v -1.05957 h 8.401367 v 1.05957 z m 8.401367,1.05957 h 8.401367 v 1.059571 H 68.80957 Z m 0,-1.05957 v -1.05957 h 8.401367 v 1.05957 z"
       id="path36" />
    <path
       style="fill:#ffffff"
       d="m 77.210937,68.048828 v -15.75 h 8.401368 v 15.75 z m 8.401368,0 v -15.75 h 8.401367 v 15.75 z"
       id="path37" />
    <path
       style="fill:#66b5b7"
       d="m 94.013672,60.707031 h 8.401368 v 1.059571 h -8.401368 z m 0,-1.05957 v -1.05957 h 8.401368 v 1.05957 z m 8.401368,8.401367 v -15.75 h 8.40137 v 15.75 z m 8.40137,0 v -15.75 h 8.40136 v 15.75 z m 12.07226,0 h -1.05957 v -9.460937 h 5.79004 v 1.05957 h -4.73047 z m 1.05957,0 v -7.341797 h 3.6709 v 1.059571 h -2.61133 v 6.282226 z m 3.6709,-7.341797 h 8.40137 v 1.059571 h -8.40137 z m 0,-1.05957 v -1.05957 h 8.40137 v 1.05957 z m 8.40137,1.05957 h 8.40136 v 1.059571 h -8.40136 z m 0,-1.05957 v -1.05957 h 8.40136 v 1.05957 z m 8.40136,1.05957 h 8.40137 v 1.059571 h -8.40137 z m 0,-1.05957 v -1.05957 h 8.40137 v 1.05957 z m 8.40137,1.05957 h 4.73047 v -8.408203 h 1.05957 v 9.467774 h -5.79004 z m 0,-1.05957 v -1.05957 h 2.61133 v -6.289063 h 1.05957 v 7.341797 z"
       id="path38" />
    <path
       style="fill:#66b5b7"
       d="m 169.62598,68.048828 v -15.75 h 8.40136 v 15.75 z m 8.40136,0 v -15.75 h 8.40137 v 15.75 z m 12.07227,0 h -1.05957 v -15.75 h 1.05957 z m 1.05957,-15.75 h 1.05957 v 15.75 h -1.05957 z m 6.28223,9.467774 v -9.467774 h 1.05957 v 8.408203 h 4.73047 v 1.059571 z m 5.79004,-2.119141 h -3.6709 v -7.348633 h 1.05957 v 6.289063 h 2.61133 z m 0,8.401367 v -15.75 h 8.40136 v 15.75 z m 8.40136,0 v -15.75 h 8.40137 v 15.75 z m 12.07227,0 h -1.05957 v -9.460937 h 5.79004 v 1.05957 h -4.73047 z m 1.05957,0 v -7.341797 h 3.6709 v 1.059571 h -2.61133 v 6.282226 z m 3.6709,-7.341797 h 4.73047 v -8.408203 h 1.05957 v 9.467774 h -5.79004 z m 0,-1.05957 v -1.05957 h 2.61132 v -6.289063 h 1.05958 v 7.341797 z m 8.40136,8.401367 v -15.75 h 8.40137 v 15.75 z m 8.40137,0 v -15.75 h 8.40137 v 15.75 z m 12.07227,0 h -1.05957 v -15.75 h 1.05957 z m 1.05957,-15.75 h 1.05957 v 15.75 h -1.05957 z"
       id="path39" />
  </g>
  <g
     id="text22"
     style="font-size:14px;font-family:monospace;white-space:pre"
     aria-label="   ██║  ██║██║     ██║ ╚═╝ ██║">
    <path
       style="fill:#ffffff"
       d="m 35.204102,83.048828 v -15.75 h 8.401367 v 15.75 z m 8.401367,0 v -15.75 h 8.401367 v 15.75 z m 12.072265,0 h -1.05957 v -15.75 h 1.05957 z m 1.059571,-15.75 h 1.05957 v 15.75 h -1.05957 z m 20.473632,15.75 v -15.75 h 8.401368 v 15.75 z m 8.401368,0 v -15.75 h 8.401367 v 15.75 z m 12.072265,0 H 96.625 v -15.75 h 1.05957 z m 1.059571,-15.75 h 1.05957 v 15.75 h -1.05957 z"
       id="path40" />
    <path
       style="fill:#66b5b7"
       d="m 102.41504,83.048828 v -15.75 h 8.40137 v 15.75 z m 8.40137,0 v -15.75 h 8.40136 v 15.75 z m 12.07226,0 h -1.05957 v -15.75 h 1.05957 z m 1.05957,-15.75 h 1.05957 v 15.75 h -1.05957 z"
       id="path41" />
    <path
       style="fill:#66b5b7"
       d="m 169.62598,83.048828 v -15.75 h 8.40136 v 15.75 z m 8.40136,0 v -15.75 h 8.40137 v 15.75 z m 12.07227,0 h -1.05957 v -15.75 h 1.05957 z m 1.05957,-15.75 h 1.05957 v 15.75 h -1.05957 z m 14.68359,9.467774 v -9.467774 h 1.05957 v 8.408203 h 4.73047 v 1.059571 z m 5.79004,-2.119141 h -3.6709 v -7.348633 h 1.05957 v 6.289063 h 2.61133 z m 0,1.05957 h 8.40137 v 1.059571 h -8.40137 z m 0,-1.05957 v -1.05957 h 8.40137 v 1.05957 z m 8.40137,1.05957 h 4.73047 v -8.408203 h 1.05957 v 9.467774 h -5.79004 z m 0,-1.05957 v -1.05957 h 2.61133 v -6.289063 h 1.05957 v 7.341797 z m 16.80273,8.401367 v -15.75 h 8.40137 v 15.75 z m 8.40137,0 v -15.75 h 8.40137 v 15.75 z m 12.07227,0 h -1.05957 v -15.75 h 1.05957 z m 1.05957,-15.75 h 1.05957 v 15.75 h -1.05957 z"
       id="path42" />
  </g>
  <g
     id="text26"
     style="font-size:14px;font-family:monospace;white-space:pre"
     aria-label="   ╚═╝  ╚═╝╚═╝     ╚═╝     ╚═╝">
    <path
       style="fill:#ffffff"
       d="M 37.81543,91.766602 V 82.298828 H 38.875 v 8.408203 h 4.730469 v 1.059571 z m 5.790039,-2.119141 H 39.93457 v -7.348633 h 1.059571 v 6.289063 h 2.611328 z m 0,1.05957 h 8.401367 v 1.059571 h -8.401367 z m 0,-1.05957 v -1.05957 h 8.401367 v 1.05957 z m 8.401367,1.05957 h 4.730469 v -8.408203 h 1.05957 v 9.467774 h -5.790039 z m 0,-1.05957 v -1.05957 h 2.611328 v -6.289063 h 1.05957 v 7.341797 z m 27.81543,2.119141 v -9.467774 h 1.05957 v 8.408203 h 4.730469 v 1.059571 z m 5.790039,-2.119141 h -3.670899 v -7.348633 h 1.059571 v 6.289063 h 2.611328 z m 0,1.05957 h 8.401367 v 1.059571 h -8.401367 z m 0,-1.05957 v -1.05957 h 8.401367 v 1.05957 z m 8.401367,1.05957 h 4.730469 v -8.408203 h 1.05957 v 9.467774 h -5.790039 z m 0,-1.05957 v -1.05957 H 96.625 v -6.289063 h 1.05957 v 7.341797 z"
       id="path43" />
    <path
       style="fill:#66b5b7"
       d="m 105.02637,91.766602 v -9.467774 h 1.05957 v 8.408203 h 4.73047 v 1.059571 z m 5.79004,-2.119141 h -3.6709 v -7.348633 h 1.05957 v 6.289063 h 2.61133 z m 0,1.05957 h 8.40136 v 1.059571 h -8.40136 z m 0,-1.05957 v -1.05957 h 8.40136 v 1.05957 z m 8.40136,1.05957 h 4.73047 v -8.408203 h 1.05957 v 9.467774 h -5.79004 z m 0,-1.05957 v -1.05957 h 2.61133 v -6.289063 h 1.05957 v 7.341797 z"
       id="path44" />
    <path
       style="fill:#66b5b7"
       d="m 172.2373,91.766602 v -9.467774 h 1.05957 v 8.408203 h 4.73047 v 1.059571 z m 5.79004,-2.119141 h -3.67089 v -7.348633 h 1.05957 v 6.289063 h 2.61132 z m 0,1.05957 h 8.40137 v 1.059571 h -8.40137 z m 0,-1.05957 v -1.05957 h 8.40137 v 1.05957 z m 8.40137,1.05957 h 4.73047 v -8.408203 h 1.05957 v 9.467774 h -5.79004 z m 0,-1.05957 v -1.05957 h 2.61133 v -6.289063 h 1.05957 v 7.341797 z m 53.01953,2.119141 v -9.467774 h 1.05957 v 8.408203 h 4.73047 v 1.059571 z m 5.79004,-2.119141 h -3.6709 v -7.348633 h 1.05957 v 6.289063 h 2.61133 z m 0,1.05957 h 8.40137 v 1.059571 h -8.40137 z m 0,-1.05957 v -1.05957 h 8.40137 v 1.05957 z m 8.40137,1.05957 h 4.73047 v -8.408203 h 1.05957 v 9.467774 h -5.79004 z m 0,-1.05957 v -1.05957 h 2.61133 v -6.289063 h 1.05957 v 7.341797 z"
       id="path45" />
  </g>
</svg>
