<svg width="304" height="56" viewBox="0 0 304 56" fill="none" xmlns="http://www.w3.org/2000/svg">
<path d="M121 12C121 5.37258 126.373 0 133 0H171C177.627 0 183 5.37258 183 12V44C183 50.6274 177.627 56 171 56H133C126.373 56 121 50.6274 121 44V12Z" fill="#3C3C3B"/>
<path d="M130.512 39.2727C130.491 39.0928 130.405 38.9531 130.253 38.8537C130.102 38.7543 129.916 38.7045 129.696 38.7045C129.535 38.7045 129.394 38.7306 129.273 38.7827C129.154 38.8348 129.06 38.9064 128.993 38.9975C128.926 39.0887 128.893 39.1922 128.893 39.3082C128.893 39.4053 128.916 39.4888 128.962 39.5586C129.01 39.6272 129.07 39.6847 129.144 39.7308C129.217 39.7758 129.294 39.8131 129.374 39.8427C129.455 39.8711 129.529 39.8942 129.596 39.9119L129.966 40.0114C130.06 40.0362 130.166 40.0705 130.282 40.1143C130.399 40.1581 130.511 40.2179 130.617 40.2937C130.725 40.3683 130.814 40.4641 130.884 40.5813C130.953 40.6985 130.988 40.8423 130.988 41.0128C130.988 41.2093 130.937 41.3868 130.834 41.5455C130.732 41.7041 130.583 41.8301 130.386 41.9237C130.191 42.0172 129.954 42.0639 129.674 42.0639C129.414 42.0639 129.188 42.0219 128.998 41.9379C128.809 41.8538 128.659 41.7366 128.55 41.5863C128.443 41.436 128.382 41.2614 128.368 41.0625H128.822C128.834 41.1998 128.88 41.3134 128.961 41.4034C129.042 41.4922 129.145 41.5585 129.27 41.6023C129.395 41.6449 129.53 41.6662 129.674 41.6662C129.842 41.6662 129.993 41.639 130.127 41.5845C130.261 41.5289 130.367 41.4519 130.445 41.3537C130.523 41.2543 130.562 41.1383 130.562 41.0057C130.562 40.8849 130.528 40.7867 130.461 40.7109C130.394 40.6352 130.305 40.5736 130.195 40.5263C130.085 40.4789 129.966 40.4375 129.838 40.402L129.39 40.2741C129.106 40.1925 128.881 40.0759 128.716 39.9244C128.55 39.7728 128.467 39.5746 128.467 39.3295C128.467 39.1259 128.522 38.9484 128.632 38.7969C128.743 38.6442 128.893 38.5258 129.08 38.4418C129.268 38.3565 129.478 38.3139 129.71 38.3139C129.944 38.3139 130.153 38.3559 130.335 38.44C130.517 38.5228 130.662 38.6365 130.768 38.7809C130.876 38.9253 130.933 39.0893 130.939 39.2727H130.512ZM132.799 42.0568C132.536 42.0568 132.309 41.9988 132.119 41.8828C131.93 41.7656 131.783 41.6023 131.68 41.3928C131.579 41.1821 131.528 40.937 131.528 40.6577C131.528 40.3783 131.579 40.1321 131.68 39.919C131.783 39.7048 131.927 39.5379 132.11 39.4183C132.295 39.2976 132.51 39.2372 132.756 39.2372C132.898 39.2372 133.039 39.2609 133.177 39.3082C133.316 39.3556 133.442 39.4325 133.555 39.5391C133.669 39.6444 133.76 39.7841 133.827 39.9581C133.894 40.1321 133.928 40.3464 133.928 40.6009V40.7784H131.826V40.4162H133.502C133.502 40.2623 133.471 40.125 133.41 40.0043C133.349 39.8835 133.263 39.7882 133.151 39.7184C133.039 39.6486 132.908 39.6136 132.756 39.6136C132.589 39.6136 132.445 39.6551 132.323 39.7379C132.202 39.8196 132.109 39.9261 132.044 40.0575C131.979 40.1889 131.947 40.3298 131.947 40.4801V40.7216C131.947 40.9276 131.982 41.1022 132.053 41.2454C132.125 41.3874 132.225 41.4957 132.353 41.5703C132.481 41.6437 132.63 41.6804 132.799 41.6804C132.909 41.6804 133.008 41.665 133.097 41.6342C133.187 41.6023 133.265 41.5549 133.33 41.4922C133.395 41.4283 133.445 41.349 133.481 41.2543L133.886 41.3679C133.843 41.5052 133.771 41.6259 133.671 41.7301C133.57 41.8331 133.446 41.9136 133.298 41.9716C133.15 42.0284 132.984 42.0568 132.799 42.0568ZM135.752 39.2727V39.6278H134.338V39.2727H135.752ZM134.75 38.6193H135.169V41.2188C135.169 41.3371 135.187 41.4259 135.221 41.4851C135.256 41.5431 135.301 41.5821 135.356 41.6023C135.411 41.6212 135.47 41.6307 135.532 41.6307C135.578 41.6307 135.616 41.6283 135.645 41.6236C135.675 41.6177 135.698 41.6129 135.716 41.6094L135.801 41.9858C135.773 41.9964 135.733 42.0071 135.682 42.0178C135.632 42.0296 135.567 42.0355 135.489 42.0355C135.371 42.0355 135.255 42.0101 135.141 41.9592C135.028 41.9083 134.935 41.8307 134.86 41.7266C134.787 41.6224 134.75 41.491 134.75 41.3324V38.6193ZM138.101 40.8849V39.2727H138.52V42H138.101V41.5384H138.072C138.008 41.6768 137.909 41.7946 137.774 41.8917C137.639 41.9876 137.469 42.0355 137.263 42.0355C137.092 42.0355 136.941 41.9982 136.808 41.9237C136.676 41.8479 136.571 41.7343 136.496 41.5827C136.42 41.43 136.382 41.2377 136.382 41.0057V39.2727H136.801V40.9773C136.801 41.1761 136.857 41.3348 136.968 41.4531C137.08 41.5715 137.224 41.6307 137.398 41.6307C137.502 41.6307 137.608 41.604 137.716 41.5508C137.824 41.4975 137.916 41.4158 137.989 41.3058C138.064 41.1957 138.101 41.0554 138.101 40.8849ZM139.287 43.0227V39.2727H139.692V39.706H139.742C139.773 39.6586 139.815 39.5982 139.87 39.5249C139.925 39.4503 140.005 39.384 140.108 39.326C140.212 39.2668 140.353 39.2372 140.53 39.2372C140.76 39.2372 140.962 39.2946 141.137 39.4094C141.313 39.5243 141.449 39.687 141.548 39.8977C141.646 40.1084 141.695 40.357 141.695 40.6435C141.695 40.9323 141.646 41.1826 141.548 41.3945C141.449 41.6052 141.313 41.7686 141.139 41.8846C140.965 41.9994 140.765 42.0568 140.537 42.0568C140.362 42.0568 140.222 42.0278 140.117 41.9698C140.011 41.9106 139.93 41.8437 139.873 41.7692C139.816 41.6934 139.773 41.6307 139.742 41.581H139.706V43.0227H139.287ZM139.699 40.6364C139.699 40.8423 139.729 41.024 139.79 41.1815C139.85 41.3377 139.938 41.4602 140.054 41.549C140.17 41.6366 140.312 41.6804 140.481 41.6804C140.656 41.6804 140.802 41.6342 140.919 41.5419C141.037 41.4484 141.126 41.3229 141.185 41.1655C141.246 41.0069 141.276 40.8305 141.276 40.6364C141.276 40.4446 141.246 40.2718 141.187 40.1179C141.129 39.9628 141.041 39.8403 140.923 39.7504C140.805 39.6592 140.658 39.6136 140.481 39.6136C140.31 39.6136 140.167 39.6568 140.051 39.7433C139.935 39.8285 139.847 39.948 139.788 40.1019C139.729 40.2546 139.699 40.4328 139.699 40.6364ZM143.946 42H143.485L144.82 38.3636H145.275L146.61 42H146.148L145.061 38.9389H145.033L143.946 42ZM144.117 40.5795H145.978V40.9702H144.117V40.5795ZM148.22 43.0795C148.018 43.0795 147.844 43.0535 147.698 43.0014C147.553 42.9505 147.431 42.883 147.334 42.799C147.238 42.7161 147.162 42.6274 147.105 42.5327L147.439 42.2983C147.477 42.348 147.525 42.4048 147.583 42.4688C147.641 42.5339 147.72 42.5901 147.821 42.6374C147.923 42.686 148.056 42.7102 148.22 42.7102C148.44 42.7102 148.622 42.657 148.765 42.5504C148.909 42.4439 148.98 42.277 148.98 42.0497V41.4957H148.945C148.914 41.5455 148.87 41.607 148.813 41.6804C148.758 41.7526 148.677 41.8171 148.572 41.8739C148.468 41.9296 148.327 41.9574 148.149 41.9574C147.929 41.9574 147.731 41.9053 147.556 41.8011C147.382 41.697 147.244 41.5455 147.142 41.3466C147.042 41.1477 146.992 40.9062 146.992 40.6222C146.992 40.3428 147.041 40.0996 147.139 39.8924C147.237 39.6841 147.374 39.5231 147.549 39.4094C147.724 39.2946 147.927 39.2372 148.156 39.2372C148.334 39.2372 148.475 39.2668 148.579 39.326C148.684 39.384 148.765 39.4503 148.82 39.5249C148.877 39.5982 148.921 39.6586 148.952 39.706H148.994V39.2727H149.399V42.0781C149.399 42.3125 149.346 42.5031 149.239 42.6499C149.134 42.7978 148.992 42.9061 148.813 42.9748C148.636 43.0446 148.438 43.0795 148.22 43.0795ZM148.206 41.581C148.374 41.581 148.516 41.5425 148.632 41.4656C148.748 41.3886 148.836 41.2779 148.897 41.1335C148.957 40.9891 148.987 40.8163 148.987 40.6151C148.987 40.4186 148.958 40.2451 148.898 40.0948C148.839 39.9445 148.752 39.8267 148.636 39.7415C148.52 39.6562 148.376 39.6136 148.206 39.6136C148.028 39.6136 147.88 39.6586 147.762 39.7486C147.645 39.8385 147.557 39.9593 147.498 40.1108C147.44 40.2623 147.411 40.4304 147.411 40.6151C147.411 40.8045 147.44 40.9719 147.499 41.1175C147.56 41.262 147.648 41.3756 147.766 41.4585C147.884 41.5401 148.031 41.581 148.206 41.581ZM151.31 42.0568C151.047 42.0568 150.82 41.9988 150.63 41.8828C150.44 41.7656 150.294 41.6023 150.191 41.3928C150.089 41.1821 150.038 40.937 150.038 40.6577C150.038 40.3783 150.089 40.1321 150.191 39.919C150.294 39.7048 150.437 39.5379 150.621 39.4183C150.805 39.2976 151.021 39.2372 151.267 39.2372C151.409 39.2372 151.549 39.2609 151.688 39.3082C151.826 39.3556 151.952 39.4325 152.066 39.5391C152.18 39.6444 152.27 39.7841 152.338 39.9581C152.405 40.1321 152.439 40.3464 152.439 40.6009V40.7784H150.337V40.4162H152.013C152.013 40.2623 151.982 40.125 151.92 40.0043C151.86 39.8835 151.774 39.7882 151.661 39.7184C151.55 39.6486 151.419 39.6136 151.267 39.6136C151.1 39.6136 150.956 39.6551 150.834 39.7379C150.713 39.8196 150.62 39.9261 150.555 40.0575C150.49 40.1889 150.457 40.3298 150.457 40.4801V40.7216C150.457 40.9276 150.493 41.1022 150.564 41.2454C150.636 41.3874 150.736 41.4957 150.864 41.5703C150.992 41.6437 151.14 41.6804 151.31 41.6804C151.42 41.6804 151.519 41.665 151.608 41.6342C151.698 41.6023 151.775 41.5549 151.841 41.4922C151.906 41.4283 151.956 41.349 151.992 41.2543L152.396 41.3679C152.354 41.5052 152.282 41.6259 152.182 41.7301C152.081 41.8331 151.957 41.9136 151.809 41.9716C151.661 42.0284 151.494 42.0568 151.31 42.0568ZM153.495 40.3594V42H153.076V39.2727H153.481V39.6989H153.517C153.581 39.5604 153.678 39.4491 153.808 39.3651C153.938 39.2798 154.106 39.2372 154.312 39.2372C154.497 39.2372 154.658 39.2751 154.797 39.3509C154.935 39.4254 155.043 39.5391 155.12 39.6918C155.197 39.8433 155.235 40.035 155.235 40.267V42H154.816V40.2955C154.816 40.0812 154.761 39.9143 154.65 39.7947C154.538 39.674 154.386 39.6136 154.191 39.6136C154.058 39.6136 153.938 39.6426 153.833 39.7006C153.729 39.7586 153.646 39.8433 153.586 39.9545C153.526 40.0658 153.495 40.2008 153.495 40.3594ZM157.187 39.2727V39.6278H155.774V39.2727H157.187ZM156.186 38.6193H156.605V41.2188C156.605 41.3371 156.622 41.4259 156.656 41.4851C156.692 41.5431 156.737 41.5821 156.791 41.6023C156.847 41.6212 156.906 41.6307 156.967 41.6307C157.013 41.6307 157.051 41.6283 157.081 41.6236C157.11 41.6177 157.134 41.6129 157.152 41.6094L157.237 41.9858C157.209 41.9964 157.169 42.0071 157.118 42.0178C157.067 42.0296 157.003 42.0355 156.924 42.0355C156.806 42.0355 156.69 42.0101 156.576 41.9592C156.464 41.9083 156.371 41.8307 156.296 41.7266C156.223 41.6224 156.186 41.491 156.186 41.3324V38.6193ZM160.325 43.0795C160.122 43.0795 159.948 43.0535 159.803 43.0014C159.657 42.9505 159.536 42.883 159.439 42.799C159.343 42.7161 159.266 42.6274 159.21 42.5327L159.543 42.2983C159.581 42.348 159.629 42.4048 159.687 42.4688C159.745 42.5339 159.825 42.5901 159.925 42.6374C160.027 42.686 160.16 42.7102 160.325 42.7102C160.545 42.7102 160.727 42.657 160.87 42.5504C161.013 42.4439 161.085 42.277 161.085 42.0497V41.4957H161.049C161.018 41.5455 160.975 41.607 160.918 41.6804C160.862 41.7526 160.782 41.8171 160.676 41.8739C160.572 41.9296 160.431 41.9574 160.254 41.9574C160.034 41.9574 159.836 41.9053 159.661 41.8011C159.487 41.697 159.349 41.5455 159.247 41.3466C159.146 41.1477 159.096 40.9062 159.096 40.6222C159.096 40.3428 159.145 40.0996 159.243 39.8924C159.342 39.6841 159.478 39.5231 159.654 39.4094C159.829 39.2946 160.031 39.2372 160.261 39.2372C160.438 39.2372 160.579 39.2668 160.683 39.326C160.789 39.384 160.869 39.4503 160.925 39.5249C160.982 39.5982 161.025 39.6586 161.056 39.706H161.099V39.2727H161.504V42.0781C161.504 42.3125 161.45 42.5031 161.344 42.6499C161.239 42.7978 161.096 42.9061 160.918 42.9748C160.74 43.0446 160.543 43.0795 160.325 43.0795ZM160.311 41.581C160.479 41.581 160.621 41.5425 160.737 41.4656C160.853 41.3886 160.941 41.2779 161.001 41.1335C161.062 40.9891 161.092 40.8163 161.092 40.6151C161.092 40.4186 161.062 40.2451 161.003 40.0948C160.944 39.9445 160.856 39.8267 160.74 39.7415C160.624 39.6562 160.481 39.6136 160.311 39.6136C160.133 39.6136 159.985 39.6586 159.867 39.7486C159.749 39.8385 159.661 39.9593 159.602 40.1108C159.544 40.2623 159.515 40.4304 159.515 40.6151C159.515 40.8045 159.545 40.9719 159.604 41.1175C159.664 41.262 159.753 41.3756 159.87 41.4585C159.989 41.5401 160.135 41.581 160.311 41.581ZM163.073 42.0639C162.9 42.0639 162.744 42.0314 162.603 41.9663C162.462 41.9 162.35 41.8047 162.267 41.6804C162.184 41.5549 162.143 41.4034 162.143 41.2259C162.143 41.0696 162.174 40.9429 162.235 40.8459C162.297 40.7476 162.379 40.6707 162.482 40.6151C162.585 40.5594 162.699 40.518 162.823 40.4908C162.948 40.4624 163.074 40.4399 163.201 40.4233C163.367 40.402 163.501 40.386 163.604 40.3754C163.708 40.3635 163.784 40.344 163.831 40.3168C163.88 40.2895 163.904 40.2422 163.904 40.1747V40.1605C163.904 39.9853 163.856 39.8492 163.76 39.7521C163.666 39.6551 163.522 39.6065 163.329 39.6065C163.129 39.6065 162.972 39.6503 162.858 39.7379C162.745 39.8255 162.665 39.919 162.619 40.0185L162.221 39.8764C162.292 39.7107 162.387 39.5817 162.505 39.4893C162.625 39.3958 162.755 39.3307 162.896 39.294C163.038 39.2562 163.177 39.2372 163.315 39.2372C163.402 39.2372 163.503 39.2479 163.617 39.2692C163.731 39.2893 163.842 39.3313 163.949 39.3952C164.056 39.4592 164.146 39.5556 164.217 39.6847C164.288 39.8137 164.323 39.9865 164.323 40.2031V42H163.904V41.6307H163.883C163.855 41.6899 163.807 41.7532 163.741 41.8207C163.675 41.8881 163.586 41.9455 163.476 41.9929C163.366 42.0402 163.232 42.0639 163.073 42.0639ZM163.137 41.6875C163.303 41.6875 163.443 41.6549 163.556 41.5898C163.671 41.5247 163.757 41.4407 163.815 41.3377C163.875 41.2347 163.904 41.1264 163.904 41.0128V40.6293C163.886 40.6506 163.847 40.6701 163.787 40.6879C163.728 40.7044 163.659 40.7192 163.581 40.7322C163.504 40.7441 163.429 40.7547 163.356 40.7642C163.283 40.7725 163.225 40.7796 163.18 40.7855C163.071 40.7997 162.969 40.8228 162.874 40.8548C162.781 40.8855 162.705 40.9323 162.647 40.995C162.59 41.0566 162.562 41.1406 162.562 41.2472C162.562 41.3928 162.616 41.5028 162.723 41.5774C162.832 41.6508 162.97 41.6875 163.137 41.6875ZM166.274 39.2727V39.6278H164.861V39.2727H166.274ZM165.273 38.6193H165.692V41.2188C165.692 41.3371 165.709 41.4259 165.743 41.4851C165.779 41.5431 165.824 41.5821 165.878 41.6023C165.934 41.6212 165.992 41.6307 166.054 41.6307C166.1 41.6307 166.138 41.6283 166.168 41.6236C166.197 41.6177 166.221 41.6129 166.239 41.6094L166.324 41.9858C166.295 41.9964 166.256 42.0071 166.205 42.0178C166.154 42.0296 166.09 42.0355 166.011 42.0355C165.893 42.0355 165.777 42.0101 165.663 41.9592C165.551 41.9083 165.457 41.8307 165.383 41.7266C165.309 41.6224 165.273 41.491 165.273 41.3324V38.6193ZM167.382 40.3594V42H166.963V38.3636H167.382V39.6989H167.418C167.482 39.558 167.577 39.4461 167.705 39.3633C167.834 39.2792 168.006 39.2372 168.22 39.2372C168.406 39.2372 168.569 39.2745 168.708 39.3491C168.848 39.4225 168.956 39.5355 169.033 39.6882C169.112 39.8397 169.151 40.0327 169.151 40.267V42H168.732V40.2955C168.732 40.0788 168.675 39.9113 168.563 39.793C168.452 39.6734 168.297 39.6136 168.099 39.6136C167.962 39.6136 167.839 39.6426 167.73 39.7006C167.622 39.7586 167.537 39.8433 167.474 39.9545C167.413 40.0658 167.382 40.2008 167.382 40.3594ZM171.061 42.0568C170.798 42.0568 170.571 41.9988 170.381 41.8828C170.191 41.7656 170.045 41.6023 169.942 41.3928C169.84 41.1821 169.789 40.937 169.789 40.6577C169.789 40.3783 169.84 40.1321 169.942 39.919C170.045 39.7048 170.188 39.5379 170.372 39.4183C170.556 39.2976 170.772 39.2372 171.018 39.2372C171.16 39.2372 171.3 39.2609 171.439 39.3082C171.577 39.3556 171.703 39.4325 171.817 39.5391C171.931 39.6444 172.021 39.7841 172.089 39.9581C172.156 40.1321 172.19 40.3464 172.19 40.6009V40.7784H170.088V40.4162H171.764C171.764 40.2623 171.733 40.125 171.671 40.0043C171.611 39.8835 171.525 39.7882 171.412 39.7184C171.301 39.6486 171.17 39.6136 171.018 39.6136C170.851 39.6136 170.707 39.6551 170.585 39.7379C170.464 39.8196 170.371 39.9261 170.306 40.0575C170.241 40.1889 170.208 40.3298 170.208 40.4801V40.7216C170.208 40.9276 170.244 41.1022 170.315 41.2454C170.387 41.3874 170.487 41.4957 170.615 41.5703C170.743 41.6437 170.891 41.6804 171.061 41.6804C171.171 41.6804 171.27 41.665 171.359 41.6342C171.449 41.6023 171.526 41.5549 171.592 41.4922C171.657 41.4283 171.707 41.349 171.742 41.2543L172.147 41.3679C172.105 41.5052 172.033 41.6259 171.932 41.7301C171.832 41.8331 171.708 41.9136 171.56 41.9716C171.412 42.0284 171.245 42.0568 171.061 42.0568ZM172.827 42V39.2727H173.232V39.6847H173.261C173.31 39.5497 173.4 39.4402 173.53 39.3562C173.661 39.2721 173.807 39.2301 173.971 39.2301C174.002 39.2301 174.04 39.2307 174.086 39.2319C174.132 39.2331 174.167 39.2348 174.191 39.2372V39.6634C174.177 39.6598 174.144 39.6545 174.093 39.6474C174.044 39.6391 173.991 39.6349 173.935 39.6349C173.803 39.6349 173.684 39.6628 173.58 39.7184C173.477 39.7728 173.396 39.8486 173.335 39.9457C173.276 40.0415 173.246 40.151 173.246 40.2741V42H172.827ZM176.62 39.8835L176.243 39.9901C176.219 39.9273 176.185 39.8664 176.138 39.8072C176.093 39.7468 176.032 39.6971 175.954 39.658C175.876 39.619 175.776 39.5994 175.654 39.5994C175.487 39.5994 175.348 39.6379 175.236 39.7148C175.126 39.7906 175.071 39.8871 175.071 40.0043C175.071 40.1084 175.109 40.1907 175.185 40.2511C175.261 40.3114 175.379 40.3617 175.54 40.402L175.945 40.5014C176.189 40.5606 176.37 40.6512 176.49 40.7731C176.609 40.8938 176.669 41.0495 176.669 41.2401C176.669 41.3963 176.624 41.536 176.534 41.6591C176.446 41.7822 176.321 41.8793 176.161 41.9503C176.002 42.0213 175.816 42.0568 175.604 42.0568C175.326 42.0568 175.096 41.9964 174.913 41.8757C174.731 41.755 174.616 41.5786 174.567 41.3466L174.965 41.2472C175.003 41.3939 175.074 41.504 175.18 41.5774C175.286 41.6508 175.425 41.6875 175.597 41.6875C175.792 41.6875 175.947 41.6461 176.062 41.5632C176.178 41.4792 176.236 41.3786 176.236 41.2614C176.236 41.1667 176.203 41.0874 176.137 41.0234C176.07 40.9583 175.968 40.9098 175.831 40.8778L175.377 40.7713C175.127 40.7121 174.943 40.6204 174.826 40.4961C174.71 40.3706 174.652 40.2138 174.652 40.0256C174.652 39.8717 174.695 39.7356 174.782 39.6172C174.869 39.4988 174.988 39.4059 175.139 39.3384C175.29 39.271 175.462 39.2372 175.654 39.2372C175.924 39.2372 176.135 39.2964 176.289 39.4148C176.444 39.5331 176.554 39.6894 176.62 39.8835ZM146.523 45.5H146.083C146.057 45.3733 146.011 45.2621 145.946 45.1662C145.882 45.0703 145.804 44.9898 145.712 44.9247C145.621 44.8584 145.519 44.8087 145.408 44.7756C145.297 44.7424 145.181 44.7259 145.06 44.7259C144.84 44.7259 144.641 44.7815 144.462 44.8928C144.284 45.004 144.143 45.168 144.037 45.3846C143.933 45.6012 143.881 45.867 143.881 46.1818C143.881 46.4967 143.933 46.7624 144.037 46.979C144.143 47.1957 144.284 47.3596 144.462 47.4709C144.641 47.5821 144.84 47.6378 145.06 47.6378C145.181 47.6378 145.297 47.6212 145.408 47.5881C145.519 47.5549 145.621 47.5058 145.712 47.4407C145.804 47.3744 145.882 47.2933 145.946 47.1974C146.011 47.1004 146.057 46.9891 146.083 46.8636H146.523C146.49 47.0495 146.43 47.2158 146.342 47.3626C146.255 47.5094 146.146 47.6342 146.015 47.7372C145.885 47.839 145.739 47.9165 145.577 47.9698C145.416 48.0231 145.244 48.0497 145.06 48.0497C144.75 48.0497 144.474 47.974 144.233 47.8224C143.991 47.6709 143.801 47.4555 143.663 47.1761C143.524 46.8968 143.455 46.5653 143.455 46.1818C143.455 45.7983 143.524 45.4669 143.663 45.1875C143.801 44.9081 143.991 44.6927 144.233 44.5412C144.474 44.3897 144.75 44.3139 145.06 44.3139C145.244 44.3139 145.416 44.3406 145.577 44.3938C145.739 44.4471 145.885 44.5252 146.015 44.6282C146.146 44.73 146.255 44.8543 146.342 45.0011C146.43 45.1467 146.49 45.313 146.523 45.5ZM148.286 48.0568C148.04 48.0568 147.824 47.9982 147.638 47.881C147.453 47.7638 147.309 47.5999 147.205 47.3892C147.102 47.1785 147.05 46.9323 147.05 46.6506C147.05 46.3665 147.102 46.1185 147.205 45.9066C147.309 45.6947 147.453 45.5302 147.638 45.413C147.824 45.2958 148.04 45.2372 148.286 45.2372C148.532 45.2372 148.748 45.2958 148.932 45.413C149.118 45.5302 149.262 45.6947 149.365 45.9066C149.47 46.1185 149.522 46.3665 149.522 46.6506C149.522 46.9323 149.47 47.1785 149.365 47.3892C149.262 47.5999 149.118 47.7638 148.932 47.881C148.748 47.9982 148.532 48.0568 148.286 48.0568ZM148.286 47.6804C148.473 47.6804 148.627 47.6325 148.748 47.5366C148.868 47.4407 148.958 47.3146 149.016 47.1584C149.074 47.0021 149.103 46.8329 149.103 46.6506C149.103 46.4683 149.074 46.2984 149.016 46.141C148.958 45.9835 148.868 45.8563 148.748 45.7592C148.627 45.6622 148.473 45.6136 148.286 45.6136C148.099 45.6136 147.945 45.6622 147.824 45.7592C147.704 45.8563 147.614 45.9835 147.556 46.141C147.498 46.2984 147.469 46.4683 147.469 46.6506C147.469 46.8329 147.498 47.0021 147.556 47.1584C147.614 47.3146 147.704 47.4407 147.824 47.5366C147.945 47.6325 148.099 47.6804 148.286 47.6804ZM150.58 46.3594V48H150.161V45.2727H150.566V45.6989H150.602C150.666 45.5604 150.763 45.4491 150.893 45.3651C151.023 45.2798 151.191 45.2372 151.397 45.2372C151.582 45.2372 151.743 45.2751 151.882 45.3509C152.02 45.4254 152.128 45.5391 152.205 45.6918C152.282 45.8433 152.32 46.035 152.32 46.267V48H151.901V46.2955C151.901 46.0812 151.846 45.9143 151.735 45.7947C151.623 45.674 151.471 45.6136 151.276 45.6136C151.143 45.6136 151.023 45.6426 150.918 45.7006C150.814 45.7586 150.731 45.8433 150.671 45.9545C150.611 46.0658 150.58 46.2008 150.58 46.3594ZM154.272 45.2727V45.6278H152.859V45.2727H154.272ZM153.271 44.6193H153.69V47.2188C153.69 47.3371 153.707 47.4259 153.741 47.4851C153.777 47.5431 153.822 47.5821 153.876 47.6023C153.932 47.6212 153.991 47.6307 154.052 47.6307C154.098 47.6307 154.136 47.6283 154.166 47.6236C154.195 47.6177 154.219 47.6129 154.237 47.6094L154.322 47.9858C154.294 47.9964 154.254 48.0071 154.203 48.0178C154.152 48.0296 154.088 48.0355 154.009 48.0355C153.891 48.0355 153.775 48.0101 153.661 47.9592C153.549 47.9083 153.455 47.8307 153.381 47.7266C153.308 47.6224 153.271 47.491 153.271 47.3324V44.6193ZM156.017 48.0568C155.754 48.0568 155.527 47.9988 155.337 47.8828C155.147 47.7656 155.001 47.6023 154.898 47.3928C154.796 47.1821 154.745 46.937 154.745 46.6577C154.745 46.3783 154.796 46.1321 154.898 45.919C155.001 45.7048 155.144 45.5379 155.328 45.4183C155.512 45.2976 155.728 45.2372 155.974 45.2372C156.116 45.2372 156.256 45.2609 156.395 45.3082C156.533 45.3556 156.659 45.4325 156.773 45.5391C156.887 45.6444 156.977 45.7841 157.045 45.9581C157.112 46.1321 157.146 46.3464 157.146 46.6009V46.7784H155.044V46.4162H156.72C156.72 46.2623 156.689 46.125 156.628 46.0043C156.567 45.8835 156.481 45.7882 156.368 45.7184C156.257 45.6486 156.126 45.6136 155.974 45.6136C155.807 45.6136 155.663 45.6551 155.541 45.7379C155.42 45.8196 155.327 45.9261 155.262 46.0575C155.197 46.1889 155.164 46.3298 155.164 46.4801V46.7216C155.164 46.9276 155.2 47.1022 155.271 47.2454C155.343 47.3874 155.443 47.4957 155.571 47.5703C155.699 47.6437 155.847 47.6804 156.017 47.6804C156.127 47.6804 156.226 47.665 156.315 47.6342C156.405 47.6023 156.483 47.5549 156.548 47.4922C156.613 47.4283 156.663 47.349 156.699 47.2543L157.103 47.3679C157.061 47.5052 156.989 47.6259 156.889 47.7301C156.788 47.8331 156.664 47.9136 156.516 47.9716C156.368 48.0284 156.201 48.0568 156.017 48.0568ZM158.023 45.2727L158.676 46.3878L159.33 45.2727H159.812L158.932 46.6364L159.812 48H159.33L158.676 46.9418L158.023 48H157.54L158.406 46.6364L157.54 45.2727H158.023ZM161.596 45.2727V45.6278H160.183V45.2727H161.596ZM160.595 44.6193H161.014V47.2188C161.014 47.3371 161.031 47.4259 161.066 47.4851C161.101 47.5431 161.146 47.5821 161.201 47.6023C161.256 47.6212 161.315 47.6307 161.376 47.6307C161.422 47.6307 161.46 47.6283 161.49 47.6236C161.52 47.6177 161.543 47.6129 161.561 47.6094L161.646 47.9858C161.618 47.9964 161.578 48.0071 161.527 48.0178C161.476 48.0296 161.412 48.0355 161.334 48.0355C161.215 48.0355 161.099 48.0101 160.986 47.9592C160.873 47.9083 160.78 47.8307 160.705 47.7266C160.632 47.6224 160.595 47.491 160.595 47.3324V44.6193Z" fill="white"/>
<path d="M143.995 8.5H160.005C164.19 8.50005 167.5 11.5779 167.5 15.2783V26.7217C167.5 30.4221 164.19 33.5 160.005 33.5H143.995C139.81 33.5 136.5 30.4221 136.5 26.7217V15.2783C136.5 11.5779 139.81 8.50005 143.995 8.5Z" fill="#242424" fill-opacity="0.5" stroke="#C5C5C5"/>
<path d="M151.724 15.4081V12.0994H148.574" stroke="#C5C5C5" stroke-linecap="round" stroke-linejoin="round"/>
<path d="M147.136 15.48H156.585C156.585 15.48 158.16 15.48 158.16 17.1343V23.7517C158.16 23.7517 158.16 25.4061 156.585 25.4061H147.136C147.136 25.4061 145.561 25.4061 145.561 23.7517V17.1343C145.561 17.1343 145.561 15.48 147.136 15.48Z" stroke="#C5C5C5" stroke-linecap="round" stroke-linejoin="round"/>
<path d="M143.849 20.3711H145.424" stroke="#C5C5C5" stroke-linecap="round" stroke-linejoin="round"/>
<path d="M158.023 20.3711H159.598" stroke="#C5C5C5" stroke-linecap="round" stroke-linejoin="round"/>
<path d="M154.086 19.5439V21.1983" stroke="#C5C5C5" stroke-linecap="round" stroke-linejoin="round"/>
<path d="M149.361 19.5439V21.1983" stroke="#C5C5C5" stroke-linecap="round" stroke-linejoin="round"/>
<path d="M158.422 24.8057H160.578C160.578 24.8057 160.937 24.8057 160.937 25.1251V25.764C160.937 25.764 160.938 26.0834 160.578 26.0834H158.422C158.422 26.0834 158.062 26.0834 158.062 25.764V25.1251C158.062 25.1251 158.063 24.8057 158.422 24.8057Z" stroke="#66B5B7" stroke-width="0.6" stroke-linecap="round" stroke-linejoin="round"/>
<path d="M158.925 28.1916C159.068 28.0646 159.262 27.9932 159.464 27.9932C159.666 27.9932 159.86 28.0646 160.003 28.1916C160.146 28.3187 160.226 28.4911 160.226 28.6708C160.226 28.8505 160.146 29.0229 160.003 29.15L158.063 30.875L156.625 31.1944L156.984 29.9166L158.925 28.1916Z" stroke="#66B5B7" stroke-width="0.6" stroke-linecap="round" stroke-linejoin="round"/>
<path d="M160.937 25.4443H161.656C161.847 25.4443 162.03 25.5116 162.164 25.6315C162.299 25.7513 162.375 25.9138 162.375 26.0832V30.5554C162.375 30.7249 162.299 30.8874 162.164 31.0072C162.03 31.127 161.847 31.1943 161.656 31.1943H159.68" stroke="#66B5B7" stroke-width="0.6" stroke-linecap="round" stroke-linejoin="round"/>
<path d="M156.625 28.4791V26.0832C156.625 25.9138 156.701 25.7513 156.836 25.6315C156.97 25.5116 157.153 25.4443 157.344 25.4443H158.062" stroke="#66B5B7" stroke-width="0.6" stroke-linecap="round" stroke-linejoin="round"/>
<path d="M0 12C0 5.37258 5.37258 0 12 0H50C56.6274 0 62 5.37258 62 12V44C62 50.6274 56.6274 56 50 56H12C5.37258 56 0 50.6274 0 44V12Z" fill="#3C3C3B"/>
<path d="M25 14.9896C25 15.7761 25.1549 16.555 25.4559 17.2817C25.7569 18.0084 26.1981 18.6687 26.7543 19.2249C27.3105 19.781 27.9708 20.2222 28.6975 20.5232C29.4242 20.8242 30.203 20.9792 30.9896 20.9792C31.7761 20.9792 32.555 20.8242 33.2817 20.5232C34.0084 20.2222 34.6687 19.781 35.2249 19.2249C35.781 18.6687 36.2222 18.0084 36.5232 17.2817C36.8242 16.555 36.9792 15.7761 36.9792 14.9896C36.9792 14.203 36.8242 13.4242 36.5232 12.6975C36.2222 11.9708 35.781 11.3105 35.2249 10.7543C34.6687 10.1981 34.0084 9.75693 33.2817 9.45593C32.555 9.15493 31.7761 9 30.9896 9C30.203 9 29.4242 9.15493 28.6975 9.45593C27.9708 9.75693 27.3105 10.1981 26.7543 10.7543C26.1981 11.3105 25.7569 11.9708 25.4559 12.6975C25.1549 13.4242 25 14.203 25 14.9896Z" stroke="white" stroke-linecap="round" stroke-linejoin="round"/>
<path d="M40.1667 31.5833C40.1667 29.0417 39.157 26.6041 37.3598 24.8069C35.5626 23.0097 33.125 22 30.5833 22C28.0417 22 25.6041 23.0097 23.8069 24.8069C22.0097 26.6041 21 29.0417 21 31.5833" stroke="white" stroke-linecap="round" stroke-linejoin="round"/>
<path d="M17.4253 37.3636H17.8657V39.7713C17.8657 40.0199 17.8071 40.2418 17.6899 40.4371C17.5739 40.6313 17.4099 40.7846 17.1981 40.897C16.9862 41.0083 16.7376 41.0639 16.4523 41.0639C16.1671 41.0639 15.9185 41.0083 15.7066 40.897C15.4947 40.7846 15.3302 40.6313 15.213 40.4371C15.097 40.2418 15.039 40.0199 15.039 39.7713V37.3636H15.4793V39.7358C15.4793 39.9134 15.5184 40.0714 15.5965 40.2099C15.6746 40.3472 15.7859 40.4555 15.9303 40.5348C16.0759 40.6129 16.2499 40.652 16.4523 40.652C16.6547 40.652 16.8287 40.6129 16.9743 40.5348C17.1199 40.4555 17.2312 40.3472 17.3081 40.2099C17.3863 40.0714 17.4253 39.9134 17.4253 39.7358V37.3636ZM20.62 38.8835L20.2436 38.9901C20.2199 38.9273 20.185 38.8664 20.1388 38.8072C20.0939 38.7468 20.0323 38.6971 19.9542 38.658C19.8761 38.619 19.776 38.5994 19.6541 38.5994C19.4872 38.5994 19.3481 38.6379 19.2369 38.7148C19.1268 38.7906 19.0717 38.8871 19.0717 39.0043C19.0717 39.1084 19.1096 39.1907 19.1854 39.2511C19.2611 39.3114 19.3795 39.3617 19.5405 39.402L19.9453 39.5014C20.1892 39.5606 20.3709 39.6512 20.4904 39.7731C20.61 39.8938 20.6697 40.0495 20.6697 40.2401C20.6697 40.3963 20.6248 40.536 20.5348 40.6591C20.446 40.7822 20.3217 40.8793 20.1619 40.9503C20.0021 41.0213 19.8163 41.0568 19.6044 41.0568C19.3262 41.0568 19.096 40.9964 18.9137 40.8757C18.7314 40.755 18.616 40.5786 18.5675 40.3466L18.9652 40.2472C19.0031 40.3939 19.0747 40.504 19.18 40.5774C19.2866 40.6508 19.4257 40.6875 19.5973 40.6875C19.7926 40.6875 19.9477 40.6461 20.0625 40.5632C20.1785 40.4792 20.2365 40.3786 20.2365 40.2614C20.2365 40.1667 20.2034 40.0874 20.1371 40.0234C20.0708 39.9583 19.969 39.9098 19.8317 39.8778L19.3771 39.7713C19.1274 39.7121 18.9439 39.6204 18.8267 39.4961C18.7107 39.3706 18.6527 39.2138 18.6527 39.0256C18.6527 38.8717 18.6959 38.7356 18.7823 38.6172C18.8699 38.4988 18.9889 38.4059 19.1392 38.3384C19.2907 38.271 19.4624 38.2372 19.6541 38.2372C19.924 38.2372 20.1359 38.2964 20.2898 38.4148C20.4448 38.5331 20.5549 38.6894 20.62 38.8835ZM22.444 41.0568C22.1812 41.0568 21.9545 40.9988 21.7639 40.8828C21.5745 40.7656 21.4284 40.6023 21.3254 40.3928C21.2236 40.1821 21.1727 39.937 21.1727 39.6577C21.1727 39.3783 21.2236 39.1321 21.3254 38.919C21.4284 38.7048 21.5716 38.5379 21.7551 38.4183C21.9397 38.2976 22.1552 38.2372 22.4014 38.2372C22.5434 38.2372 22.6837 38.2609 22.8222 38.3082C22.9607 38.3556 23.0867 38.4325 23.2004 38.5391C23.314 38.6444 23.4046 38.7841 23.472 38.9581C23.5395 39.1321 23.5732 39.3464 23.5732 39.6009V39.7784H21.471V39.4162H23.1471C23.1471 39.2623 23.1163 39.125 23.0548 39.0043C22.9944 38.8835 22.908 38.7882 22.7955 38.7184C22.6843 38.6486 22.5529 38.6136 22.4014 38.6136C22.2345 38.6136 22.0901 38.6551 21.9681 38.7379C21.8474 38.8196 21.7545 38.9261 21.6894 39.0575C21.6243 39.1889 21.5917 39.3298 21.5917 39.4801V39.7216C21.5917 39.9276 21.6272 40.1022 21.6982 40.2454C21.7704 40.3874 21.8705 40.4957 21.9983 40.5703C22.1262 40.6437 22.2747 40.6804 22.444 40.6804C22.5541 40.6804 22.6535 40.665 22.7423 40.6342C22.8322 40.6023 22.9098 40.5549 22.9749 40.4922C23.04 40.4283 23.0903 40.349 23.1258 40.2543L23.5306 40.3679C23.488 40.5052 23.4164 40.6259 23.3158 40.7301C23.2152 40.8331 23.0909 40.9136 22.9429 40.9716C22.795 41.0284 22.6286 41.0568 22.444 41.0568ZM24.2107 41V38.2727H24.6155V38.6847H24.6439C24.6936 38.5497 24.7836 38.4402 24.9138 38.3562C25.044 38.2721 25.1908 38.2301 25.3541 38.2301C25.3849 38.2301 25.4234 38.2307 25.4695 38.2319C25.5157 38.2331 25.5506 38.2348 25.5743 38.2372V38.6634C25.5601 38.6598 25.5276 38.6545 25.4767 38.6474C25.4269 38.6391 25.3743 38.6349 25.3186 38.6349C25.1861 38.6349 25.0677 38.6628 24.9635 38.7184C24.8605 38.7728 24.7789 38.8486 24.7185 38.9457C24.6593 39.0415 24.6297 39.151 24.6297 39.2741V41H24.2107ZM27.4773 42.0227V38.2727H27.8821V38.706H27.9318C27.9626 38.6586 28.0052 38.5982 28.0597 38.5249C28.1153 38.4503 28.1946 38.384 28.2976 38.326C28.4018 38.2668 28.5426 38.2372 28.7202 38.2372C28.9498 38.2372 29.1522 38.2946 29.3274 38.4094C29.5026 38.5243 29.6393 38.687 29.7376 38.8977C29.8358 39.1084 29.8849 39.357 29.8849 39.6435C29.8849 39.9323 29.8358 40.1826 29.7376 40.3945C29.6393 40.6052 29.5032 40.7686 29.3292 40.8846C29.1552 40.9994 28.9545 41.0568 28.7273 41.0568C28.5521 41.0568 28.4118 41.0278 28.3065 40.9698C28.2011 40.9106 28.12 40.8437 28.0632 40.7692C28.0064 40.6934 27.9626 40.6307 27.9318 40.581H27.8963V42.0227H27.4773ZM27.8892 39.6364C27.8892 39.8423 27.9194 40.024 27.9798 40.1815C28.0401 40.3377 28.1283 40.4602 28.2443 40.549C28.3603 40.6366 28.5024 40.6804 28.6705 40.6804C28.8456 40.6804 28.9918 40.6342 29.109 40.5419C29.2274 40.4484 29.3162 40.3229 29.3754 40.1655C29.4357 40.0069 29.4659 39.8305 29.4659 39.6364C29.4659 39.4446 29.4363 39.2718 29.3771 39.1179C29.3191 38.9628 29.2309 38.8403 29.1126 38.7504C28.9954 38.6592 28.848 38.6136 28.6705 38.6136C28.5 38.6136 28.3568 38.6568 28.2408 38.7433C28.1248 38.8285 28.0372 38.948 27.978 39.1019C27.9188 39.2546 27.8892 39.4328 27.8892 39.6364ZM30.5241 41V38.2727H30.929V38.6847H30.9574C31.0071 38.5497 31.0971 38.4402 31.2273 38.3562C31.3575 38.2721 31.5043 38.2301 31.6676 38.2301C31.6984 38.2301 31.7369 38.2307 31.783 38.2319C31.8292 38.2331 31.8641 38.2348 31.8878 38.2372V38.6634C31.8736 38.6598 31.841 38.6545 31.7901 38.6474C31.7404 38.6391 31.6877 38.6349 31.6321 38.6349C31.4995 38.6349 31.3812 38.6628 31.277 38.7184C31.174 38.7728 31.0923 38.8486 31.032 38.9457C30.9728 39.0415 30.9432 39.151 30.9432 39.2741V41H30.5241ZM33.4094 41.0568C33.1632 41.0568 32.9472 40.9982 32.7614 40.881C32.5767 40.7638 32.4323 40.5999 32.3281 40.3892C32.2251 40.1785 32.1737 39.9323 32.1737 39.6506C32.1737 39.3665 32.2251 39.1185 32.3281 38.9066C32.4323 38.6947 32.5767 38.5302 32.7614 38.413C32.9472 38.2958 33.1632 38.2372 33.4094 38.2372C33.6557 38.2372 33.8711 38.2958 34.0558 38.413C34.2416 38.5302 34.386 38.6947 34.489 38.9066C34.5932 39.1185 34.6452 39.3665 34.6452 39.6506C34.6452 39.9323 34.5932 40.1785 34.489 40.3892C34.386 40.5999 34.2416 40.7638 34.0558 40.881C33.8711 40.9982 33.6557 41.0568 33.4094 41.0568ZM33.4094 40.6804C33.5965 40.6804 33.7504 40.6325 33.8711 40.5366C33.9918 40.4407 34.0812 40.3146 34.1392 40.1584C34.1972 40.0021 34.2262 39.8329 34.2262 39.6506C34.2262 39.4683 34.1972 39.2984 34.1392 39.141C34.0812 38.9835 33.9918 38.8563 33.8711 38.7592C33.7504 38.6622 33.5965 38.6136 33.4094 38.6136C33.2224 38.6136 33.0685 38.6622 32.9478 38.7592C32.8271 38.8563 32.7377 38.9835 32.6797 39.141C32.6217 39.2984 32.5927 39.4683 32.5927 39.6506C32.5927 39.8329 32.6217 40.0021 32.6797 40.1584C32.7377 40.3146 32.8271 40.4407 32.9478 40.5366C33.0685 40.6325 33.2224 40.6804 33.4094 40.6804ZM37.4173 38.2727L36.4088 41H35.9827L34.9742 38.2727H35.4287L36.1816 40.446H36.21L36.9628 38.2727H37.4173ZM37.9704 41V38.2727H38.3895V41H37.9704ZM38.1835 37.8182C38.1018 37.8182 38.0314 37.7904 37.9722 37.7347C37.9142 37.6791 37.8852 37.6122 37.8852 37.5341C37.8852 37.456 37.9142 37.3891 37.9722 37.3335C38.0314 37.2778 38.1018 37.25 38.1835 37.25C38.2652 37.25 38.335 37.2778 38.393 37.3335C38.4522 37.3891 38.4818 37.456 38.4818 37.5341C38.4818 37.6122 38.4522 37.6791 38.393 37.7347C38.335 37.7904 38.2652 37.8182 38.1835 37.8182ZM40.1868 41.0568C39.9595 41.0568 39.7589 40.9994 39.5849 40.8846C39.4109 40.7686 39.2747 40.6052 39.1765 40.3945C39.0782 40.1826 39.0291 39.9323 39.0291 39.6435C39.0291 39.357 39.0782 39.1084 39.1765 38.8977C39.2747 38.687 39.4115 38.5243 39.5866 38.4094C39.7618 38.2946 39.9643 38.2372 40.1939 38.2372C40.3714 38.2372 40.5117 38.2668 40.6147 38.326C40.7189 38.384 40.7982 38.4503 40.8526 38.5249C40.9083 38.5982 40.9515 38.6586 40.9822 38.706H41.0178V37.3636H41.4368V41H41.032V40.581H40.9822C40.9515 40.6307 40.9077 40.6934 40.8509 40.7692C40.794 40.8437 40.7129 40.9106 40.6076 40.9698C40.5022 41.0278 40.362 41.0568 40.1868 41.0568ZM40.2436 40.6804C40.4117 40.6804 40.5537 40.6366 40.6697 40.549C40.7857 40.4602 40.8739 40.3377 40.9343 40.1815C40.9947 40.024 41.0249 39.8423 41.0249 39.6364C41.0249 39.4328 40.9953 39.2546 40.9361 39.1019C40.8769 38.948 40.7893 38.8285 40.6733 38.7433C40.5573 38.6568 40.4141 38.6136 40.2436 38.6136C40.0661 38.6136 39.9181 38.6592 39.7997 38.7504C39.6825 38.8403 39.5943 38.9628 39.5352 39.1179C39.4772 39.2718 39.4482 39.4446 39.4482 39.6364C39.4482 39.8305 39.4777 40.0069 39.5369 40.1655C39.5973 40.3229 39.6861 40.4484 39.8033 40.5419C39.9216 40.6342 40.0684 40.6804 40.2436 40.6804ZM43.4059 41.0568C43.1431 41.0568 42.9164 40.9988 42.7259 40.8828C42.5365 40.7656 42.3903 40.6023 42.2873 40.3928C42.1855 40.1821 42.1346 39.937 42.1346 39.6577C42.1346 39.3783 42.1855 39.1321 42.2873 38.919C42.3903 38.7048 42.5335 38.5379 42.717 38.4183C42.9016 38.2976 43.1171 38.2372 43.3633 38.2372C43.5053 38.2372 43.6456 38.2609 43.7841 38.3082C43.9226 38.3556 44.0487 38.4325 44.1623 38.5391C44.2759 38.6444 44.3665 38.7841 44.4339 38.9581C44.5014 39.1321 44.5352 39.3464 44.5352 39.6009V39.7784H42.4329V39.4162H44.109C44.109 39.2623 44.0782 39.125 44.0167 39.0043C43.9563 38.8835 43.8699 38.7882 43.7575 38.7184C43.6462 38.6486 43.5148 38.6136 43.3633 38.6136C43.1964 38.6136 43.052 38.6551 42.93 38.7379C42.8093 38.8196 42.7164 38.9261 42.6513 39.0575C42.5862 39.1889 42.5536 39.3298 42.5536 39.4801V39.7216C42.5536 39.9276 42.5891 40.1022 42.6602 40.2454C42.7324 40.3874 42.8324 40.4957 42.9602 40.5703C43.0881 40.6437 43.2366 40.6804 43.4059 40.6804C43.516 40.6804 43.6154 40.665 43.7042 40.6342C43.7942 40.6023 43.8717 40.5549 43.9368 40.4922C44.0019 40.4283 44.0522 40.349 44.0877 40.2543L44.4925 40.3679C44.4499 40.5052 44.3783 40.6259 44.2777 40.7301C44.1771 40.8331 44.0528 40.9136 43.9048 40.9716C43.7569 41.0284 43.5906 41.0568 43.4059 41.0568ZM47.1044 38.8835L46.728 38.9901C46.7043 38.9273 46.6694 38.8664 46.6232 38.8072C46.5782 38.7468 46.5167 38.6971 46.4386 38.658C46.3604 38.619 46.2604 38.5994 46.1385 38.5994C45.9716 38.5994 45.8325 38.6379 45.7212 38.7148C45.6112 38.7906 45.5561 38.8871 45.5561 39.0043C45.5561 39.1084 45.594 39.1907 45.6697 39.2511C45.7455 39.3114 45.8639 39.3617 46.0249 39.402L46.4297 39.5014C46.6735 39.5606 46.8552 39.6512 46.9748 39.7731C47.0943 39.8938 47.1541 40.0495 47.1541 40.2401C47.1541 40.3963 47.1091 40.536 47.0192 40.6591C46.9304 40.7822 46.8061 40.8793 46.6463 40.9503C46.4865 41.0213 46.3007 41.0568 46.0888 41.0568C45.8106 41.0568 45.5804 40.9964 45.3981 40.8757C45.2158 40.755 45.1004 40.5786 45.0518 40.3466L45.4496 40.2472C45.4875 40.3939 45.5591 40.504 45.6644 40.5774C45.771 40.6508 45.91 40.6875 46.0817 40.6875C46.277 40.6875 46.4321 40.6461 46.5469 40.5632C46.6629 40.4792 46.7209 40.3786 46.7209 40.2614C46.7209 40.1667 46.6877 40.0874 46.6214 40.0234C46.5552 39.9583 46.4534 39.9098 46.3161 39.8778L45.8615 39.7713C45.6117 39.7121 45.4283 39.6204 45.3111 39.4961C45.1951 39.3706 45.1371 39.2138 45.1371 39.0256C45.1371 38.8717 45.1803 38.7356 45.2667 38.6172C45.3543 38.4988 45.4732 38.4059 45.6236 38.3384C45.7751 38.271 45.9467 38.2372 46.1385 38.2372C46.4084 38.2372 46.6203 38.2964 46.7741 38.4148C46.9292 38.5331 47.0393 38.6894 47.1044 38.8835ZM4.92667 47V43.3636H6.15536C6.43945 43.3636 6.67264 43.4122 6.85494 43.5092C7.03723 43.6051 7.17217 43.7371 7.25977 43.9052C7.34736 44.0733 7.39116 44.2644 7.39116 44.4787C7.39116 44.6929 7.34736 44.8829 7.25977 45.0487C7.17217 45.2144 7.03782 45.3446 6.85671 45.4393C6.6756 45.5328 6.44419 45.5795 6.16246 45.5795H5.16815V45.1818H6.14826C6.34239 45.1818 6.49864 45.1534 6.61701 45.0966C6.73656 45.0398 6.82298 44.9593 6.87624 44.8551C6.93069 44.7498 6.95792 44.6243 6.95792 44.4787C6.95792 44.3331 6.93069 44.2058 6.87624 44.0969C6.82179 43.988 6.73479 43.904 6.61523 43.8448C6.49568 43.7844 6.33765 43.7543 6.14116 43.7543H5.36701V47H4.92667ZM6.63832 45.3665L7.5332 47H7.02184L6.14116 45.3665H6.63832ZM9.18226 47.0568C8.91948 47.0568 8.6928 46.9988 8.50222 46.8828C8.31283 46.7656 8.16664 46.6023 8.06365 46.3928C7.96185 46.1821 7.91096 45.937 7.91096 45.6577C7.91096 45.3783 7.96185 45.1321 8.06365 44.919C8.16664 44.7048 8.30987 44.5379 8.49334 44.4183C8.678 44.2976 8.89344 44.2372 9.13965 44.2372C9.28169 44.2372 9.42196 44.2609 9.56046 44.3082C9.69895 44.3556 9.82502 44.4325 9.93865 44.5391C10.0523 44.6444 10.1428 44.7841 10.2103 44.9581C10.2778 45.1321 10.3115 45.3464 10.3115 45.6009V45.7784H8.20925V45.4162H9.88539C9.88539 45.2623 9.85461 45.125 9.79306 45.0043C9.73269 44.8835 9.64628 44.7882 9.53382 44.7184C9.42256 44.6486 9.29116 44.6136 9.13965 44.6136C8.97275 44.6136 8.82833 44.6551 8.70641 44.7379C8.58567 44.8196 8.49275 44.9261 8.42765 45.0575C8.36254 45.1889 8.32999 45.3298 8.32999 45.4801V45.7216C8.32999 45.9276 8.3655 46.1022 8.43652 46.2454C8.50873 46.3874 8.60875 46.4957 8.73659 46.5703C8.86444 46.6437 9.01299 46.6804 9.18226 46.6804C9.29235 46.6804 9.39178 46.665 9.48056 46.6342C9.57052 46.6023 9.64805 46.5549 9.71316 46.4922C9.77826 46.4283 9.82857 46.349 9.86408 46.2543L10.2689 46.3679C10.2263 46.5052 10.1547 46.6259 10.0541 46.7301C9.95345 46.8331 9.82916 46.9136 9.6812 46.9716C9.53323 47.0284 9.36692 47.0568 9.18226 47.0568ZM12.8097 48.0227V46.581H12.7742C12.7435 46.6307 12.6997 46.6934 12.6428 46.7692C12.586 46.8437 12.5049 46.9106 12.3996 46.9698C12.2942 47.0278 12.154 47.0568 11.9788 47.0568C11.7515 47.0568 11.5509 46.9994 11.3769 46.8846C11.2029 46.7686 11.0667 46.6052 10.9685 46.3945C10.8702 46.1826 10.8211 45.9323 10.8211 45.6435C10.8211 45.357 10.8702 45.1084 10.9685 44.8977C11.0667 44.687 11.2035 44.5243 11.3786 44.4094C11.5538 44.2946 11.7562 44.2372 11.9859 44.2372C12.1634 44.2372 12.3037 44.2668 12.4067 44.326C12.5109 44.384 12.5902 44.4503 12.6446 44.5249C12.7003 44.5982 12.7435 44.6586 12.7742 44.706H12.824V44.2727H13.2288V48.0227H12.8097ZM12.0356 46.6804C12.2037 46.6804 12.3457 46.6366 12.4617 46.549C12.5777 46.4602 12.6659 46.3377 12.7263 46.1815C12.7867 46.024 12.8169 45.8423 12.8169 45.6364C12.8169 45.4328 12.7873 45.2546 12.7281 45.1019C12.6689 44.948 12.5813 44.8285 12.4653 44.7433C12.3493 44.6568 12.2061 44.6136 12.0356 44.6136C11.858 44.6136 11.7101 44.6592 11.5917 44.7504C11.4745 44.8403 11.3863 44.9628 11.3271 45.1179C11.2691 45.2718 11.2401 45.4446 11.2401 45.6364C11.2401 45.8305 11.2697 46.0069 11.3289 46.1655C11.3893 46.3229 11.4781 46.4484 11.5953 46.5419C11.7136 46.6342 11.8604 46.6804 12.0356 46.6804ZM15.7146 45.8849V44.2727H16.1336V47H15.7146V46.5384H15.6862C15.6222 46.6768 15.5228 46.7946 15.3879 46.8917C15.2529 46.9876 15.0825 47.0355 14.8765 47.0355C14.7061 47.0355 14.5545 46.9982 14.422 46.9237C14.2894 46.8479 14.1852 46.7343 14.1095 46.5827C14.0337 46.43 13.9958 46.2377 13.9958 46.0057V44.2727H14.4149V45.9773C14.4149 46.1761 14.4705 46.3348 14.5818 46.4531C14.6942 46.5715 14.8374 46.6307 15.0115 46.6307C15.1156 46.6307 15.2216 46.604 15.3293 46.5508C15.4382 46.4975 15.5293 46.4158 15.6027 46.3058C15.6773 46.1957 15.7146 46.0554 15.7146 45.8849ZM16.9011 47V44.2727H17.3201V47H16.9011ZM17.1142 43.8182C17.0325 43.8182 16.9621 43.7904 16.9029 43.7347C16.8449 43.6791 16.8159 43.6122 16.8159 43.5341C16.8159 43.456 16.8449 43.3891 16.9029 43.3335C16.9621 43.2778 17.0325 43.25 17.1142 43.25C17.1958 43.25 17.2657 43.2778 17.3237 43.3335C17.3829 43.3891 17.4125 43.456 17.4125 43.5341C17.4125 43.6122 17.3829 43.6791 17.3237 43.7347C17.2657 43.7904 17.1958 43.8182 17.1142 43.8182ZM18.0876 47V44.2727H18.4925V44.6847H18.5209C18.5706 44.5497 18.6605 44.4402 18.7907 44.3562C18.921 44.2721 19.0677 44.2301 19.2311 44.2301C19.2619 44.2301 19.3003 44.2307 19.3465 44.2319C19.3927 44.2331 19.4276 44.2348 19.4513 44.2372V44.6634C19.4371 44.6598 19.4045 44.6545 19.3536 44.6474C19.3039 44.6391 19.2512 44.6349 19.1956 44.6349C19.063 44.6349 18.9446 44.6628 18.8405 44.7184C18.7375 44.7728 18.6558 44.8486 18.5954 44.9457C18.5363 45.0415 18.5067 45.151 18.5067 45.2741V47H18.0876ZM21.0084 47.0568C20.7456 47.0568 20.519 46.9988 20.3284 46.8828C20.139 46.7656 19.9928 46.6023 19.8898 46.3928C19.788 46.1821 19.7371 45.937 19.7371 45.6577C19.7371 45.3783 19.788 45.1321 19.8898 44.919C19.9928 44.7048 20.136 44.5379 20.3195 44.4183C20.5042 44.2976 20.7196 44.2372 20.9658 44.2372C21.1079 44.2372 21.2481 44.2609 21.3866 44.3082C21.5251 44.3556 21.6512 44.4325 21.7648 44.5391C21.8785 44.6444 21.969 44.7841 22.0365 44.9581C22.104 45.1321 22.1377 45.3464 22.1377 45.6009V45.7784H20.0354V45.4162H21.7116C21.7116 45.2623 21.6808 45.125 21.6192 45.0043C21.5589 44.8835 21.4724 44.7882 21.36 44.7184C21.2487 44.6486 21.1173 44.6136 20.9658 44.6136C20.7989 44.6136 20.6545 44.6551 20.5326 44.7379C20.4118 44.8196 20.3189 44.9261 20.2538 45.0575C20.1887 45.1889 20.1562 45.3298 20.1562 45.4801V45.7216C20.1562 45.9276 20.1917 46.1022 20.2627 46.2454C20.3349 46.3874 20.4349 46.4957 20.5628 46.5703C20.6906 46.6437 20.8392 46.6804 21.0084 46.6804C21.1185 46.6804 21.218 46.665 21.3067 46.6342C21.3967 46.6023 21.4742 46.5549 21.5393 46.4922C21.6044 46.4283 21.6547 46.349 21.6903 46.2543L22.0951 46.3679C22.0525 46.5052 21.9809 46.6259 21.8802 46.7301C21.7796 46.8331 21.6553 46.9136 21.5074 46.9716C21.3594 47.0284 21.1931 47.0568 21.0084 47.0568ZM22.7751 47V44.2727H23.18V44.6989H23.2155C23.2723 44.5533 23.364 44.4402 23.4907 44.3597C23.6173 44.2781 23.7694 44.2372 23.947 44.2372C24.1269 44.2372 24.2767 44.2781 24.3962 44.3597C24.517 44.4402 24.6111 44.5533 24.6785 44.6989H24.7069C24.7768 44.558 24.8815 44.4461 25.0212 44.3633C25.1609 44.2792 25.3284 44.2372 25.5237 44.2372C25.7675 44.2372 25.967 44.3136 26.1221 44.4663C26.2771 44.6178 26.3547 44.8539 26.3547 45.1747V47H25.9356V45.1747C25.9356 44.9735 25.8806 44.8297 25.7705 44.7433C25.6604 44.6568 25.5308 44.6136 25.3817 44.6136C25.1899 44.6136 25.0413 44.6716 24.936 44.7876C24.8306 44.9025 24.778 45.0481 24.778 45.2244V47H24.3518V45.1321C24.3518 44.977 24.3015 44.8522 24.2009 44.7575C24.1003 44.6616 23.9707 44.6136 23.8121 44.6136C23.7032 44.6136 23.6014 44.6426 23.5067 44.7006C23.4131 44.7586 23.3374 44.8391 23.2794 44.9421C23.2226 45.0439 23.1942 45.1617 23.1942 45.2955V47H22.7751ZM28.2643 47.0568C28.0015 47.0568 27.7748 46.9988 27.5843 46.8828C27.3949 46.7656 27.2487 46.6023 27.1457 46.3928C27.0439 46.1821 26.993 45.937 26.993 45.6577C26.993 45.3783 27.0439 45.1321 27.1457 44.919C27.2487 44.7048 27.3919 44.5379 27.5754 44.4183C27.76 44.2976 27.9755 44.2372 28.2217 44.2372C28.3637 44.2372 28.504 44.2609 28.6425 44.3082C28.781 44.3556 28.907 44.4325 29.0207 44.5391C29.1343 44.6444 29.2249 44.7841 29.2923 44.9581C29.3598 45.1321 29.3936 45.3464 29.3936 45.6009V45.7784H27.2913V45.4162H28.9674C28.9674 45.2623 28.9366 45.125 28.8751 45.0043C28.8147 44.8835 28.7283 44.7882 28.6159 44.7184C28.5046 44.6486 28.3732 44.6136 28.2217 44.6136C28.0548 44.6136 27.9104 44.6551 27.7884 44.7379C27.6677 44.8196 27.5748 44.9261 27.5097 45.0575C27.4446 45.1889 27.412 45.3298 27.412 45.4801V45.7216C27.412 45.9276 27.4475 46.1022 27.5186 46.2454C27.5908 46.3874 27.6908 46.4957 27.8186 46.5703C27.9465 46.6437 28.095 46.6804 28.2643 46.6804C28.3744 46.6804 28.4738 46.665 28.5626 46.6342C28.6526 46.6023 28.7301 46.5549 28.7952 46.4922C28.8603 46.4283 28.9106 46.349 28.9461 46.2543L29.3509 46.3679C29.3083 46.5052 29.2367 46.6259 29.1361 46.7301C29.0355 46.8331 28.9112 46.9136 28.7632 46.9716C28.6153 47.0284 28.449 47.0568 28.2643 47.0568ZM30.45 45.3594V47H30.031V44.2727H30.4358V44.6989H30.4713C30.5352 44.5604 30.6323 44.4491 30.7625 44.3651C30.8927 44.2798 31.0608 44.2372 31.2668 44.2372C31.4514 44.2372 31.613 44.2751 31.7515 44.3509C31.89 44.4254 31.9977 44.5391 32.0747 44.6918C32.1516 44.8433 32.1901 45.035 32.1901 45.267V47H31.771V45.2955C31.771 45.0812 31.7154 44.9143 31.6041 44.7947C31.4929 44.674 31.3402 44.6136 31.146 44.6136C31.0123 44.6136 30.8927 44.6426 30.7874 44.7006C30.6832 44.7586 30.6009 44.8433 30.5406 44.9545C30.4802 45.0658 30.45 45.2008 30.45 45.3594ZM34.1419 44.2727V44.6278H32.7285V44.2727H34.1419ZM33.1404 43.6193H33.5595V46.2188C33.5595 46.3371 33.5766 46.4259 33.611 46.4851C33.6465 46.5431 33.6915 46.5821 33.7459 46.6023C33.8016 46.6212 33.8601 46.6307 33.9217 46.6307C33.9679 46.6307 34.0057 46.6283 34.0353 46.6236C34.0649 46.6177 34.0886 46.6129 34.1064 46.6094L34.1916 46.9858C34.1632 46.9964 34.1235 47.0071 34.0726 47.0178C34.0217 47.0296 33.9572 47.0355 33.8791 47.0355C33.7607 47.0355 33.6447 47.0101 33.5311 46.9592C33.4186 46.9083 33.3251 46.8307 33.2505 46.7266C33.1771 46.6224 33.1404 46.491 33.1404 46.3324V43.6193ZM36.6552 44.8835L36.2788 44.9901C36.2551 44.9273 36.2202 44.8664 36.174 44.8072C36.129 44.7468 36.0675 44.6971 35.9893 44.658C35.9112 44.619 35.8112 44.5994 35.6893 44.5994C35.5224 44.5994 35.3833 44.6379 35.272 44.7148C35.1619 44.7906 35.1069 44.8871 35.1069 45.0043C35.1069 45.1084 35.1448 45.1907 35.2205 45.2511C35.2963 45.3114 35.4147 45.3617 35.5756 45.402L35.9805 45.5014C36.2243 45.5606 36.406 45.6512 36.5256 45.7731C36.6451 45.8938 36.7049 46.0495 36.7049 46.2401C36.7049 46.3963 36.6599 46.536 36.57 46.6591C36.4812 46.7822 36.3569 46.8793 36.1971 46.9503C36.0373 47.0213 35.8514 47.0568 35.6396 47.0568C35.3614 47.0568 35.1312 46.9964 34.9489 46.8757C34.7666 46.755 34.6512 46.5786 34.6026 46.3466L35.0004 46.2472C35.0382 46.3939 35.1098 46.504 35.2152 46.5774C35.3217 46.6508 35.4608 46.6875 35.6325 46.6875C35.8278 46.6875 35.9828 46.6461 36.0977 46.5632C36.2137 46.4792 36.2717 46.3786 36.2717 46.2614C36.2717 46.1667 36.2385 46.0874 36.1722 46.0234C36.1059 45.9583 36.0041 45.9098 35.8668 45.8778L35.4123 45.7713C35.1625 45.7121 34.979 45.6204 34.8619 45.4961C34.7459 45.3706 34.6879 45.2138 34.6879 45.0256C34.6879 44.8717 34.7311 44.7356 34.8175 44.6172C34.9051 44.4988 35.024 44.4059 35.1744 44.3384C35.3259 44.271 35.4975 44.2372 35.6893 44.2372C35.9592 44.2372 36.171 44.2964 36.3249 44.4148C36.48 44.5331 36.5901 44.6894 36.6552 44.8835ZM39.7718 47.0497C39.5326 47.0497 39.3267 47.0059 39.1539 46.9183C38.981 46.8307 38.8479 46.7106 38.7544 46.5579C38.6608 46.4052 38.6141 46.2306 38.6141 46.0341C38.6141 45.8826 38.646 45.7482 38.71 45.631C38.7751 45.5127 38.8644 45.4032 38.9781 45.3026C39.0929 45.2008 39.2249 45.099 39.374 44.9972L39.8996 44.6065C40.0026 44.5391 40.0848 44.4669 40.1464 44.3899C40.2091 44.313 40.2405 44.2124 40.2405 44.0881C40.2405 43.9957 40.1997 43.9064 40.118 43.82C40.0375 43.7335 39.9316 43.6903 39.8002 43.6903C39.7078 43.6903 39.6262 43.714 39.5551 43.7614C39.4853 43.8075 39.4302 43.8667 39.39 43.9389C39.3509 44.0099 39.3314 44.0833 39.3314 44.1591C39.3314 44.2443 39.3545 44.3307 39.4007 44.4183C39.448 44.5047 39.5078 44.5935 39.58 44.6847C39.6534 44.7746 39.7291 44.867 39.8073 44.9616L41.4763 47H40.972L39.5942 45.3381C39.4664 45.1842 39.3503 45.0445 39.2462 44.919C39.142 44.7936 39.0592 44.6699 38.9976 44.5479C38.936 44.426 38.9053 44.294 38.9053 44.152C38.9053 43.9886 38.9414 43.8454 39.0136 43.7223C39.087 43.598 39.1894 43.5015 39.3208 43.4329C39.4533 43.363 39.6084 43.3281 39.786 43.3281C39.9682 43.3281 40.1251 43.3636 40.2565 43.4347C40.3879 43.5045 40.4891 43.5974 40.5601 43.7134C40.6311 43.8282 40.6666 43.9531 40.6666 44.0881C40.6666 44.2621 40.6234 44.413 40.537 44.5408C40.4506 44.6687 40.3328 44.7876 40.1837 44.8977L39.4593 45.4375C39.2959 45.5582 39.1852 45.6754 39.1272 45.7891C39.0692 45.9027 39.0402 45.9844 39.0402 46.0341C39.0402 46.1477 39.0698 46.2537 39.129 46.3519C39.1882 46.4502 39.2716 46.5295 39.3794 46.5898C39.4871 46.6502 39.6131 46.6804 39.7575 46.6804C39.8949 46.6804 40.0286 46.6514 40.1588 46.5934C40.289 46.5342 40.4068 46.449 40.5122 46.3377C40.6187 46.2264 40.7027 46.0927 40.7643 45.9364C40.827 45.7802 40.8584 45.6044 40.8584 45.4091H41.2632C41.2632 45.6506 41.2354 45.8477 41.1798 46.0004C41.1241 46.1531 41.0614 46.2726 40.9916 46.359C40.9217 46.4454 40.8655 46.5099 40.8229 46.5526C40.8087 46.5703 40.7957 46.5881 40.7838 46.6058C40.772 46.6236 40.759 46.6413 40.7448 46.6591C40.6276 46.7905 40.4796 46.8887 40.3009 46.9538C40.1221 47.0178 39.9458 47.0497 39.7718 47.0497ZM45.3919 44.2727C45.3706 44.0928 45.2842 43.9531 45.1326 43.8537C44.9811 43.7543 44.7953 43.7045 44.5751 43.7045C44.4141 43.7045 44.2733 43.7306 44.1525 43.7827C44.033 43.8348 43.9395 43.9064 43.872 43.9975C43.8057 44.0887 43.7725 44.1922 43.7725 44.3082C43.7725 44.4053 43.7956 44.4888 43.8418 44.5586C43.8891 44.6272 43.9495 44.6847 44.0229 44.7308C44.0963 44.7758 44.1732 44.8131 44.2537 44.8427C44.3342 44.8711 44.4082 44.8942 44.4757 44.9119L44.845 45.0114C44.9397 45.0362 45.045 45.0705 45.161 45.1143C45.2782 45.1581 45.3901 45.2179 45.4966 45.2937C45.6043 45.3683 45.6931 45.4641 45.763 45.5813C45.8328 45.6985 45.8677 45.8423 45.8677 46.0128C45.8677 46.2093 45.8162 46.3868 45.7132 46.5455C45.6114 46.7041 45.4623 46.8301 45.2658 46.9237C45.0705 47.0172 44.8332 47.0639 44.5538 47.0639C44.2934 47.0639 44.0679 47.0219 43.8773 46.9379C43.6879 46.8538 43.5388 46.7366 43.4299 46.5863C43.3221 46.436 43.2612 46.2614 43.247 46.0625H43.7015C43.7134 46.1998 43.7595 46.3134 43.84 46.4034C43.9217 46.4922 44.0247 46.5585 44.149 46.6023C44.2744 46.6449 44.4094 46.6662 44.5538 46.6662C44.7219 46.6662 44.8728 46.639 45.0066 46.5845C45.1403 46.5289 45.2463 46.4519 45.3244 46.3537C45.4025 46.2543 45.4416 46.1383 45.4416 46.0057C45.4416 45.8849 45.4078 45.7867 45.3404 45.7109C45.2729 45.6352 45.1841 45.5736 45.074 45.5263C44.964 45.4789 44.845 45.4375 44.7172 45.402L44.2697 45.2741C43.9856 45.1925 43.7607 45.0759 43.595 44.9244C43.4293 44.7728 43.3464 44.5746 43.3464 44.3295C43.3464 44.1259 43.4015 43.9484 43.5115 43.7969C43.6228 43.6442 43.772 43.5258 43.959 43.4418C44.1472 43.3565 44.3573 43.3139 44.5893 43.3139C44.8237 43.3139 45.032 43.3559 45.2143 43.44C45.3966 43.5228 45.541 43.6365 45.6475 43.7809C45.7553 43.9253 45.8121 44.0893 45.818 44.2727H45.3919ZM46.5349 48.0227V44.2727H46.9397V44.706H46.9894C47.0202 44.6586 47.0628 44.5982 47.1173 44.5249C47.1729 44.4503 47.2522 44.384 47.3552 44.326C47.4594 44.2668 47.6002 44.2372 47.7778 44.2372C48.0074 44.2372 48.2098 44.2946 48.385 44.4094C48.5602 44.5243 48.6969 44.687 48.7952 44.8977C48.8934 45.1084 48.9426 45.357 48.9426 45.6435C48.9426 45.9323 48.8934 46.1826 48.7952 46.3945C48.6969 46.6052 48.5608 46.7686 48.3868 46.8846C48.2128 46.9994 48.0122 47.0568 47.7849 47.0568C47.6097 47.0568 47.4694 47.0278 47.3641 46.9698C47.2587 46.9106 47.1776 46.8437 47.1208 46.7692C47.064 46.6934 47.0202 46.6307 46.9894 46.581H46.9539V48.0227H46.5349ZM46.9468 45.6364C46.9468 45.8423 46.977 46.024 47.0374 46.1815C47.0977 46.3377 47.1859 46.4602 47.3019 46.549C47.4179 46.6366 47.56 46.6804 47.7281 46.6804C47.9033 46.6804 48.0494 46.6342 48.1666 46.5419C48.285 46.4484 48.3738 46.3229 48.433 46.1655C48.4933 46.0069 48.5235 45.8305 48.5235 45.6364C48.5235 45.4446 48.4939 45.2718 48.4347 45.1179C48.3767 44.9628 48.2886 44.8403 48.1702 44.7504C48.053 44.6592 47.9056 44.6136 47.7281 44.6136C47.5576 44.6136 47.4144 44.6568 47.2984 44.7433C47.1824 44.8285 47.0948 44.948 47.0356 45.1019C46.9764 45.2546 46.9468 45.4328 46.9468 45.6364ZM50.7252 47.0568C50.4624 47.0568 50.2358 46.9988 50.0452 46.8828C49.8558 46.7656 49.7096 46.6023 49.6066 46.3928C49.5048 46.1821 49.4539 45.937 49.4539 45.6577C49.4539 45.3783 49.5048 45.1321 49.6066 44.919C49.7096 44.7048 49.8528 44.5379 50.0363 44.4183C50.221 44.2976 50.4364 44.2372 50.6826 44.2372C50.8247 44.2372 50.9649 44.2609 51.1034 44.3082C51.2419 44.3556 51.368 44.4325 51.4816 44.5391C51.5953 44.6444 51.6858 44.7841 51.7533 44.9581C51.8208 45.1321 51.8545 45.3464 51.8545 45.6009V45.7784H49.7522V45.4162H51.4284C51.4284 45.2623 51.3976 45.125 51.336 45.0043C51.2757 44.8835 51.1892 44.7882 51.0768 44.7184C50.9655 44.6486 50.8341 44.6136 50.6826 44.6136C50.5157 44.6136 50.3713 44.6551 50.2494 44.7379C50.1286 44.8196 50.0357 44.9261 49.9706 45.0575C49.9055 45.1889 49.873 45.3298 49.873 45.4801V45.7216C49.873 45.9276 49.9085 46.1022 49.9795 46.2454C50.0517 46.3874 50.1517 46.4957 50.2796 46.5703C50.4074 46.6437 50.556 46.6804 50.7252 46.6804C50.8353 46.6804 50.9347 46.665 51.0235 46.6342C51.1135 46.6023 51.191 46.5549 51.2561 46.4922C51.3212 46.4283 51.3715 46.349 51.407 46.2543L51.8119 46.3679C51.7693 46.5052 51.6977 46.6259 51.597 46.7301C51.4964 46.8331 51.3721 46.9136 51.2242 46.9716C51.0762 47.0284 50.9099 47.0568 50.7252 47.0568ZM53.5999 47.0568C53.3442 47.0568 53.124 46.9964 52.9394 46.8757C52.7547 46.755 52.6127 46.5887 52.5132 46.3768C52.4138 46.1649 52.3641 45.9228 52.3641 45.6506C52.3641 45.3736 52.415 45.1291 52.5168 44.9173C52.6198 44.7042 52.763 44.5379 52.9465 44.4183C53.1311 44.2976 53.3466 44.2372 53.5928 44.2372C53.7845 44.2372 53.9574 44.2727 54.1112 44.3438C54.2651 44.4148 54.3912 44.5142 54.4894 44.642C54.5877 44.7699 54.6486 44.919 54.6723 45.0895H54.2533C54.2213 44.9652 54.1503 44.8551 54.0402 44.7592C53.9313 44.6622 53.7845 44.6136 53.5999 44.6136C53.4365 44.6136 53.2933 44.6562 53.1702 44.7415C53.0483 44.8255 52.953 44.9445 52.8843 45.0984C52.8169 45.2511 52.7831 45.4304 52.7831 45.6364C52.7831 45.8471 52.8163 46.0305 52.8825 46.1868C52.95 46.343 53.0447 46.4644 53.1666 46.5508C53.2897 46.6372 53.4342 46.6804 53.5999 46.6804C53.7088 46.6804 53.8076 46.6615 53.8964 46.6236C53.9852 46.5857 54.0603 46.5312 54.1219 46.4602C54.1834 46.3892 54.2272 46.304 54.2533 46.2045H54.6723C54.6486 46.3655 54.5901 46.5105 54.4965 46.6396C54.4042 46.7674 54.2817 46.8692 54.129 46.945C53.9775 47.0195 53.8011 47.0568 53.5999 47.0568ZM57.2167 44.8835L56.8403 44.9901C56.8166 44.9273 56.7817 44.8664 56.7355 44.8072C56.6905 44.7468 56.629 44.6971 56.5509 44.658C56.4727 44.619 56.3727 44.5994 56.2508 44.5994C56.0839 44.5994 55.9448 44.6379 55.8335 44.7148C55.7235 44.7906 55.6684 44.8871 55.6684 45.0043C55.6684 45.1084 55.7063 45.1907 55.782 45.2511C55.8578 45.3114 55.9762 45.3617 56.1372 45.402L56.542 45.5014C56.7858 45.5606 56.9675 45.6512 57.0871 45.7731C57.2066 45.8938 57.2664 46.0495 57.2664 46.2401C57.2664 46.3963 57.2214 46.536 57.1315 46.6591C57.0427 46.7822 56.9184 46.8793 56.7586 46.9503C56.5988 47.0213 56.413 47.0568 56.2011 47.0568C55.9229 47.0568 55.6927 46.9964 55.5104 46.8757C55.3281 46.755 55.2127 46.5786 55.1642 46.3466L55.5619 46.2472C55.5998 46.3939 55.6714 46.504 55.7767 46.5774C55.8833 46.6508 56.0223 46.6875 56.194 46.6875C56.3893 46.6875 56.5444 46.6461 56.6592 46.5632C56.7752 46.4792 56.8332 46.3786 56.8332 46.2614C56.8332 46.1667 56.8 46.0874 56.7338 46.0234C56.6675 45.9583 56.5657 45.9098 56.4284 45.8778L55.9738 45.7713C55.724 45.7121 55.5406 45.6204 55.4234 45.4961C55.3074 45.3706 55.2494 45.2138 55.2494 45.0256C55.2494 44.8717 55.2926 44.7356 55.379 44.6172C55.4666 44.4988 55.5856 44.4059 55.7359 44.3384C55.8874 44.271 56.059 44.2372 56.2508 44.2372C56.5207 44.2372 56.7326 44.2964 56.8865 44.4148C57.0415 44.5331 57.1516 44.6894 57.2167 44.8835Z" fill="white"/>
<path d="M242 12C242 5.37258 247.373 0 254 0H292C298.627 0 304 5.37258 304 12V44C304 50.6274 298.627 56 292 56H254C247.373 56 242 50.6274 242 44V12Z" fill="#3C3C3B"/>
<path d="M250.357 37.3636V41H249.917V37.3636H250.357ZM251.183 41V38.2727H251.588V38.6989H251.624C251.68 38.5533 251.772 38.4402 251.899 38.3597C252.026 38.2781 252.178 38.2372 252.355 38.2372C252.535 38.2372 252.685 38.2781 252.804 38.3597C252.925 38.4402 253.019 38.5533 253.087 38.6989H253.115C253.185 38.558 253.29 38.4461 253.429 38.3633C253.569 38.2792 253.737 38.2372 253.932 38.2372C254.176 38.2372 254.375 38.3136 254.53 38.4663C254.685 38.6178 254.763 38.8539 254.763 39.1747V41H254.344V39.1747C254.344 38.9735 254.289 38.8297 254.179 38.7433C254.069 38.6568 253.939 38.6136 253.79 38.6136C253.598 38.6136 253.45 38.6716 253.344 38.7876C253.239 38.9025 253.186 39.0481 253.186 39.2244V41H252.76V39.1321C252.76 38.977 252.71 38.8522 252.609 38.7575C252.508 38.6616 252.379 38.6136 252.22 38.6136C252.111 38.6136 252.01 38.6426 251.915 38.7006C251.821 38.7586 251.746 38.8391 251.688 38.9421C251.631 39.0439 251.602 39.1617 251.602 39.2955V41H251.183ZM255.529 42.0227V38.2727H255.934V38.706H255.984C256.014 38.6586 256.057 38.5982 256.111 38.5249C256.167 38.4503 256.246 38.384 256.349 38.326C256.454 38.2668 256.594 38.2372 256.772 38.2372C257.002 38.2372 257.204 38.2946 257.379 38.4094C257.554 38.5243 257.691 38.687 257.789 38.8977C257.888 39.1084 257.937 39.357 257.937 39.6435C257.937 39.9323 257.888 40.1826 257.789 40.3945C257.691 40.6052 257.555 40.7686 257.381 40.8846C257.207 40.9994 257.006 41.0568 256.779 41.0568C256.604 41.0568 256.464 41.0278 256.358 40.9698C256.253 40.9106 256.172 40.8437 256.115 40.7692C256.058 40.6934 256.014 40.6307 255.984 40.581H255.948V42.0227H255.529ZM255.941 39.6364C255.941 39.8423 255.971 40.024 256.032 40.1815C256.092 40.3377 256.18 40.4602 256.296 40.549C256.412 40.6366 256.554 40.6804 256.722 40.6804C256.897 40.6804 257.044 40.6342 257.161 40.5419C257.279 40.4484 257.368 40.3229 257.427 40.1655C257.487 40.0069 257.518 39.8305 257.518 39.6364C257.518 39.4446 257.488 39.2718 257.429 39.1179C257.371 38.9628 257.283 38.8403 257.164 38.7504C257.047 38.6592 256.9 38.6136 256.722 38.6136C256.552 38.6136 256.409 38.6568 256.293 38.7433C256.177 38.8285 256.089 38.948 256.03 39.1019C255.971 39.2546 255.941 39.4328 255.941 39.6364ZM258.995 37.3636V41H258.576V37.3636H258.995ZM260.906 41.0568C260.643 41.0568 260.416 40.9988 260.226 40.8828C260.036 40.7656 259.89 40.6023 259.787 40.3928C259.685 40.1821 259.635 39.937 259.635 39.6577C259.635 39.3783 259.685 39.1321 259.787 38.919C259.89 38.7048 260.033 38.5379 260.217 38.4183C260.402 38.2976 260.617 38.2372 260.863 38.2372C261.005 38.2372 261.146 38.2609 261.284 38.3082C261.423 38.3556 261.549 38.4325 261.662 38.5391C261.776 38.6444 261.866 38.7841 261.934 38.9581C262.001 39.1321 262.035 39.3464 262.035 39.6009V39.7784H259.933V39.4162H261.609C261.609 39.2623 261.578 39.125 261.517 39.0043C261.456 38.8835 261.37 38.7882 261.257 38.7184C261.146 38.6486 261.015 38.6136 260.863 38.6136C260.696 38.6136 260.552 38.6551 260.43 38.7379C260.309 38.8196 260.216 38.9261 260.151 39.0575C260.086 39.1889 260.054 39.3298 260.054 39.4801V39.7216C260.054 39.9276 260.089 40.1022 260.16 40.2454C260.232 40.3874 260.332 40.4957 260.46 40.5703C260.588 40.6437 260.737 40.6804 260.906 40.6804C261.016 40.6804 261.115 40.665 261.204 40.6342C261.294 40.6023 261.372 40.5549 261.437 40.4922C261.502 40.4283 261.552 40.349 261.588 40.2543L261.993 40.3679C261.95 40.5052 261.878 40.6259 261.778 40.7301C261.677 40.8331 261.553 40.9136 261.405 40.9716C261.257 41.0284 261.091 41.0568 260.906 41.0568ZM262.673 41V38.2727H263.077V38.6989H263.113C263.17 38.5533 263.261 38.4402 263.388 38.3597C263.515 38.2781 263.667 38.2372 263.844 38.2372C264.024 38.2372 264.174 38.2781 264.294 38.3597C264.414 38.4402 264.509 38.5533 264.576 38.6989H264.604C264.674 38.558 264.779 38.4461 264.919 38.3633C265.058 38.2792 265.226 38.2372 265.421 38.2372C265.665 38.2372 265.864 38.3136 266.02 38.4663C266.175 38.6178 266.252 38.8539 266.252 39.1747V41H265.833V39.1747C265.833 38.9735 265.778 38.8297 265.668 38.7433C265.558 38.6568 265.428 38.6136 265.279 38.6136C265.087 38.6136 264.939 38.6716 264.833 38.7876C264.728 38.9025 264.675 39.0481 264.675 39.2244V41H264.249V39.1321C264.249 38.977 264.199 38.8522 264.098 38.7575C263.998 38.6616 263.868 38.6136 263.71 38.6136C263.601 38.6136 263.499 38.6426 263.404 38.7006C263.311 38.7586 263.235 38.8391 263.177 38.9421C263.12 39.0439 263.092 39.1617 263.092 39.2955V41H262.673ZM268.162 41.0568C267.899 41.0568 267.672 40.9988 267.482 40.8828C267.292 40.7656 267.146 40.6023 267.043 40.3928C266.941 40.1821 266.89 39.937 266.89 39.6577C266.89 39.3783 266.941 39.1321 267.043 38.919C267.146 38.7048 267.289 38.5379 267.473 38.4183C267.657 38.2976 267.873 38.2372 268.119 38.2372C268.261 38.2372 268.401 38.2609 268.54 38.3082C268.678 38.3556 268.805 38.4325 268.918 38.5391C269.032 38.6444 269.122 38.7841 269.19 38.9581C269.257 39.1321 269.291 39.3464 269.291 39.6009V39.7784H267.189V39.4162H268.865C268.865 39.2623 268.834 39.125 268.773 39.0043C268.712 38.8835 268.626 38.7882 268.513 38.7184C268.402 38.6486 268.271 38.6136 268.119 38.6136C267.952 38.6136 267.808 38.6551 267.686 38.7379C267.565 38.8196 267.472 38.9261 267.407 39.0575C267.342 39.1889 267.309 39.3298 267.309 39.4801V39.7216C267.309 39.9276 267.345 40.1022 267.416 40.2454C267.488 40.3874 267.588 40.4957 267.716 40.5703C267.844 40.6437 267.992 40.6804 268.162 40.6804C268.272 40.6804 268.371 40.665 268.46 40.6342C268.55 40.6023 268.628 40.5549 268.693 40.4922C268.758 40.4283 268.808 40.349 268.844 40.2543L269.248 40.3679C269.206 40.5052 269.134 40.6259 269.034 40.7301C268.933 40.8331 268.809 40.9136 268.661 40.9716C268.513 41.0284 268.346 41.0568 268.162 41.0568ZM270.347 39.3594V41H269.928V38.2727H270.333V38.6989H270.369C270.433 38.5604 270.53 38.4491 270.66 38.3651C270.79 38.2798 270.958 38.2372 271.164 38.2372C271.349 38.2372 271.51 38.2751 271.649 38.3509C271.787 38.4254 271.895 38.5391 271.972 38.6918C272.049 38.8433 272.088 39.035 272.088 39.267V41H271.669V39.2955C271.669 39.0812 271.613 38.9143 271.502 38.7947C271.39 38.674 271.238 38.6136 271.044 38.6136C270.91 38.6136 270.79 38.6426 270.685 38.7006C270.581 38.7586 270.498 38.8433 270.438 38.9545C270.378 39.0658 270.347 39.2008 270.347 39.3594ZM274.039 38.2727V38.6278H272.626V38.2727H274.039ZM273.038 37.6193H273.457V40.2188C273.457 40.3371 273.474 40.4259 273.508 40.4851C273.544 40.5431 273.589 40.5821 273.643 40.6023C273.699 40.6212 273.758 40.6307 273.819 40.6307C273.865 40.6307 273.903 40.6283 273.933 40.6236C273.962 40.6177 273.986 40.6129 274.004 40.6094L274.089 40.9858C274.061 40.9964 274.021 41.0071 273.97 41.0178C273.919 41.0296 273.855 41.0355 273.777 41.0355C273.658 41.0355 273.542 41.0101 273.429 40.9592C273.316 40.9083 273.223 40.8307 273.148 40.7266C273.075 40.6224 273.038 40.491 273.038 40.3324V37.6193ZM275.472 41.0639C275.299 41.0639 275.143 41.0314 275.002 40.9663C274.861 40.9 274.749 40.8047 274.666 40.6804C274.583 40.5549 274.542 40.4034 274.542 40.2259C274.542 40.0696 274.573 39.9429 274.634 39.8459C274.696 39.7476 274.778 39.6707 274.881 39.6151C274.984 39.5594 275.098 39.518 275.222 39.4908C275.347 39.4624 275.473 39.4399 275.6 39.4233C275.766 39.402 275.9 39.386 276.003 39.3754C276.107 39.3635 276.183 39.344 276.23 39.3168C276.279 39.2895 276.303 39.2422 276.303 39.1747V39.1605C276.303 38.9853 276.255 38.8492 276.159 38.7521C276.065 38.6551 275.921 38.6065 275.728 38.6065C275.528 38.6065 275.371 38.6503 275.257 38.7379C275.144 38.8255 275.064 38.919 275.018 39.0185L274.62 38.8764C274.691 38.7107 274.786 38.5817 274.904 38.4893C275.024 38.3958 275.154 38.3307 275.295 38.294C275.437 38.2562 275.576 38.2372 275.714 38.2372C275.801 38.2372 275.902 38.2479 276.016 38.2692C276.13 38.2893 276.241 38.3313 276.348 38.3952C276.455 38.4592 276.545 38.5556 276.616 38.6847C276.687 38.8137 276.722 38.9865 276.722 39.2031V41H276.303V40.6307H276.282C276.253 40.6899 276.206 40.7532 276.14 40.8207C276.074 40.8881 275.985 40.9455 275.875 40.9929C275.765 41.0402 275.631 41.0639 275.472 41.0639ZM275.536 40.6875C275.702 40.6875 275.842 40.6549 275.955 40.5898C276.07 40.5247 276.156 40.4407 276.214 40.3377C276.274 40.2347 276.303 40.1264 276.303 40.0128V39.6293C276.285 39.6506 276.246 39.6701 276.186 39.6879C276.127 39.7044 276.058 39.7192 275.98 39.7322C275.903 39.7441 275.828 39.7547 275.755 39.7642C275.682 39.7725 275.624 39.7796 275.579 39.7855C275.47 39.7997 275.368 39.8228 275.273 39.8548C275.18 39.8855 275.104 39.9323 275.046 39.995C274.989 40.0566 274.961 40.1406 274.961 40.2472C274.961 40.3928 275.015 40.5028 275.122 40.5774C275.231 40.6508 275.369 40.6875 275.536 40.6875ZM278.673 38.2727V38.6278H277.26V38.2727H278.673ZM277.672 37.6193H278.091V40.2188C278.091 40.3371 278.108 40.4259 278.142 40.4851C278.178 40.5431 278.223 40.5821 278.277 40.6023C278.333 40.6212 278.391 40.6307 278.453 40.6307C278.499 40.6307 278.537 40.6283 278.567 40.6236C278.596 40.6177 278.62 40.6129 278.638 40.6094L278.723 40.9858C278.694 40.9964 278.655 41.0071 278.604 41.0178C278.553 41.0296 278.488 41.0355 278.41 41.0355C278.292 41.0355 278.176 41.0101 278.062 40.9592C277.95 40.9083 277.856 40.8307 277.782 40.7266C277.708 40.6224 277.672 40.491 277.672 40.3324V37.6193ZM279.303 41V38.2727H279.722V41H279.303ZM279.517 37.8182C279.435 37.8182 279.364 37.7904 279.305 37.7347C279.247 37.6791 279.218 37.6122 279.218 37.5341C279.218 37.456 279.247 37.3891 279.305 37.3335C279.364 37.2778 279.435 37.25 279.517 37.25C279.598 37.25 279.668 37.2778 279.726 37.3335C279.785 37.3891 279.815 37.456 279.815 37.5341C279.815 37.6122 279.785 37.6791 279.726 37.7347C279.668 37.7904 279.598 37.8182 279.517 37.8182ZM281.598 41.0568C281.352 41.0568 281.136 40.9982 280.95 40.881C280.765 40.7638 280.621 40.5999 280.517 40.3892C280.414 40.1785 280.362 39.9323 280.362 39.6506C280.362 39.3665 280.414 39.1185 280.517 38.9066C280.621 38.6947 280.765 38.5302 280.95 38.413C281.136 38.2958 281.352 38.2372 281.598 38.2372C281.844 38.2372 282.06 38.2958 282.244 38.413C282.43 38.5302 282.574 38.6947 282.677 38.9066C282.782 39.1185 282.834 39.3665 282.834 39.6506C282.834 39.9323 282.782 40.1785 282.677 40.3892C282.574 40.5999 282.43 40.7638 282.244 40.881C282.06 40.9982 281.844 41.0568 281.598 41.0568ZM281.598 40.6804C281.785 40.6804 281.939 40.6325 282.06 40.5366C282.18 40.4407 282.27 40.3146 282.328 40.1584C282.386 40.0021 282.415 39.8329 282.415 39.6506C282.415 39.4683 282.386 39.2984 282.328 39.141C282.27 38.9835 282.18 38.8563 282.06 38.7592C281.939 38.6622 281.785 38.6136 281.598 38.6136C281.411 38.6136 281.257 38.6622 281.136 38.7592C281.016 38.8563 280.926 38.9835 280.868 39.141C280.81 39.2984 280.781 39.4683 280.781 39.6506C280.781 39.8329 280.81 40.0021 280.868 40.1584C280.926 40.3146 281.016 40.4407 281.136 40.5366C281.257 40.6325 281.411 40.6804 281.598 40.6804ZM283.892 39.3594V41H283.473V38.2727H283.878V38.6989H283.914C283.978 38.5604 284.075 38.4491 284.205 38.3651C284.335 38.2798 284.503 38.2372 284.709 38.2372C284.894 38.2372 285.055 38.2751 285.194 38.3509C285.332 38.4254 285.44 38.5391 285.517 38.6918C285.594 38.8433 285.632 39.035 285.632 39.267V41H285.213V39.2955C285.213 39.0812 285.158 38.9143 285.047 38.7947C284.935 38.674 284.783 38.6136 284.588 38.6136C284.455 38.6136 284.335 38.6426 284.23 38.7006C284.126 38.7586 284.043 38.8433 283.983 38.9545C283.923 39.0658 283.892 39.2008 283.892 39.3594ZM287.861 41V37.3636H289.09C289.375 37.3636 289.608 37.4151 289.79 37.5181C289.972 37.6199 290.107 37.7578 290.194 37.9318C290.282 38.1058 290.326 38.3 290.326 38.5142C290.326 38.7285 290.282 38.9232 290.194 39.0984C290.108 39.2736 289.974 39.4132 289.793 39.5174C289.612 39.6204 289.38 39.6719 289.097 39.6719H288.216V39.2812H289.083C289.278 39.2812 289.435 39.2475 289.553 39.18C289.672 39.1126 289.758 39.0214 289.811 38.9066C289.865 38.7906 289.892 38.6598 289.892 38.5142C289.892 38.3686 289.865 38.2384 289.811 38.1236C289.758 38.0088 289.671 37.9188 289.552 37.8537C289.432 37.7874 289.273 37.7543 289.076 37.7543H288.302V41H287.861ZM291.397 37.3636V41H290.978V37.3636H291.397ZM292.967 41.0639C292.795 41.0639 292.638 41.0314 292.497 40.9663C292.356 40.9 292.244 40.8047 292.161 40.6804C292.078 40.5549 292.037 40.4034 292.037 40.2259C292.037 40.0696 292.068 39.9429 292.129 39.8459C292.191 39.7476 292.273 39.6707 292.376 39.6151C292.479 39.5594 292.593 39.518 292.717 39.4908C292.842 39.4624 292.969 39.4399 293.095 39.4233C293.261 39.402 293.395 39.386 293.498 39.3754C293.602 39.3635 293.678 39.344 293.725 39.3168C293.774 39.2895 293.798 39.2422 293.798 39.1747V39.1605C293.798 38.9853 293.75 38.8492 293.654 38.7521C293.56 38.6551 293.416 38.6065 293.223 38.6065C293.023 38.6065 292.866 38.6503 292.752 38.7379C292.639 38.8255 292.559 38.919 292.513 39.0185L292.115 38.8764C292.186 38.7107 292.281 38.5817 292.399 38.4893C292.519 38.3958 292.649 38.3307 292.79 38.294C292.932 38.2562 293.071 38.2372 293.209 38.2372C293.296 38.2372 293.397 38.2479 293.511 38.2692C293.625 38.2893 293.736 38.3313 293.843 38.3952C293.95 38.4592 294.04 38.5556 294.111 38.6847C294.182 38.8137 294.217 38.9865 294.217 39.2031V41H293.798V40.6307H293.777C293.749 40.6899 293.701 40.7532 293.635 40.8207C293.569 40.8881 293.48 40.9455 293.37 40.9929C293.26 41.0402 293.126 41.0639 292.967 41.0639ZM293.031 40.6875C293.197 40.6875 293.337 40.6549 293.45 40.5898C293.565 40.5247 293.652 40.4407 293.71 40.3377C293.769 40.2347 293.798 40.1264 293.798 40.0128V39.6293C293.781 39.6506 293.741 39.6701 293.681 39.6879C293.622 39.7044 293.553 39.7192 293.475 39.7322C293.398 39.7441 293.323 39.7547 293.25 39.7642C293.177 39.7725 293.119 39.7796 293.074 39.7855C292.965 39.7997 292.863 39.8228 292.768 39.8548C292.675 39.8855 292.599 39.9323 292.541 39.995C292.484 40.0566 292.456 40.1406 292.456 40.2472C292.456 40.3928 292.51 40.5028 292.618 40.5774C292.726 40.6508 292.864 40.6875 293.031 40.6875ZM295.401 39.3594V41H294.982V38.2727H295.387V38.6989H295.422C295.486 38.5604 295.583 38.4491 295.714 38.3651C295.844 38.2798 296.012 38.2372 296.218 38.2372C296.403 38.2372 296.564 38.2751 296.703 38.3509C296.841 38.4254 296.949 38.5391 297.026 38.6918C297.103 38.8433 297.141 39.035 297.141 39.267V41H296.722V39.2955C296.722 39.0812 296.667 38.9143 296.555 38.7947C296.444 38.674 296.291 38.6136 296.097 38.6136C295.963 38.6136 295.844 38.6426 295.739 38.7006C295.634 38.7586 295.552 38.8433 295.492 38.9545C295.431 39.0658 295.401 39.2008 295.401 39.3594ZM251.369 47L250.538 44.2727H250.978L251.568 46.3608H251.596L252.179 44.2727H252.626L253.201 46.3537H253.23L253.819 44.2727H254.26L253.429 47H253.017L252.42 44.9048H252.378L251.781 47H251.369ZM254.814 47V44.2727H255.233V47H254.814ZM255.027 43.8182C254.945 43.8182 254.875 43.7904 254.815 43.7347C254.757 43.6791 254.728 43.6122 254.728 43.5341C254.728 43.456 254.757 43.3891 254.815 43.3335C254.875 43.2778 254.945 43.25 255.027 43.25C255.108 43.25 255.178 43.2778 255.236 43.3335C255.295 43.3891 255.325 43.456 255.325 43.5341C255.325 43.6122 255.295 43.6791 255.236 43.7347C255.178 43.7904 255.108 43.8182 255.027 43.8182ZM257.186 44.2727V44.6278H255.773V44.2727H257.186ZM256.185 43.6193H256.604V46.2188C256.604 46.3371 256.621 46.4259 256.655 46.4851C256.691 46.5431 256.736 46.5821 256.79 46.6023C256.846 46.6212 256.905 46.6307 256.966 46.6307C257.012 46.6307 257.05 46.6283 257.08 46.6236C257.109 46.6177 257.133 46.6129 257.151 46.6094L257.236 46.9858C257.208 46.9964 257.168 47.0071 257.117 47.0178C257.066 47.0296 257.002 47.0355 256.924 47.0355C256.805 47.0355 256.689 47.0101 256.576 46.9592C256.463 46.9083 256.37 46.8307 256.295 46.7266C256.222 46.6224 256.185 46.491 256.185 46.3324V43.6193ZM258.294 45.3594V47H257.875V43.3636H258.294V44.6989H258.33C258.394 44.558 258.49 44.4461 258.617 44.3633C258.746 44.2792 258.918 44.2372 259.132 44.2372C259.318 44.2372 259.481 44.2745 259.621 44.3491C259.76 44.4225 259.869 44.5355 259.946 44.6882C260.024 44.8397 260.063 45.0327 260.063 45.267V47H259.644V45.2955C259.644 45.0788 259.587 44.9113 259.475 44.793C259.364 44.6734 259.209 44.6136 259.012 44.6136C258.874 44.6136 258.751 44.6426 258.642 44.7006C258.535 44.7586 258.449 44.8433 258.387 44.9545C258.325 45.0658 258.294 45.2008 258.294 45.3594ZM262.094 43.7543V43.3636H264.821V43.7543H263.677V47H263.237V43.7543H262.094ZM265.875 47.0639C265.702 47.0639 265.545 47.0314 265.405 46.9663C265.264 46.9 265.152 46.8047 265.069 46.6804C264.986 46.5549 264.945 46.4034 264.945 46.2259C264.945 46.0696 264.975 45.9429 265.037 45.8459C265.099 45.7476 265.181 45.6707 265.284 45.6151C265.387 45.5594 265.5 45.518 265.625 45.4908C265.75 45.4624 265.876 45.4399 266.003 45.4233C266.169 45.402 266.303 45.386 266.406 45.3754C266.51 45.3635 266.586 45.344 266.633 45.3168C266.682 45.2895 266.706 45.2422 266.706 45.1747V45.1605C266.706 44.9853 266.658 44.8492 266.562 44.7521C266.467 44.6551 266.324 44.6065 266.131 44.6065C265.931 44.6065 265.774 44.6503 265.66 44.7379C265.547 44.8255 265.467 44.919 265.42 45.0185L265.023 44.8764C265.094 44.7107 265.188 44.5817 265.307 44.4893C265.426 44.3958 265.557 44.3307 265.697 44.294C265.84 44.2562 265.979 44.2372 266.117 44.2372C266.204 44.2372 266.305 44.2479 266.418 44.2692C266.533 44.2893 266.644 44.3313 266.75 44.3952C266.858 44.4592 266.947 44.5556 267.019 44.6847C267.09 44.8137 267.125 44.9865 267.125 45.2031V47H266.706V46.6307H266.685C266.656 46.6899 266.609 46.7532 266.543 46.8207C266.476 46.8881 266.388 46.9455 266.278 46.9929C266.168 47.0402 266.034 47.0639 265.875 47.0639ZM265.939 46.6875C266.105 46.6875 266.244 46.6549 266.358 46.5898C266.473 46.5247 266.559 46.4407 266.617 46.3377C266.676 46.2347 266.706 46.1264 266.706 46.0128V45.6293C266.688 45.6506 266.649 45.6701 266.589 45.6879C266.53 45.7044 266.461 45.7192 266.383 45.7322C266.306 45.7441 266.231 45.7547 266.157 45.7642C266.085 45.7725 266.027 45.7796 265.982 45.7855C265.873 45.7997 265.771 45.8228 265.676 45.8548C265.583 45.8855 265.507 45.9323 265.449 45.995C265.392 46.0566 265.364 46.1406 265.364 46.2472C265.364 46.3928 265.418 46.5028 265.525 46.5774C265.634 46.6508 265.772 46.6875 265.939 46.6875ZM269.822 44.8835L269.445 44.9901C269.422 44.9273 269.387 44.8664 269.341 44.8072C269.296 44.7468 269.234 44.6971 269.156 44.658C269.078 44.619 268.978 44.5994 268.856 44.5994C268.689 44.5994 268.55 44.6379 268.439 44.7148C268.328 44.7906 268.273 44.8871 268.273 45.0043C268.273 45.1084 268.311 45.1907 268.387 45.2511C268.463 45.3114 268.581 45.3617 268.742 45.402L269.147 45.5014C269.391 45.5606 269.573 45.6512 269.692 45.7731C269.812 45.8938 269.871 46.0495 269.871 46.2401C269.871 46.3963 269.826 46.536 269.736 46.6591C269.648 46.7822 269.523 46.8793 269.364 46.9503C269.204 47.0213 269.018 47.0568 268.806 47.0568C268.528 47.0568 268.298 46.9964 268.115 46.8757C267.933 46.755 267.818 46.5786 267.769 46.3466L268.167 46.2472C268.205 46.3939 268.276 46.504 268.382 46.5774C268.488 46.6508 268.627 46.6875 268.799 46.6875C268.994 46.6875 269.149 46.6461 269.264 46.5632C269.38 46.4792 269.438 46.3786 269.438 46.2614C269.438 46.1667 269.405 46.0874 269.339 46.0234C269.272 45.9583 269.171 45.9098 269.033 45.8778L268.579 45.7713C268.329 45.7121 268.146 45.6204 268.028 45.4961C267.912 45.3706 267.854 45.2138 267.854 45.0256C267.854 44.8717 267.898 44.7356 267.984 44.6172C268.072 44.4988 268.191 44.4059 268.341 44.3384C268.492 44.271 268.664 44.2372 268.856 44.2372C269.126 44.2372 269.338 44.2964 269.491 44.4148C269.646 44.5331 269.757 44.6894 269.822 44.8835ZM270.893 46.0057L270.886 45.4872H270.971L272.164 44.2727H272.683L271.411 45.5582H271.376L270.893 46.0057ZM270.502 47V43.3636H270.921V47H270.502ZM272.235 47L271.17 45.6506L271.468 45.3594L272.768 47H272.235ZM275.154 44.8835L274.777 44.9901C274.754 44.9273 274.719 44.8664 274.673 44.8072C274.628 44.7468 274.566 44.6971 274.488 44.658C274.41 44.619 274.31 44.5994 274.188 44.5994C274.021 44.5994 273.882 44.6379 273.771 44.7148C273.66 44.7906 273.605 44.8871 273.605 45.0043C273.605 45.1084 273.643 45.1907 273.719 45.2511C273.795 45.3114 273.913 45.3617 274.074 45.402L274.479 45.5014C274.723 45.5606 274.905 45.6512 275.024 45.7731C275.144 45.8938 275.203 46.0495 275.203 46.2401C275.203 46.3963 275.158 46.536 275.068 46.6591C274.98 46.7822 274.855 46.8793 274.696 46.9503C274.536 47.0213 274.35 47.0568 274.138 47.0568C273.86 47.0568 273.63 46.9964 273.447 46.8757C273.265 46.755 273.15 46.5786 273.101 46.3466L273.499 46.2472C273.537 46.3939 273.608 46.504 273.714 46.5774C273.82 46.6508 273.959 46.6875 274.131 46.6875C274.326 46.6875 274.481 46.6461 274.596 46.5632C274.712 46.4792 274.77 46.3786 274.77 46.2614C274.77 46.1667 274.737 46.0874 274.671 46.0234C274.604 45.9583 274.503 45.9098 274.365 45.8778L273.911 45.7713C273.661 45.7121 273.478 45.6204 273.36 45.4961C273.244 45.3706 273.186 45.2138 273.186 45.0256C273.186 44.8717 273.23 44.7356 273.316 44.6172C273.404 44.4988 273.523 44.4059 273.673 44.3384C273.824 44.271 273.996 44.2372 274.188 44.2372C274.458 44.2372 274.67 44.2964 274.823 44.4148C274.979 44.5331 275.089 44.6894 275.154 44.8835ZM278.341 48.0795C278.139 48.0795 277.965 48.0535 277.819 48.0014C277.674 47.9505 277.552 47.883 277.455 47.799C277.359 47.7161 277.283 47.6274 277.226 47.5327L277.56 47.2983C277.598 47.348 277.646 47.4048 277.704 47.4688C277.762 47.5339 277.841 47.5901 277.942 47.6374C278.044 47.686 278.177 47.7102 278.341 47.7102C278.561 47.7102 278.743 47.657 278.886 47.5504C279.03 47.4439 279.101 47.277 279.101 47.0497V46.4957H279.066C279.035 46.5455 278.991 46.607 278.934 46.6804C278.879 46.7526 278.798 46.8171 278.693 46.8739C278.589 46.9296 278.448 46.9574 278.27 46.9574C278.05 46.9574 277.852 46.9053 277.677 46.8011C277.503 46.697 277.365 46.5455 277.264 46.3466C277.163 46.1477 277.113 45.9062 277.113 45.6222C277.113 45.3428 277.162 45.0996 277.26 44.8924C277.358 44.6841 277.495 44.5231 277.67 44.4094C277.845 44.2946 278.048 44.2372 278.277 44.2372C278.455 44.2372 278.596 44.2668 278.7 44.326C278.805 44.384 278.886 44.4503 278.941 44.5249C278.998 44.5982 279.042 44.6586 279.073 44.706H279.115V44.2727H279.52V47.0781C279.52 47.3125 279.467 47.5031 279.36 47.6499C279.255 47.7978 279.113 47.9061 278.934 47.9748C278.757 48.0446 278.559 48.0795 278.341 48.0795ZM278.327 46.581C278.495 46.581 278.637 46.5425 278.753 46.4656C278.869 46.3886 278.957 46.2779 279.018 46.1335C279.078 45.9891 279.108 45.8163 279.108 45.6151C279.108 45.4186 279.079 45.2451 279.02 45.0948C278.96 44.9445 278.873 44.8267 278.757 44.7415C278.641 44.6562 278.498 44.6136 278.327 44.6136C278.15 44.6136 278.002 44.6586 277.883 44.7486C277.766 44.8385 277.678 44.9593 277.619 45.1108C277.561 45.2623 277.532 45.4304 277.532 45.6151C277.532 45.8045 277.561 45.9719 277.62 46.1175C277.681 46.262 277.77 46.3756 277.887 46.4585C278.005 46.5401 278.152 46.581 278.327 46.581ZM280.287 47V44.2727H280.692V44.6847H280.721C280.77 44.5497 280.86 44.4402 280.99 44.3562C281.121 44.2721 281.267 44.2301 281.431 44.2301C281.462 44.2301 281.5 44.2307 281.546 44.2319C281.592 44.2331 281.627 44.2348 281.651 44.2372V44.6634C281.637 44.6598 281.604 44.6545 281.553 44.6474C281.504 44.6391 281.451 44.6349 281.395 44.6349C281.263 44.6349 281.144 44.6628 281.04 44.7184C280.937 44.7728 280.856 44.8486 280.795 44.9457C280.736 45.0415 280.706 45.151 280.706 45.2741V47H280.287ZM283.173 47.0568C282.926 47.0568 282.71 46.9982 282.525 46.881C282.34 46.7638 282.195 46.5999 282.091 46.3892C281.988 46.1785 281.937 45.9323 281.937 45.6506C281.937 45.3665 281.988 45.1185 282.091 44.9066C282.195 44.6947 282.34 44.5302 282.525 44.413C282.71 44.2958 282.926 44.2372 283.173 44.2372C283.419 44.2372 283.634 44.2958 283.819 44.413C284.005 44.5302 284.149 44.6947 284.252 44.9066C284.356 45.1185 284.408 45.3665 284.408 45.6506C284.408 45.9323 284.356 46.1785 284.252 46.3892C284.149 46.5999 284.005 46.7638 283.819 46.881C283.634 46.9982 283.419 47.0568 283.173 47.0568ZM283.173 46.6804C283.36 46.6804 283.514 46.6325 283.634 46.5366C283.755 46.4407 283.844 46.3146 283.902 46.1584C283.96 46.0021 283.989 45.8329 283.989 45.6506C283.989 45.4683 283.96 45.2984 283.902 45.141C283.844 44.9835 283.755 44.8563 283.634 44.7592C283.514 44.6622 283.36 44.6136 283.173 44.6136C282.986 44.6136 282.832 44.6622 282.711 44.7592C282.59 44.8563 282.501 44.9835 282.443 45.141C282.385 45.2984 282.356 45.4683 282.356 45.6506C282.356 45.8329 282.385 46.0021 282.443 46.1584C282.501 46.3146 282.59 46.4407 282.711 46.5366C282.832 46.6325 282.986 46.6804 283.173 46.6804ZM286.767 45.8849V44.2727H287.186V47H286.767V46.5384H286.738C286.674 46.6768 286.575 46.7946 286.44 46.8917C286.305 46.9876 286.135 47.0355 285.929 47.0355C285.758 47.0355 285.607 46.9982 285.474 46.9237C285.342 46.8479 285.237 46.7343 285.162 46.5827C285.086 46.43 285.048 46.2377 285.048 46.0057V44.2727H285.467V45.9773C285.467 46.1761 285.523 46.3348 285.634 46.4531C285.746 46.5715 285.89 46.6307 286.064 46.6307C286.168 46.6307 286.274 46.604 286.382 46.5508C286.49 46.4975 286.582 46.4158 286.655 46.3058C286.73 46.1957 286.767 46.0554 286.767 45.8849ZM287.953 48.0227V44.2727H288.358V44.706H288.408C288.439 44.6586 288.481 44.5982 288.536 44.5249C288.591 44.4503 288.671 44.384 288.774 44.326C288.878 44.2668 289.019 44.2372 289.196 44.2372C289.426 44.2372 289.628 44.2946 289.803 44.4094C289.979 44.5243 290.115 44.687 290.214 44.8977C290.312 45.1084 290.361 45.357 290.361 45.6435C290.361 45.9323 290.312 46.1826 290.214 46.3945C290.115 46.6052 289.979 46.7686 289.805 46.8846C289.631 46.9994 289.431 47.0568 289.203 47.0568C289.028 47.0568 288.888 47.0278 288.783 46.9698C288.677 46.9106 288.596 46.8437 288.539 46.7692C288.482 46.6934 288.439 46.6307 288.408 46.581H288.372V48.0227H287.953ZM288.365 45.6364C288.365 45.8423 288.395 46.024 288.456 46.1815C288.516 46.3377 288.604 46.4602 288.72 46.549C288.836 46.6366 288.978 46.6804 289.147 46.6804C289.322 46.6804 289.468 46.6342 289.585 46.5419C289.703 46.4484 289.792 46.3229 289.851 46.1655C289.912 46.0069 289.942 45.8305 289.942 45.6364C289.942 45.4446 289.912 45.2718 289.853 45.1179C289.795 44.9628 289.707 44.8403 289.589 44.7504C289.471 44.6592 289.324 44.6136 289.147 44.6136C288.976 44.6136 288.833 44.6568 288.717 44.7433C288.601 44.8285 288.513 44.948 288.454 45.1019C288.395 45.2546 288.365 45.4328 288.365 45.6364ZM292.144 47.0568C291.881 47.0568 291.654 46.9988 291.464 46.8828C291.274 46.7656 291.128 46.6023 291.025 46.3928C290.923 46.1821 290.872 45.937 290.872 45.6577C290.872 45.3783 290.923 45.1321 291.025 44.919C291.128 44.7048 291.271 44.5379 291.455 44.4183C291.639 44.2976 291.855 44.2372 292.101 44.2372C292.243 44.2372 292.383 44.2609 292.522 44.3082C292.66 44.3556 292.786 44.4325 292.9 44.5391C293.014 44.6444 293.104 44.7841 293.172 44.9581C293.239 45.1321 293.273 45.3464 293.273 45.6009V45.7784H291.171V45.4162H292.847C292.847 45.2623 292.816 45.125 292.754 45.0043C292.694 44.8835 292.608 44.7882 292.495 44.7184C292.384 44.6486 292.253 44.6136 292.101 44.6136C291.934 44.6136 291.79 44.6551 291.668 44.7379C291.547 44.8196 291.454 44.9261 291.389 45.0575C291.324 45.1889 291.291 45.3298 291.291 45.4801V45.7216C291.291 45.9276 291.327 46.1022 291.398 46.2454C291.47 46.3874 291.57 46.4957 291.698 46.5703C291.826 46.6437 291.974 46.6804 292.144 46.6804C292.254 46.6804 292.353 46.665 292.442 46.6342C292.532 46.6023 292.609 46.5549 292.675 46.4922C292.74 46.4283 292.79 46.349 292.826 46.2543L293.23 46.3679C293.188 46.5052 293.116 46.6259 293.015 46.7301C292.915 46.8331 292.791 46.9136 292.643 46.9716C292.495 47.0284 292.328 47.0568 292.144 47.0568ZM294.94 47.0568C294.713 47.0568 294.512 46.9994 294.338 46.8846C294.164 46.7686 294.028 46.6052 293.93 46.3945C293.832 46.1826 293.783 45.9323 293.783 45.6435C293.783 45.357 293.832 45.1084 293.93 44.8977C294.028 44.687 294.165 44.5243 294.34 44.4094C294.515 44.2946 294.718 44.2372 294.947 44.2372C295.125 44.2372 295.265 44.2668 295.368 44.326C295.472 44.384 295.552 44.4503 295.606 44.5249C295.662 44.5982 295.705 44.6586 295.736 44.706H295.771V43.3636H296.19V47H295.785V46.581H295.736C295.705 46.6307 295.661 46.6934 295.604 46.7692C295.547 46.8437 295.466 46.9106 295.361 46.9698C295.256 47.0278 295.115 47.0568 294.94 47.0568ZM294.997 46.6804C295.165 46.6804 295.307 46.6366 295.423 46.549C295.539 46.4602 295.627 46.3377 295.688 46.1815C295.748 46.024 295.778 45.8423 295.778 45.6364C295.778 45.4328 295.749 45.2546 295.689 45.1019C295.63 44.948 295.543 44.8285 295.427 44.7433C295.311 44.6568 295.167 44.6136 294.997 44.6136C294.819 44.6136 294.672 44.6592 294.553 44.7504C294.436 44.8403 294.348 44.9628 294.289 45.1179C294.231 45.2718 294.202 45.4446 294.202 45.6364C294.202 45.8305 294.231 46.0069 294.29 46.1655C294.351 46.3229 294.439 46.4484 294.557 46.5419C294.675 46.6342 294.822 46.6804 294.997 46.6804ZM265.246 53V49.3636H265.666V50.706H265.701C265.732 50.6586 265.774 50.5982 265.829 50.5249C265.885 50.4503 265.964 50.384 266.067 50.326C266.171 50.2668 266.312 50.2372 266.489 50.2372C266.719 50.2372 266.921 50.2946 267.097 50.4094C267.272 50.5243 267.409 50.687 267.507 50.8977C267.605 51.1084 267.654 51.357 267.654 51.6435C267.654 51.9323 267.605 52.1826 267.507 52.3945C267.409 52.6052 267.272 52.7686 267.098 52.8846C266.924 52.9994 266.724 53.0568 266.496 53.0568C266.321 53.0568 266.181 53.0278 266.076 52.9698C265.97 52.9106 265.889 52.8437 265.832 52.7692C265.776 52.6934 265.732 52.6307 265.701 52.581H265.651V53H265.246ZM265.658 51.6364C265.658 51.8423 265.689 52.024 265.749 52.1815C265.809 52.3377 265.898 52.4602 266.014 52.549C266.13 52.6366 266.272 52.6804 266.44 52.6804C266.615 52.6804 266.761 52.6342 266.878 52.5419C266.997 52.4484 267.085 52.3229 267.145 52.1655C267.205 52.0069 267.235 51.8305 267.235 51.6364C267.235 51.4446 267.206 51.2718 267.146 51.1179C267.088 50.9628 267 50.8403 266.882 50.7504C266.765 50.6592 266.617 50.6136 266.44 50.6136C266.269 50.6136 266.126 50.6568 266.01 50.7433C265.894 50.8285 265.806 50.948 265.747 51.1019C265.688 51.2546 265.658 51.4328 265.658 51.6364ZM268.467 54.0227C268.396 54.0227 268.333 54.0168 268.277 54.005C268.222 53.9943 268.183 53.9837 268.162 53.973L268.269 53.6037C268.37 53.6297 268.46 53.6392 268.538 53.6321C268.617 53.625 268.686 53.5901 268.746 53.5273C268.808 53.4658 268.864 53.3658 268.915 53.2273L268.993 53.0142L267.984 50.2727H268.439L269.192 52.446H269.22L269.973 50.2727H270.428L269.27 53.3977C269.218 53.5386 269.153 53.6552 269.076 53.7475C268.999 53.841 268.91 53.9103 268.808 53.9553C268.708 54.0002 268.594 54.0227 268.467 54.0227ZM273.601 50.2727V50.6278H272.131V50.2727H273.601ZM272.572 53V49.8963C272.572 49.7401 272.608 49.6098 272.682 49.5057C272.755 49.4015 272.85 49.3234 272.968 49.2713C273.085 49.2192 273.208 49.1932 273.339 49.1932C273.442 49.1932 273.526 49.2015 273.591 49.218C273.656 49.2346 273.704 49.25 273.736 49.2642L273.616 49.6264C273.594 49.6193 273.565 49.6104 273.527 49.5998C273.49 49.5891 273.442 49.5838 273.381 49.5838C273.243 49.5838 273.143 49.6187 273.081 49.6886C273.021 49.7584 272.991 49.8608 272.991 49.9957V53H272.572ZM274.189 53V50.2727H274.608V53H274.189ZM274.402 49.8182C274.32 49.8182 274.25 49.7904 274.19 49.7347C274.132 49.6791 274.103 49.6122 274.103 49.5341C274.103 49.456 274.132 49.3891 274.19 49.3335C274.25 49.2778 274.32 49.25 274.402 49.25C274.483 49.25 274.553 49.2778 274.611 49.3335C274.67 49.3891 274.7 49.456 274.7 49.5341C274.7 49.6122 274.67 49.6791 274.611 49.7347C274.553 49.7904 274.483 49.8182 274.402 49.8182ZM276.519 53.0568C276.256 53.0568 276.029 52.9988 275.839 52.8828C275.649 52.7656 275.503 52.6023 275.4 52.3928C275.298 52.1821 275.247 51.937 275.247 51.6577C275.247 51.3783 275.298 51.1321 275.4 50.919C275.503 50.7048 275.646 50.5379 275.83 50.4183C276.014 50.2976 276.23 50.2372 276.476 50.2372C276.618 50.2372 276.758 50.2609 276.897 50.3082C277.035 50.3556 277.161 50.4325 277.275 50.5391C277.389 50.6444 277.479 50.7841 277.547 50.9581C277.614 51.1321 277.648 51.3464 277.648 51.6009V51.7784H275.546V51.4162H277.222C277.222 51.2623 277.191 51.125 277.129 51.0043C277.069 50.8835 276.983 50.7882 276.87 50.7184C276.759 50.6486 276.628 50.6136 276.476 50.6136C276.309 50.6136 276.165 50.6551 276.043 50.7379C275.922 50.8196 275.829 50.9261 275.764 51.0575C275.699 51.1889 275.666 51.3298 275.666 51.4801V51.7216C275.666 51.9276 275.702 52.1022 275.773 52.2454C275.845 52.3874 275.945 52.4957 276.073 52.5703C276.201 52.6437 276.349 52.6804 276.519 52.6804C276.629 52.6804 276.728 52.665 276.817 52.6342C276.907 52.6023 276.984 52.5549 277.05 52.4922C277.115 52.4283 277.165 52.349 277.201 52.2543L277.605 52.3679C277.563 52.5052 277.491 52.6259 277.39 52.7301C277.29 52.8331 277.166 52.9136 277.018 52.9716C276.87 53.0284 276.703 53.0568 276.519 53.0568ZM278.704 49.3636V53H278.285V49.3636H278.704ZM280.502 53.0568C280.274 53.0568 280.074 52.9994 279.9 52.8846C279.726 52.7686 279.59 52.6052 279.491 52.3945C279.393 52.1826 279.344 51.9323 279.344 51.6435C279.344 51.357 279.393 51.1084 279.491 50.8977C279.59 50.687 279.726 50.5243 279.902 50.4094C280.077 50.2946 280.279 50.2372 280.509 50.2372C280.686 50.2372 280.827 50.2668 280.93 50.326C281.034 50.384 281.113 50.4503 281.168 50.5249C281.223 50.5982 281.266 50.6586 281.297 50.706H281.333V49.3636H281.752V53H281.347V52.581H281.297C281.266 52.6307 281.223 52.6934 281.166 52.7692C281.109 52.8437 281.028 52.9106 280.923 52.9698C280.817 53.0278 280.677 53.0568 280.502 53.0568ZM280.559 52.6804C280.727 52.6804 280.869 52.6366 280.985 52.549C281.101 52.4602 281.189 52.3377 281.249 52.1815C281.31 52.024 281.34 51.8423 281.34 51.6364C281.34 51.4328 281.31 51.2546 281.251 51.1019C281.192 50.948 281.104 50.8285 280.988 50.7433C280.872 50.6568 280.729 50.6136 280.559 50.6136C280.381 50.6136 280.233 50.6592 280.115 50.7504C279.997 50.8403 279.909 50.9628 279.85 51.1179C279.792 51.2718 279.763 51.4446 279.763 51.6364C279.763 51.8305 279.793 52.0069 279.852 52.1655C279.912 52.3229 280.001 52.4484 280.118 52.5419C280.237 52.6342 280.383 52.6804 280.559 52.6804Z" fill="white"/>
<path d="M269.406 8.02075H276.594C276.594 8.02075 277.792 8.02075 277.792 9.21867V11.6145C277.792 11.6145 277.792 12.8124 276.594 12.8124H269.406C269.406 12.8124 268.208 12.8124 268.208 11.6145V9.21867C268.208 9.21867 268.208 8.02075 269.406 8.02075Z" stroke="white" stroke-linecap="round" stroke-linejoin="round"/>
<path d="M277.792 10.4167H280.187C280.823 10.4167 281.432 10.6692 281.881 11.1185C282.331 11.5678 282.583 12.1772 282.583 12.8126V29.5834C282.583 30.2188 282.331 30.8282 281.881 31.2775C281.432 31.7268 280.823 31.9792 280.187 31.9792H265.812C265.177 31.9792 264.568 31.7268 264.118 31.2775C263.669 30.8282 263.417 30.2188 263.417 29.5834V12.8126C263.417 12.1772 263.669 11.5678 264.118 11.1185C264.568 10.6692 265.177 10.4167 265.812 10.4167H268.208" stroke="white" stroke-linecap="round" stroke-linejoin="round"/>
<path d="M274.111 17H279.222" stroke="#66B5B7" stroke-linecap="round" stroke-linejoin="round"/>
<path d="M269 17H269.012" stroke="#66B5B7" stroke-linecap="round" stroke-linejoin="round"/>
<path d="M274 21H279.111" stroke="#66B5B7" stroke-linecap="round" stroke-linejoin="round"/>
<path d="M269 21H269.012" stroke="#66B5B7" stroke-linecap="round" stroke-linejoin="round"/>
<path d="M274.111 25H279.222" stroke="#66B5B7" stroke-linecap="round" stroke-linejoin="round"/>
<path d="M269 25H269.012" stroke="#66B5B7" stroke-linecap="round" stroke-linejoin="round"/>
<path d="M116.354 35.3536C116.549 35.1583 116.549 34.8417 116.354 34.6464L113.172 31.4645C112.976 31.2692 112.66 31.2692 112.464 31.4645C112.269 31.6597 112.269 31.9763 112.464 32.1716L115.293 35L112.464 37.8284C112.269 38.0237 112.269 38.3403 112.464 38.5355C112.66 38.7308 112.976 38.7308 113.172 38.5355L116.354 35.3536ZM67 35V35.5H116V35V34.5H67V35Z" fill="white"/>
<path d="M66.6464 20.3536C66.4512 20.1583 66.4512 19.8417 66.6464 19.6464L69.8284 16.4645C70.0237 16.2692 70.3403 16.2692 70.5355 16.4645C70.7308 16.6597 70.7308 16.9763 70.5355 17.1716L67.7071 20L70.5355 22.8284C70.7308 23.0237 70.7308 23.3403 70.5355 23.5355C70.3403 23.7308 70.0237 23.7308 69.8284 23.5355L66.6464 20.3536ZM116 20V20.5H67V20V19.5H116V20Z" fill="white"/>
<path d="M237.354 28.3536C237.549 28.1583 237.549 27.8417 237.354 27.6464L234.172 24.4645C233.976 24.2692 233.66 24.2692 233.464 24.4645C233.269 24.6597 233.269 24.9763 233.464 25.1716L236.293 28L233.464 30.8284C233.269 31.0237 233.269 31.3403 233.464 31.5355C233.66 31.7308 233.976 31.7308 234.172 31.5355L237.354 28.3536ZM188 28V28.5H237V28V27.5H188V28Z" fill="white"/>
</svg>
