<svg width="319" height="98" viewBox="0 0 319 98" fill="none" xmlns="http://www.w3.org/2000/svg">
<rect x="145" width="40" height="98" rx="15" fill="#217C82" fill-opacity="0.67"/>
<path d="M167.196 31.7848H170.271C170.737 31.7848 171.184 31.5997 171.513 31.2702C171.843 30.9407 172.028 30.4938 172.028 30.0278V18.6077L167.635 14.2153H159.729C159.263 14.2153 158.816 14.4004 158.487 14.7299C158.157 15.0594 157.972 15.5063 157.972 15.9723V19.4862" stroke="white" stroke-linecap="round" stroke-linejoin="round"/>
<path d="M166.757 14.2153V17.7292C166.757 18.1952 166.942 18.6421 167.271 18.9716C167.601 19.3011 168.048 19.4862 168.514 19.4862H172.028" stroke="white" stroke-linecap="round" stroke-linejoin="round"/>
<path d="M157.094 23.9664C156.823 24.1227 156.599 24.3484 156.444 24.6201C156.29 24.8919 156.211 25.2 156.215 25.5125V28.3588C156.205 28.6717 156.279 28.9817 156.429 29.2566C156.578 29.5315 156.799 29.7614 157.067 29.9225L159.729 31.5213C159.999 31.6818 160.306 31.7672 160.62 31.7688C160.933 31.7703 161.241 31.6879 161.512 31.5301L164.122 29.94C164.392 29.7838 164.616 29.5581 164.771 29.2863C164.925 29.0146 165.004 28.7065 165 28.3939V25.5477C165.01 25.2348 164.937 24.9248 164.787 24.6499C164.637 24.375 164.416 24.1451 164.148 23.984L161.486 22.3852C161.217 22.2247 160.909 22.1393 160.596 22.1377C160.282 22.1362 159.974 22.2186 159.703 22.3764L157.094 23.9664Z" stroke="white" stroke-linecap="round" stroke-linejoin="round"/>
<path d="M160.608 27.3923V31.7847" stroke="white" stroke-linecap="round" stroke-linejoin="round"/>
<path d="M164.736 24.9326L160.608 27.3923L156.479 24.9326" stroke="white" stroke-linecap="round" stroke-linejoin="round"/>
<path d="M167.05 73.1667H160.388" stroke="white" stroke-linecap="round" stroke-linejoin="round"/>
<path d="M167.05 70.092H160.388" stroke="white" stroke-linecap="round" stroke-linejoin="round"/>
<path d="M163.975 76.2412H160.388" stroke="white" stroke-linecap="round" stroke-linejoin="round"/>
<path d="M169.612 70.092V75.2165C169.612 75.4883 169.504 75.749 169.312 75.9412C169.12 76.1334 168.859 76.2413 168.587 76.2413H166.025" stroke="white" stroke-linecap="round" stroke-linejoin="round"/>
<path d="M167.05 75.2166L166.025 76.2414L167.05 77.2663" stroke="white" stroke-linecap="round" stroke-linejoin="round"/>
<path d="M172.906 77.6354C172.906 78.1014 172.721 78.5483 172.392 78.8778C172.062 79.2073 171.615 79.3924 171.149 79.3924H160.608L157.094 82.9063V68.8507C157.094 68.3847 157.279 67.9378 157.608 67.6083C157.938 67.2789 158.385 67.0938 158.851 67.0938H171.149C171.615 67.0938 172.062 67.2789 172.392 67.6083C172.721 67.9378 172.906 68.3847 172.906 68.8507V77.6354Z" stroke="white" stroke-linecap="round" stroke-linejoin="round"/>
<path d="M256.854 49.3535C257.049 49.1582 257.049 48.8416 256.854 48.6463L253.672 45.4644C253.477 45.2691 253.16 45.2691 252.965 45.4644C252.769 45.6596 252.769 45.9762 252.965 46.1715L255.793 48.9999L252.965 51.8283C252.769 52.0236 252.769 52.3402 252.965 52.5354C253.16 52.7307 253.477 52.7307 253.672 52.5354L256.854 49.3535ZM177.5 22L177.5 22.5C193.356 22.4999 205.877 29.1843 218.07 35.9373C230.232 42.6731 242.098 49.5 256.5 49.4999L256.5 48.9999L256.5 48.4999C242.403 48.5 230.768 41.8268 218.555 35.0625C206.373 28.3156 193.644 21.4999 177.5 21.5L177.5 22Z" fill="white"/>
<path d="M256.857 48.65C257.05 48.8472 257.047 49.1638 256.85 49.3571L253.636 52.5071C253.439 52.7004 253.123 52.6972 252.929 52.5C252.736 52.3028 252.739 51.9863 252.936 51.793L255.793 48.993L252.993 46.1364C252.8 45.9392 252.803 45.6226 253 45.4293C253.197 45.236 253.514 45.2392 253.707 45.4364L256.857 48.65ZM178 76L178 75.5C193.853 75.5001 206.146 68.7461 218.164 61.9564C230.154 55.1831 241.896 48.354 256.505 48.5L256.5 49L256.495 49.5C242.199 49.3571 230.691 56.0281 218.656 62.8271C206.651 69.6096 194.147 76.5001 178 76.5L178 76Z" fill="white"/>
<path d="M153.354 21.6465C153.549 21.8418 153.549 22.1584 153.354 22.3536L150.172 25.5356C149.976 25.7309 149.66 25.7309 149.464 25.5356C149.269 25.3404 149.269 25.0238 149.464 24.8285L152.293 22.0001L149.464 19.1717C149.269 18.9764 149.269 18.6598 149.464 18.4646C149.66 18.2693 149.976 18.2693 150.172 18.4646L153.354 21.6465ZM59.6193 49.0648L59.6193 48.5648C77.4898 48.5646 91.2374 41.8528 105.343 35.0815C119.436 28.3163 133.874 21.5001 153 21.5001L153 22.0001L153 22.5001C134.126 22.5001 119.873 29.216 105.776 35.983C91.6915 42.744 77.7488 49.5646 59.6193 49.5648L59.6193 49.0648Z" fill="white"/>
<path d="M153.354 76.3534C153.549 76.1581 153.549 75.8415 153.354 75.6463L150.172 72.4643C149.976 72.269 149.66 72.269 149.464 72.4643C149.269 72.6596 149.269 72.9761 149.464 73.1714L152.293 75.9998L149.464 78.8283C149.269 79.0235 149.269 79.3401 149.464 79.5354C149.66 79.7306 149.976 79.7306 150.172 79.5354L153.354 76.3534ZM60.0001 48.9998L60.0001 49.4998C77.8715 49.5 91.7749 56.1966 105.909 62.9511C120.029 69.6986 134.373 76.4999 153 76.4998L153 75.9998L153 75.4998C134.627 75.4999 120.471 68.8013 106.341 62.0489C92.2252 55.3035 78.1286 48.5 60.0001 48.4998L60.0001 48.9998Z" fill="white"/>
<path d="M45.0359 19H15C6.71573 19 0 25.7157 0 34V57.5834C0 65.8677 6.71573 72.5834 15 72.5834H45.0359C53.3202 72.5834 60.0359 65.8677 60.0359 57.5834V34C60.0359 25.7157 53.3202 19 45.0359 19Z" fill="#434343"/>
<path d="M30.0001 39.9305V33.8611H23.9307" stroke="white" stroke-linecap="round" stroke-linejoin="round"/>
<path d="M21.1597 40.0625H39.3681C39.3681 40.0625 42.4028 40.0625 42.4028 43.0972V55.2361C42.4028 55.2361 42.4028 58.2708 39.3681 58.2708H21.1597C21.1597 58.2708 18.125 58.2708 18.125 55.2361V43.0972C18.125 43.0972 18.125 40.0625 21.1597 40.0625Z" stroke="white" stroke-linecap="round" stroke-linejoin="round"/>
<path d="M14.8262 49.0347H17.8609" stroke="white" stroke-linecap="round" stroke-linejoin="round"/>
<path d="M42.5 49.0347H45.5" stroke="white" stroke-linecap="round" stroke-linejoin="round"/>
<path d="M23.127 48.9038L26.6895 45.3413" stroke="white" stroke-linecap="round" stroke-linejoin="round"/>
<path d="M23.127 45.3413L26.6895 48.9038" stroke="white" stroke-linecap="round" stroke-linejoin="round"/>
<path d="M33.8145 48.9038L37.377 45.3413" stroke="white" stroke-linecap="round" stroke-linejoin="round"/>
<path d="M33.8145 45.3413L37.377 48.9038" stroke="white" stroke-linecap="round" stroke-linejoin="round"/>
<path d="M303.036 22H273C264.716 22 258 28.7157 258 37V60.5834C258 68.8677 264.716 75.5834 273 75.5834H303.036C311.32 75.5834 318.036 68.8677 318.036 60.5834V37C318.036 28.7157 311.32 22 303.036 22Z" fill="#434343"/>
<path d="M288 39.9305V33.8611H281.931" stroke="white" stroke-linecap="round" stroke-linejoin="round"/>
<path d="M278.896 39.9307H297.104C297.104 39.9307 300.139 39.9307 300.139 42.9654V55.1043C300.139 55.1043 300.139 58.139 297.104 58.139H278.896C278.896 58.139 275.861 58.139 275.861 55.1043V42.9654C275.861 42.9654 275.861 39.9307 278.896 39.9307Z" stroke="white" stroke-linecap="round" stroke-linejoin="round"/>
<path d="M272.826 49.0347H275.861" stroke="white" stroke-linecap="round" stroke-linejoin="round"/>
<path d="M300.139 49.0347H303.174" stroke="white" stroke-linecap="round" stroke-linejoin="round"/>
<path d="M292.552 47.5173V50.5521" stroke="white" stroke-linecap="round" stroke-linejoin="round"/>
<path d="M283.448 47.5173V50.5521" stroke="white" stroke-linecap="round" stroke-linejoin="round"/>
</svg>
