<svg width="317" height="146" viewBox="0 0 317 146" fill="none" xmlns="http://www.w3.org/2000/svg">
<path d="M50.1602 74.112C50.1546 74.4453 50.1489 74.7786 50.1433 75.1118C51.9005 75.141 53.5423 75.1126 55.2162 75.0229C74.7398 75.1216 90.1598 60.413 99.7681 44.8598C106.149 35.5055 114.524 26.158 126.182 24.9424C127.869 24.7134 129.421 24.6164 131.152 24.6118C131.152 24.2785 131.152 23.9451 131.151 23.6118C129.378 23.6165 127.783 23.7159 126.046 23.9517C113.993 25.2003 105.317 34.9337 98.9526 44.281C89.2533 59.8895 74.3853 74.0644 55.1623 74.0243C53.5137 74.1127 51.8948 74.1408 50.1602 74.112Z" fill="white"/>
<path d="M96.5002 102C96.3604 76.3466 146.861 68.3465 147 49.5" stroke="white"/>
<path d="M245.675 106.723C245.675 70.1648 180.047 76.1647 180.047 49.0505" stroke="white"/>
<path d="M194.84 24.3996C224.279 24.413 238.887 52.4552 266.183 52.5349" stroke="white"/>
<path d="M180.038 0H146C137.716 0 131 6.71573 131 15V34.4616C131 42.7459 137.716 49.4616 146 49.4616H180.038C188.323 49.4616 195.038 42.7459 195.038 34.4616V15C195.038 6.71573 188.323 0 180.038 0Z" fill="#434343"/>
<path d="M159.166 13.0208H166.833C166.833 13.0208 168.111 13.0208 168.111 14.2187V16.6145C168.111 16.6145 168.111 17.8124 166.833 17.8124H159.166C159.166 17.8124 157.889 17.8124 157.889 16.6145V14.2187C157.889 14.2187 157.889 13.0208 159.166 13.0208Z" stroke="white" stroke-linecap="round" stroke-linejoin="round"/>
<path d="M168.111 15.4167H170.667C171.344 15.4167 171.995 15.6692 172.474 16.1185C172.953 16.5678 173.222 17.1772 173.222 17.8126V34.5834C173.222 35.2188 172.953 35.8282 172.474 36.2775C171.995 36.7268 171.344 36.9792 170.667 36.9792H155.333C154.656 36.9792 154.006 36.7268 153.526 36.2775C153.047 35.8282 152.778 35.2188 152.778 34.5834V17.8126C152.778 17.1772 153.047 16.5678 153.526 16.1185C154.006 15.6692 154.656 15.4167 155.333 15.4167H157.889" stroke="white" stroke-linecap="round" stroke-linejoin="round"/>
<path d="M163.111 22H168.222" stroke="#66B5B7" stroke-linecap="round" stroke-linejoin="round"/>
<path d="M158 22H158.012" stroke="#66B5B7" stroke-linecap="round" stroke-linejoin="round"/>
<path d="M163 26H168.111" stroke="#66B5B7" stroke-linecap="round" stroke-linejoin="round"/>
<path d="M158 26H158.012" stroke="#66B5B7" stroke-linecap="round" stroke-linejoin="round"/>
<path d="M163.111 30H168.222" stroke="#66B5B7" stroke-linecap="round" stroke-linejoin="round"/>
<path d="M158 30H158.012" stroke="#66B5B7" stroke-linecap="round" stroke-linejoin="round"/>
<path d="M38.8671 55H11.8888C5.32279 55 0 60.3365 0 66.9194V82.3842C0 88.9671 5.32279 94.3036 11.8888 94.3036H38.8671C45.4331 94.3036 50.7559 88.9671 50.7559 82.3842V66.9194C50.7559 60.3365 45.4331 55 38.8671 55Z" fill="#434343"/>
<path d="M18.6113 82.9861H29.7919C30.2155 82.9861 30.6218 82.8179 30.9213 82.5183C31.2208 82.2188 31.3891 81.8125 31.3891 81.3889V71.007L27.3961 67.0139H20.2086C19.7849 67.0139 19.3787 67.1822 19.0791 67.4817C18.7796 67.7813 18.6113 68.1875 18.6113 68.6111V71.8056" stroke="white" stroke-linecap="round" stroke-linejoin="round"/>
<path d="M26.5972 67.0139V70.2084C26.5972 70.632 26.7654 71.0382 27.065 71.3378C27.3645 71.6373 27.7708 71.8056 28.1944 71.8056H31.3888" stroke="white" stroke-linecap="round" stroke-linejoin="round"/>
<path d="M20.7292 75L23.125 77.3958L20.7292 79.7917" stroke="#66B5B7" stroke-linecap="round" stroke-linejoin="round"/>
<path d="M18.2293 75L15.8335 77.3958L18.2293 79.7917" stroke="#66B5B7" stroke-linecap="round" stroke-linejoin="round"/>
<path d="M110.867 102H83.8888C77.3228 102 72 107.337 72 113.919V129.384C72 135.967 77.3228 141.304 83.8888 141.304H110.867C117.433 141.304 122.756 135.967 122.756 129.384V113.919C122.756 107.337 117.433 102 110.867 102Z" fill="#434343"/>
<path d="M93.0068 121.201L94.6041 119.604L93.0068 118.007" stroke="#66B5B7" stroke-linecap="round" stroke-linejoin="round"/>
<path d="M96.2012 122.799H99.3956" stroke="#66B5B7" stroke-linecap="round" stroke-linejoin="round"/>
<path d="M91.4097 114.812H102.59C102.59 114.812 104.187 114.812 104.187 116.41V127.59C104.187 127.59 104.188 129.187 102.59 129.187H91.4097C91.4097 129.187 89.8125 129.188 89.8125 127.59V116.41C89.8125 116.41 89.8125 114.812 91.4097 114.812Z" stroke="white" stroke-linecap="round" stroke-linejoin="round"/>
<path d="M304.867 33H277.889C271.323 33 266 38.3365 266 44.9194V60.3842C266 66.9671 271.323 72.3036 277.889 72.3036H304.867C311.433 72.3036 316.756 66.9671 316.756 60.3842V44.9194C316.756 38.3365 311.433 33 304.867 33Z" fill="#434343"/>
<path d="M292.597 45.0139V48.2084C292.597 48.632 292.765 49.0382 293.065 49.3378C293.365 49.6373 293.771 49.8056 294.194 49.8056H297.389" stroke="white" stroke-linecap="round" stroke-linejoin="round"/>
<path d="M284.825 60.1875C284.965 60.4297 285.166 60.631 285.408 60.7711C285.65 60.9113 285.925 60.9854 286.205 60.9861H295.792C296.215 60.9861 296.622 60.8179 296.921 60.5183C297.221 60.2188 297.389 59.8125 297.389 59.3889V49.007L293.396 45.0139H286.209C285.785 45.0139 285.379 45.1822 285.079 45.4817C284.78 45.7813 284.611 46.1875 284.611 46.6111V49.007" stroke="white" stroke-linecap="round" stroke-linejoin="round"/>
<path d="M288.604 57.7917L287.406 56.5938" stroke="#66B5B7" stroke-linecap="round" stroke-linejoin="round"/>
<path d="M283.014 54.5972C283.014 55.2327 283.266 55.8421 283.715 56.2914C284.165 56.7407 284.774 56.9931 285.41 56.9931C286.045 56.9931 286.654 56.7407 287.104 56.2914C287.553 55.8421 287.805 55.2327 287.805 54.5972C287.805 54.2826 287.743 53.9711 287.623 53.6804C287.503 53.3897 287.326 53.1256 287.104 52.9031C286.881 52.6807 286.617 52.5042 286.326 52.3838C286.036 52.2634 285.724 52.2014 285.41 52.2014C285.095 52.2014 284.783 52.2634 284.493 52.3838C284.202 52.5042 283.938 52.6807 283.715 52.9031C283.493 53.1256 283.316 53.3897 283.196 53.6804C283.076 53.9711 283.014 54.2826 283.014 54.5972Z" stroke="#66B5B7" stroke-linecap="round" stroke-linejoin="round"/>
<path d="M258.867 106H231.889C225.323 106 220 111.337 220 117.919V133.384C220 139.967 225.323 145.304 231.889 145.304H258.867C265.433 145.304 270.756 139.967 270.756 133.384V117.919C270.756 111.337 265.433 106 258.867 106Z" fill="#434343"/>
<g clip-path="url(#clip0_382_177)">
<path d="M246 130.5C246 131.428 246.369 132.318 247.025 132.975C247.682 133.631 248.572 134 249.5 134C250.428 134 251.318 133.631 251.975 132.975C252.631 132.318 253 131.428 253 130.5C253 129.572 252.631 128.682 251.975 128.025C251.318 127.369 250.428 127 249.5 127C248.572 127 247.682 127.369 247.025 128.025C246.369 128.682 246 129.572 246 130.5Z" stroke="#66B5B7" stroke-linecap="round" stroke-linejoin="round"/>
<path d="M255 136L252 133" stroke="#66B5B7" stroke-linecap="round" stroke-linejoin="round"/>
<path d="M245 134.984C243.223 134.984 241.486 134.457 240.009 133.47C238.531 132.483 237.38 131.08 236.7 129.438C236.02 127.796 235.842 125.99 236.188 124.247C236.535 122.504 237.391 120.904 238.647 119.647C239.904 118.391 241.504 117.535 243.247 117.188C244.99 116.842 246.796 117.02 248.438 117.7C250.08 118.38 251.483 119.531 252.47 121.009C253.457 122.486 253.984 124.223 253.984 126" stroke="white" stroke-linecap="round" stroke-linejoin="round"/>
<path d="M242.835 134.722C241.62 132.939 240.807 129.7 240.807 126C240.807 122.3 241.62 119.062 242.835 117.278" stroke="white" stroke-linecap="round" stroke-linejoin="round"/>
<path d="M236.027 125.701H245.5" stroke="white" stroke-linecap="round" stroke-linejoin="round"/>
<path d="M237.812 120.609H252.187" stroke="white" stroke-linecap="round" stroke-linejoin="round"/>
<path d="M237 130H243.5" stroke="white" stroke-linecap="round" stroke-linejoin="round"/>
<path d="M247.165 117.278C248.106 118.843 249 122.5 249 124.5" stroke="white" stroke-linecap="round" stroke-linejoin="round"/>
</g>
<defs>
<clipPath id="clip0_382_177">
<rect width="20" height="20" fill="white" transform="translate(235 116)"/>
</clipPath>
</defs>
</svg>
