<svg width="216" height="159" viewBox="0 0 216 159" fill="none" xmlns="http://www.w3.org/2000/svg">
<path d="M27.1464 75.3536C27.3417 75.5488 27.6583 75.5488 27.8536 75.3536L31.0355 72.1716C31.2308 71.9763 31.2308 71.6597 31.0355 71.4645C30.8403 71.2692 30.5237 71.2692 30.3284 71.4645L27.5 74.2929L24.6716 71.4645C24.4763 71.2692 24.1597 71.2692 23.9645 71.4645C23.7692 71.6597 23.7692 71.9763 23.9645 72.1716L27.1464 75.3536ZM83.7553 26.2228L83.7473 25.7229C67.9201 25.9741 53.7382 30.1891 43.5021 38.4091C33.2514 46.6407 27 58.8565 27 75L27.5 75L28 75C28 59.1435 34.1262 47.2207 44.1282 39.1888C54.1447 31.1452 68.0904 26.9716 83.7632 26.7228L83.7553 26.2228Z" fill="white"/>
<path d="M145.147 24.6464C144.951 24.8417 144.951 25.1583 145.147 25.3535L148.328 28.5355C148.524 28.7308 148.84 28.7308 149.036 28.5355C149.231 28.3403 149.231 28.0237 149.036 27.8284L146.207 25L149.036 22.1716C149.231 21.9763 149.231 21.6597 149.036 21.4644C148.84 21.2692 148.524 21.2692 148.328 21.4644L145.147 24.6464ZM186 105C186.5 105 186.5 105 186.5 104.999C186.5 104.998 186.5 104.997 186.5 104.996C186.5 104.993 186.5 104.99 186.5 104.985C186.5 104.975 186.5 104.96 186.5 104.94C186.5 104.901 186.499 104.843 186.499 104.767C186.497 104.614 186.495 104.388 186.49 104.093C186.48 103.504 186.46 102.642 186.421 101.545C186.341 99.3503 186.183 96.2172 185.865 92.4581C185.231 84.942 183.962 74.9129 181.422 64.8774C178.884 54.8488 175.066 44.7747 169.312 37.1976C163.548 29.6063 155.819 24.5 145.5 24.5L145.5 25L145.5 25.5C155.431 25.5 162.89 30.3937 168.516 37.8024C174.153 45.2254 177.929 55.1513 180.453 65.1228C182.975 75.0873 184.237 85.0582 184.869 92.5422C185.185 96.283 185.342 99.4 185.421 101.581C185.461 102.671 185.48 103.527 185.49 104.11C185.495 104.402 185.498 104.625 185.499 104.775C185.499 104.85 185.5 104.906 185.5 104.944C185.5 104.963 185.5 104.977 185.5 104.987C185.5 104.991 185.5 104.995 185.5 104.997C185.5 104.998 185.5 104.999 185.5 104.999C185.5 105 185.5 105 186 105Z" fill="white"/>
<path d="M152.854 132.854C153.049 132.658 153.049 132.342 152.854 132.146L149.672 128.964C149.476 128.769 149.16 128.769 148.964 128.964C148.769 129.16 148.769 129.476 148.964 129.672L151.793 132.5L148.964 135.328C148.769 135.524 148.769 135.84 148.964 136.036C149.16 136.231 149.476 136.231 149.672 136.036L152.854 132.854ZM28 131.5H27.5C27.5 134.445 29.3265 136.616 32.3423 138.161C35.346 139.7 39.6138 140.671 44.7275 141.224C54.9659 142.331 68.7877 141.78 83.1672 140.561C97.5541 139.341 112.533 137.449 125.094 135.863C137.678 134.275 147.791 133 152.5 133V132.5V132C147.709 132 137.509 133.288 124.969 134.871C112.404 136.457 97.4459 138.347 83.0828 139.564C68.7123 140.783 54.9716 141.326 44.835 140.229C39.7612 139.681 35.6384 138.726 32.7983 137.271C29.9704 135.822 28.5 133.93 28.5 131.5H28Z" fill="white"/>
<path d="M128.036 0H98C89.7157 0 83 6.71573 83 15V38.5834C83 46.8677 89.7157 53.5834 98 53.5834H128.036C136.32 53.5834 143.036 46.8677 143.036 38.5834V15C143.036 6.71573 136.32 0 128.036 0Z" fill="#434343"/>
<mask id="mask0_383_40" style="mask-type:luminance" maskUnits="userSpaceOnUse" x="117" y="33" width="17" height="15">
<path d="M133.195 34H118V47.3447H133.195V34Z" fill="white" stroke="white"/>
</mask>
<g mask="url(#mask0_383_40)">
<path d="M118.802 45.2745C118.802 45.6437 118.969 45.9979 119.267 46.2591C119.564 46.5203 119.967 46.667 120.388 46.667C120.808 46.667 121.212 46.5203 121.509 46.2591C121.806 45.9979 121.973 45.6437 121.973 45.2745C121.973 44.9054 121.806 44.5512 121.509 44.29C121.212 44.0287 120.808 43.8821 120.388 43.8821C119.967 43.8821 119.564 44.0287 119.267 44.29C118.969 44.5512 118.802 44.9054 118.802 45.2745Z" stroke="#66B5B7" stroke-linecap="round" stroke-linejoin="round"/>
<path d="M124.087 43.96H127.107V46.612H124.087V43.96Z" stroke="#66B5B7" stroke-linecap="round" stroke-linejoin="round"/>
<path d="M132.392 46.612H128.768L130.58 43.6948L132.392 46.612Z" stroke="#66B5B7" stroke-linecap="round" stroke-linejoin="round"/>
<path d="M127.863 36.7212C127.863 36.3624 127.753 36.0101 127.545 35.7016C127.336 35.3932 127.036 35.14 126.677 34.969C126.318 34.798 125.913 34.7155 125.505 34.7302C125.097 34.7449 124.7 34.8562 124.359 35.0526C124.017 35.2488 123.741 35.5226 123.562 35.845C123.383 36.1674 123.306 36.5264 123.34 36.8839C123.375 37.2415 123.518 37.5842 123.756 37.8759C123.994 38.1676 124.317 38.3973 124.692 38.5408V39.5059H126.503V38.5408C126.907 38.3864 127.25 38.1321 127.492 37.8089C127.733 37.4857 127.862 37.1077 127.863 36.7212Z" stroke="#66B5B7" stroke-linecap="round" stroke-linejoin="round"/>
<path d="M120.464 42.5012V41.1753H130.731V42.5012" stroke="#66B5B7" stroke-linecap="round" stroke-linejoin="round"/>
<path d="M130.315 37.0642H131.221" stroke="#66B5B7" stroke-linecap="round" stroke-linejoin="round"/>
<path d="M130.128 38.8887L130.768 39.4513" stroke="#66B5B7" stroke-linecap="round" stroke-linejoin="round"/>
<path d="M130.128 35.2402L130.768 34.6775" stroke="#66B5B7" stroke-linecap="round" stroke-linejoin="round"/>
<path d="M120.88 37.0642H119.974" stroke="#66B5B7" stroke-linecap="round" stroke-linejoin="round"/>
<path d="M121.067 38.8887L120.427 39.4513" stroke="#66B5B7" stroke-linecap="round" stroke-linejoin="round"/>
<path d="M121.067 35.2402L120.427 34.6775" stroke="#66B5B7" stroke-linecap="round" stroke-linejoin="round"/>
<path d="M125.597 39.5059V42.236" stroke="#66B5B7" stroke-linecap="round" stroke-linejoin="round"/>
</g>
<path d="M109 17.8889V12.7778H103.889" stroke="white" stroke-linecap="round" stroke-linejoin="round"/>
<path d="M101.333 17.8889H116.667C116.667 17.8889 119.222 17.8889 119.222 20.4445V30.6667C119.222 30.6667 119.222 33.2222 116.667 33.2222H101.333C101.333 33.2222 98.7778 33.2223 98.7778 30.6667V20.4445C98.7778 20.4445 98.7778 17.8889 101.333 17.8889Z" stroke="white" stroke-linecap="round" stroke-linejoin="round"/>
<path d="M96.2222 25.5557H98.7777" stroke="white" stroke-linecap="round" stroke-linejoin="round"/>
<path d="M119.222 25.5557H121.778" stroke="white" stroke-linecap="round" stroke-linejoin="round"/>
<path d="M112.833 24.2778V26.8334" stroke="white" stroke-linecap="round" stroke-linejoin="round"/>
<path d="M105.167 24.2778V26.8334" stroke="white" stroke-linecap="round" stroke-linejoin="round"/>
<path d="M200.036 105H170C161.716 105 155 111.716 155 120V143.583C155 151.868 161.716 158.583 170 158.583H200.036C208.32 158.583 215.036 151.868 215.036 143.583V120C215.036 111.716 208.32 105 200.036 105Z" fill="#434343"/>
<path d="M174.219 122.615C174.219 123.568 175.355 124.482 177.377 125.156C179.398 125.83 182.141 126.208 185 126.208C187.859 126.208 190.602 125.83 192.623 125.156C194.645 124.482 195.781 123.568 195.781 122.615C195.781 121.661 194.645 120.747 192.623 120.073C190.602 119.399 187.859 119.021 185 119.021C182.141 119.021 179.398 119.399 177.377 120.073C175.355 120.747 174.219 121.661 174.219 122.615Z" stroke="white" stroke-linecap="round" stroke-linejoin="round"/>
<path d="M174.219 122.615V139.385C174.212 139.961 174.621 140.53 175.411 141.042C176.201 141.554 177.091 142.166 178.5 142.5C179.909 142.834 181 143 182 143C183 143 185 143 186.5 143" stroke="white" stroke-linecap="round" stroke-linejoin="round"/>
<path d="M195.781 122.615V126.208" stroke="white" stroke-linecap="round" stroke-linejoin="round"/>
<g clip-path="url(#clip0_383_40)">
<path d="M192.429 138.677C192.383 138.511 192.289 138.36 192.158 138.239C192.027 138.118 191.863 138.031 191.683 137.989L188.498 137.231C188.444 137.216 188.396 137.186 188.362 137.144C188.328 137.103 188.31 137.052 188.31 137C188.31 136.948 188.328 136.897 188.362 136.856C188.396 136.814 188.444 136.784 188.498 136.77L191.683 136.011C191.863 135.968 192.027 135.882 192.158 135.761C192.289 135.64 192.383 135.489 192.429 135.323L193.25 132.383C193.266 132.333 193.298 132.289 193.343 132.257C193.389 132.225 193.444 132.208 193.5 132.208C193.557 132.208 193.612 132.225 193.657 132.257C193.702 132.289 193.735 132.333 193.75 132.383L194.571 135.323C194.617 135.489 194.711 135.64 194.842 135.761C194.973 135.882 195.137 135.969 195.317 136.012L198.501 136.769C198.556 136.783 198.605 136.813 198.639 136.855C198.673 136.897 198.692 136.948 198.692 137C198.692 137.052 198.673 137.103 198.639 137.145C198.605 137.187 198.556 137.217 198.501 137.231L195.317 137.989C195.137 138.031 194.973 138.118 194.842 138.239C194.711 138.36 194.617 138.511 194.571 138.677L193.75 141.617C193.734 141.667 193.702 141.712 193.657 141.743C193.611 141.775 193.556 141.792 193.5 141.792C193.443 141.792 193.388 141.775 193.343 141.743C193.298 141.712 193.265 141.667 193.25 141.617L192.429 138.677Z" stroke="#66B5B7" stroke-linecap="round" stroke-linejoin="round"/>
<path d="M197.653 132.688V134.604" stroke="#66B5B7" stroke-linecap="round" stroke-linejoin="round"/>
<path d="M198.691 133.646H196.615" stroke="#66B5B7" stroke-linecap="round" stroke-linejoin="round"/>
<path d="M189.347 139.396V140.354" stroke="#66B5B7" stroke-linecap="round" stroke-linejoin="round"/>
<path d="M189.866 139.875H188.828" stroke="#66B5B7" stroke-linecap="round" stroke-linejoin="round"/>
</g>
<path d="M174.219 131C174.22 131.56 174.615 132.112 175.37 132.612C176.126 133.113 177.222 133.547 178.571 133.881C179.919 134.215 180.5 134.5 182.5 134.536C183.5 134.536 185 134.5 186.5 134.5" stroke="white" stroke-linecap="round" stroke-linejoin="round"/>
<path d="M45.0359 78H15C6.71573 78 0 84.7157 0 93V116.583C0 124.868 6.71573 131.583 15 131.583H45.0359C53.3202 131.583 60.0359 124.868 60.0359 116.583V93C60.0359 84.7157 53.3202 78 45.0359 78Z" fill="#434343"/>
<path d="M27.0259 97.4929V92.3818H21.9148" stroke="white" stroke-linecap="round" stroke-linejoin="round"/>
<path d="M19.5814 97.604H34.9148C34.9148 97.604 37.4703 97.604 37.4703 100.16V110.382C37.4703 110.382 37.4703 112.937 34.9148 112.937H19.5814C19.5814 112.937 17.0259 112.937 17.0259 110.382V100.16C17.0259 100.16 17.0259 97.604 19.5814 97.604Z" stroke="white" stroke-linecap="round" stroke-linejoin="round"/>
<path d="M14.248 105.16H16.8036" stroke="white" stroke-linecap="round" stroke-linejoin="round"/>
<path d="M37.248 105.16H39.8036" stroke="white" stroke-linecap="round" stroke-linejoin="round"/>
<path d="M30.8591 103.882V106.437" stroke="white" stroke-linecap="round" stroke-linejoin="round"/>
<path d="M23.1926 103.882V106.437" stroke="white" stroke-linecap="round" stroke-linejoin="round"/>
<g filter="url(#filter0_d_383_40)">
<path d="M44.4255 121.604L48.0259 117.604L44.4255 113.604M39.6257 113.604L36.0259 117.604L39.6257 121.604" stroke="#66B5B7" stroke-width="1.5" stroke-linecap="round" stroke-linejoin="round" shape-rendering="crispEdges"/>
</g>
<defs>
<filter id="filter0_d_383_40" x="31.2759" y="112.854" width="21.5" height="17.5" filterUnits="userSpaceOnUse" color-interpolation-filters="sRGB">
<feFlood flood-opacity="0" result="BackgroundImageFix"/>
<feColorMatrix in="SourceAlpha" type="matrix" values="0 0 0 0 0 0 0 0 0 0 0 0 0 0 0 0 0 0 127 0" result="hardAlpha"/>
<feOffset dy="4"/>
<feGaussianBlur stdDeviation="2"/>
<feComposite in2="hardAlpha" operator="out"/>
<feColorMatrix type="matrix" values="0 0 0 0 0 0 0 0 0 0 0 0 0 0 0 0 0 0 0.25 0"/>
<feBlend mode="normal" in2="BackgroundImageFix" result="effect1_dropShadow_383_40"/>
<feBlend mode="normal" in="SourceGraphic" in2="effect1_dropShadow_383_40" result="shape"/>
</filter>
<clipPath id="clip0_383_40">
<rect width="13" height="12" fill="white" transform="translate(187 131)"/>
</clipPath>
</defs>
</svg>
